<svg width="160" height="226" viewBox="0 0 160 226" fill="none" xmlns="http://www.w3.org/2000/svg">
<path d="M89.5607 111.264H85.9478V201.063H89.5607V111.264Z" fill="#ADADB2"/>
<path d="M152.881 111.264H149.268V201.063H152.881V111.264Z" fill="#ADADB2"/>
<path d="M138.62 111.264H135.007V190.177H138.62V111.264Z" fill="#909097"/>
<path d="M102.039 111.264H98.4263V190.177H102.039V111.264Z" fill="#909097"/>
<path d="M156.708 11.5542H82.4306C80.7109 11.5542 79.3169 12.9483 79.3169 14.6679V116.731C79.3169 118.451 80.7109 119.845 82.4306 119.845H156.708C158.428 119.845 159.822 118.451 159.822 116.731V14.6679C159.822 12.9483 158.428 11.5542 156.708 11.5542Z" fill="#ADADB2"/>
<path d="M155.781 12.8379H83.3573C81.6771 12.8379 80.3149 14.2 80.3149 15.8803V115.4C80.3149 117.081 81.6771 118.443 83.3573 118.443H155.781C157.461 118.443 158.823 117.081 158.823 115.4V15.8803C158.823 14.2 157.461 12.8379 155.781 12.8379Z" fill="#E5E8EA"/>
<path d="M85.9478 119.845V126.358L89.5607 124.955L89.4894 119.845H85.9478Z" fill="#909097"/>
<path d="M149.268 119.916V126.429L152.881 125.027L152.81 119.916H149.268Z" fill="#909097"/>
<g style="mix-blend-mode:multiply">
<path d="M98.4263 119.916V133.488L102.015 130.612L101.944 119.916H98.4263Z" fill="#B9B9BD"/>
</g>
<g style="mix-blend-mode:multiply">
<path d="M135.007 119.916V133.488L138.596 130.612L138.548 119.916H135.007Z" fill="#B9B9BD"/>
</g>
<path d="M154.331 25.6733H86.4471C86.4107 25.6734 86.3746 25.6659 86.3412 25.6513C86.3079 25.6367 86.2779 25.6153 86.2533 25.5885C86.2287 25.5616 86.21 25.5299 86.1983 25.4954C86.1867 25.4609 86.1823 25.4243 86.1856 25.388C86.1856 25.3187 86.2132 25.2522 86.2622 25.2032C86.3113 25.1541 86.3778 25.1266 86.4471 25.1266H154.331C154.367 25.1233 154.404 25.1276 154.438 25.1392C154.473 25.1509 154.504 25.1696 154.531 25.1942C154.558 25.2188 154.58 25.2488 154.594 25.2822C154.609 25.3155 154.616 25.3516 154.616 25.388C154.616 25.4637 154.586 25.5362 154.533 25.5897C154.479 25.6432 154.407 25.6733 154.331 25.6733Z" fill="#ABB6B6"/>
<path d="M154.331 32.732H86.4471C86.3778 32.732 86.3113 32.7044 86.2622 32.6554C86.2132 32.6064 86.1856 32.5399 86.1856 32.4705C86.1823 32.4342 86.1867 32.3977 86.1983 32.3632C86.21 32.3286 86.2287 32.2969 86.2533 32.2701C86.2779 32.2432 86.3079 32.2218 86.3412 32.2072C86.3746 32.1926 86.4107 32.1852 86.4471 32.1853H154.331C154.407 32.1853 154.479 32.2153 154.533 32.2688C154.586 32.3223 154.616 32.3949 154.616 32.4705C154.616 32.507 154.609 32.543 154.594 32.5764C154.58 32.6098 154.558 32.6397 154.531 32.6643C154.504 32.689 154.473 32.7077 154.438 32.7193C154.404 32.731 154.367 32.7353 154.331 32.732Z" fill="#ABB6B6"/>
<path d="M154.331 39.8158H86.4473C86.3717 39.8158 86.2991 39.7858 86.2456 39.7323C86.1921 39.6788 86.1621 39.6062 86.1621 39.5306C86.1621 39.4549 86.1921 39.3824 86.2456 39.3289C86.2991 39.2754 86.3717 39.2454 86.4473 39.2454H154.331C154.407 39.2454 154.479 39.2754 154.533 39.3289C154.586 39.3824 154.616 39.4549 154.616 39.5306C154.616 39.6062 154.586 39.6788 154.533 39.7323C154.479 39.7858 154.407 39.8158 154.331 39.8158Z" fill="#ABB6B6"/>
<path d="M154.331 46.8749H86.4471C86.4107 46.8751 86.3746 46.8676 86.3412 46.853C86.3079 46.8384 86.2779 46.817 86.2533 46.7901C86.2287 46.7633 86.21 46.7316 86.1983 46.6971C86.1867 46.6625 86.1823 46.626 86.1856 46.5897C86.1856 46.5203 86.2132 46.4538 86.2622 46.4048C86.3113 46.3558 86.3778 46.3282 86.4471 46.3282H154.331C154.367 46.3249 154.404 46.3292 154.438 46.3409C154.473 46.3525 154.504 46.3712 154.531 46.3959C154.558 46.4205 154.58 46.4504 154.594 46.4838C154.609 46.5172 154.616 46.5533 154.616 46.5897C154.616 46.6653 154.586 46.7379 154.533 46.7914C154.479 46.8449 154.407 46.8749 154.331 46.8749Z" fill="#ABB6B6"/>
<path d="M154.331 53.8628H86.4471C86.3778 53.8628 86.3113 53.8353 86.2622 53.7863C86.2132 53.7372 86.1856 53.6707 86.1856 53.6014C86.1823 53.5651 86.1867 53.5285 86.1983 53.494C86.21 53.4595 86.2287 53.4278 86.2533 53.4009C86.2779 53.3741 86.3079 53.3527 86.3412 53.3381C86.3746 53.3235 86.4107 53.316 86.4471 53.3162H154.331C154.407 53.3162 154.479 53.3462 154.533 53.3997C154.586 53.4532 154.616 53.5257 154.616 53.6014C154.616 53.6378 154.609 53.6739 154.594 53.7073C154.58 53.7406 154.558 53.7706 154.531 53.7952C154.504 53.8198 154.473 53.8386 154.438 53.8502C154.404 53.8619 154.367 53.8662 154.331 53.8628Z" fill="#ABB6B6"/>
<path d="M154.331 60.9936H86.4473C86.3717 60.9936 86.2991 60.9635 86.2456 60.91C86.1921 60.8565 86.1621 60.784 86.1621 60.7083C86.1621 60.6327 86.1921 60.5601 86.2456 60.5066C86.2991 60.4531 86.3717 60.4231 86.4473 60.4231H154.331C154.407 60.4231 154.479 60.4531 154.533 60.5066C154.586 60.5601 154.616 60.6327 154.616 60.7083C154.616 60.784 154.586 60.8565 154.533 60.91C154.479 60.9635 154.407 60.9936 154.331 60.9936Z" fill="#ABB6B6"/>
<path d="M154.331 68.1239H86.4471C86.4107 68.1241 86.3746 68.1166 86.3412 68.102C86.3079 68.0874 86.2779 68.066 86.2533 68.0392C86.2287 68.0123 86.21 67.9806 86.1983 67.9461C86.1867 67.9116 86.1823 67.875 86.1856 67.8387C86.1856 67.7694 86.2132 67.7029 86.2622 67.6538C86.3113 67.6048 86.3778 67.5773 86.4471 67.5773H154.331C154.367 67.5739 154.404 67.5782 154.438 67.5899C154.473 67.6015 154.504 67.6203 154.531 67.6449C154.558 67.6695 154.58 67.6995 154.594 67.7328C154.609 67.7662 154.616 67.8023 154.616 67.8387C154.616 67.9144 154.586 67.9869 154.533 68.0404C154.479 68.0939 154.407 68.1239 154.331 68.1239Z" fill="#ABB6B6"/>
<path d="M154.331 75.2547H86.4471C86.3778 75.2547 86.3113 75.2271 86.2622 75.1781C86.2132 75.1291 86.1856 75.0626 86.1856 74.9932C86.1823 74.957 86.1867 74.9204 86.1983 74.8859C86.21 74.8514 86.2287 74.8196 86.2533 74.7928C86.2779 74.7659 86.3079 74.7445 86.3412 74.7299C86.3746 74.7153 86.4107 74.7079 86.4471 74.708H154.331C154.407 74.708 154.479 74.7381 154.533 74.7916C154.586 74.845 154.616 74.9176 154.616 74.9932C154.616 75.0297 154.609 75.0657 154.594 75.0991C154.58 75.1325 154.558 75.1624 154.531 75.1871C154.504 75.2117 154.473 75.2304 154.438 75.2421C154.404 75.2537 154.367 75.258 154.331 75.2547Z" fill="#ABB6B6"/>
<path d="M154.331 82.2189H86.4473C86.3717 82.2189 86.2991 82.1888 86.2456 82.1353C86.1921 82.0819 86.1621 82.0093 86.1621 81.9337C86.1621 81.858 86.1921 81.7855 86.2456 81.732C86.2991 81.6785 86.3717 81.6484 86.4473 81.6484H154.331C154.407 81.6484 154.479 81.6785 154.533 81.732C154.586 81.7855 154.616 81.858 154.616 81.9337C154.616 82.0093 154.586 82.0819 154.533 82.1353C154.479 82.1888 154.407 82.2189 154.331 82.2189Z" fill="#ABB6B6"/>
<path d="M154.331 89.278H86.4471C86.4107 89.2781 86.3746 89.2707 86.3412 89.2561C86.3079 89.2415 86.2779 89.2201 86.2533 89.1932C86.2287 89.1664 86.21 89.1347 86.1983 89.1001C86.1867 89.0656 86.1823 89.029 86.1856 88.9928C86.1856 88.9234 86.2132 88.8569 86.2622 88.8079C86.3113 88.7589 86.3778 88.7313 86.4471 88.7313H154.331C154.367 88.728 154.404 88.7323 154.438 88.744C154.473 88.7556 154.504 88.7743 154.531 88.7989C154.558 88.8236 154.58 88.8535 154.594 88.8869C154.609 88.9203 154.616 88.9563 154.616 88.9928C154.616 89.0684 154.586 89.141 154.533 89.1945C154.479 89.2479 154.407 89.278 154.331 89.278Z" fill="#ABB6B6"/>
<path d="M154.331 96.3379H86.4471C86.3778 96.3379 86.3113 96.3104 86.2622 96.2614C86.2132 96.2123 86.1856 96.1458 86.1856 96.0765C86.1823 96.0402 86.1867 96.0036 86.1983 95.9691C86.21 95.9346 86.2287 95.9029 86.2533 95.876C86.2779 95.8492 86.3079 95.8278 86.3412 95.8132C86.3746 95.7986 86.4107 95.7911 86.4471 95.7913H154.331C154.407 95.7913 154.479 95.8213 154.533 95.8748C154.586 95.9283 154.616 96.0008 154.616 96.0765C154.616 96.1129 154.609 96.149 154.594 96.1824C154.58 96.2157 154.558 96.2457 154.531 96.2703C154.504 96.2949 154.473 96.3137 154.438 96.3253C154.404 96.337 154.367 96.3413 154.331 96.3379Z" fill="#ABB6B6"/>
<path d="M154.331 103.421H86.4473C86.3717 103.421 86.2991 103.39 86.2456 103.337C86.1921 103.284 86.1621 103.211 86.1621 103.135C86.1621 103.06 86.1921 102.987 86.2456 102.934C86.2991 102.88 86.3717 102.85 86.4473 102.85H154.331C154.407 102.85 154.479 102.88 154.533 102.934C154.586 102.987 154.616 103.06 154.616 103.135C154.616 103.211 154.586 103.284 154.533 103.337C154.479 103.39 154.407 103.421 154.331 103.421Z" fill="#ABB6B6"/>
<path d="M155.567 24.9363H151.027V103.611H155.567V24.9363Z" fill="#ABB6B6"/>
<path d="M89.7513 25.126H85.2114V103.42H89.7513V25.126Z" fill="#ABB6B6"/>
<path d="M91.2725 92.4872C91.1174 92.5335 90.9521 92.5335 90.797 92.4872C90.6734 92.4268 90.5633 92.3421 90.4732 92.2382C90.3832 92.1342 90.315 92.0131 90.2728 91.8821C90.2307 91.7512 90.2154 91.6131 90.2279 91.4761C90.2403 91.3391 90.2803 91.206 90.3454 91.0849L108.766 55.5743L120.651 65.2482L128.447 40.0057L141.044 46.9937L149.863 0.763371C149.921 0.637907 150.004 0.525334 150.107 0.432178C150.209 0.339022 150.329 0.267141 150.459 0.220706C150.59 0.174272 150.728 0.154209 150.867 0.16168C151.005 0.169151 151.14 0.204008 151.265 0.264228C151.526 0.351572 151.743 0.53619 151.872 0.779678C152 1.02317 152.03 1.30678 151.954 1.57151L142.684 50.464L129.707 43.3333L121.839 68.8135L109.432 58.6167L92.1994 91.893C92.1177 92.0702 91.9871 92.2203 91.8228 92.3256C91.6585 92.4309 91.4676 92.487 91.2725 92.4872Z" fill="#D60000"/>
<path d="M155.044 8.70234C154.928 8.76496 154.802 8.80418 154.671 8.81776C154.54 8.83133 154.408 8.819 154.283 8.78146C154.157 8.74393 154.039 8.68192 153.938 8.59901C153.836 8.5161 153.751 8.4139 153.689 8.29827L150.052 1.5717C149.99 1.45625 149.951 1.32958 149.937 1.19895C149.923 1.06832 149.936 0.936293 149.973 0.810436C150.011 0.684579 150.073 0.567364 150.156 0.465511C150.239 0.363657 150.341 0.279166 150.456 0.216878C150.687 0.0885269 150.958 0.0564764 151.212 0.127726C151.466 0.198975 151.681 0.367738 151.811 0.597178L155.424 7.27621C155.503 7.39194 155.556 7.52332 155.58 7.66141C155.603 7.79949 155.597 7.94104 155.561 8.07639C155.525 8.21174 155.46 8.33771 155.37 8.44573C155.281 8.55376 155.17 8.64128 155.044 8.70234Z" fill="#D60000"/>
<path d="M144.443 6.63398C144.63 6.81832 144.881 6.92168 145.144 6.92168C145.406 6.92168 145.658 6.81832 145.845 6.63398L151.597 1.69006C151.691 1.59917 151.766 1.49024 151.817 1.36977C151.868 1.2493 151.895 1.11976 151.895 0.988883C151.895 0.858004 151.868 0.728467 151.817 0.607998C151.766 0.487529 151.691 0.378596 151.597 0.287703C151.41 0.103357 151.158 0 150.896 0C150.633 0 150.382 0.103357 150.195 0.287703L144.443 5.20785C144.257 5.39869 144.153 5.65454 144.153 5.92091C144.153 6.18729 144.257 6.44314 144.443 6.63398Z" fill="#D60000"/>
<path d="M16.9705 79.4855C16.9705 79.4855 15.6395 78.511 16.305 74.4703C17.0634 70.8732 18.064 67.3315 19.2999 63.8694L27.4764 74.9932L16.9705 79.4855Z" fill="#B7A994"/>
<path d="M69.9757 93.8894C71.4969 85.1425 76.5121 69.8116 72.0198 67.9101C66.1964 65.5332 50.4377 65.5332 50.4377 65.5332V65.8184C50.4377 65.8184 35.0118 69.3362 30.0916 73.3531C26.3361 76.4193 35.6535 90.4429 39.5991 98.4055C41.9738 104.429 43.5713 110.731 44.3529 117.159C44.5668 119.132 44.9708 128.307 45.779 131.991C46.0167 133.108 58.5904 137.481 63.154 137.624C66.7431 137.624 78.3185 128.116 78.2472 127.118C77.9857 123.339 74.3967 114.616 74.0401 112.667C72.6378 104.799 69.5954 96.0048 69.9757 93.8894Z" fill="#FFBD95"/>
<path d="M39.7892 79.5806C41.2391 76.7046 39.0762 72.759 33.7282 70.0731C28.3802 67.3872 24.4345 66.2939 23.0084 65.6521C21.5823 65.0104 13.5009 60.5656 11.124 59.7099C10.041 59.2 8.80545 59.1175 7.66423 59.4788C6.52301 59.8401 5.56013 60.6187 4.9679 61.659C4.04091 63.5842 6.32272 67.5536 9.72166 70.1444C13.1206 72.7352 35.9386 87.1391 39.7892 79.5806Z" fill="#FFBD95"/>
<path d="M56.5463 62.2297C55.9758 60.6848 53.9555 52.9124 53.9555 52.9124L48.7501 53.673V53.8631L43.5448 54.5999C43.5448 54.5999 43.7587 62.61 43.5448 64.2501C43.3309 65.8901 39.4565 69.0038 39.4565 69.0038L63.1065 66.2704C63.1065 66.2704 57.1405 63.7509 56.5463 62.2297Z" fill="#FFBD95"/>
<path d="M55.8807 60.0428C55.2152 57.6659 54.312 54.2908 54.0506 53.2449L53.6702 52.9597L48.7501 53.6728V53.8629L43.5448 54.5998C43.5448 54.5998 43.7587 62.6099 43.5448 64.2499C43.3309 65.89 39.4565 69.0037 39.4565 69.0037H39.9795L50.1525 64.6777C52.1354 63.3098 54.0107 61.7921 55.7619 60.1379L55.8807 60.0428Z" fill="#FFA47C"/>
<path d="M54.3594 119.655C47.918 119.513 45.3509 123.957 45.2559 137.719C45.2568 149.145 46.3633 160.544 48.5598 171.756C49.4154 173.919 57.2354 173.111 58.0673 171.875C58.8992 170.639 62.2982 140.025 62.3932 135.557C62.4883 131.088 61.3712 119.798 54.3594 119.655Z" fill="#FFBD95"/>
<path d="M52.8141 168.476C50.8413 168.476 46.2302 171.114 46.4916 183.949C46.7531 196.784 51.9347 215.491 51.9347 215.491H56.6885C56.6885 215.491 59.2079 190.51 59.2317 185.946C59.2554 175.678 59.0178 168.476 52.8141 168.476Z" fill="#FFBD95"/>
<path d="M69.524 121.034C75.894 120.225 79.0315 124.385 80.4101 138.076C81.7887 151.767 81.4321 168.167 80.7904 170.401C80.1486 172.636 72.5426 172.588 71.4968 171.447C70.4509 170.306 63.6055 142.093 63.0826 137.648C62.5597 133.203 62.5597 121.889 69.524 121.034Z" fill="#FFBD95"/>
<path d="M65.3405 76.9188C67.86 78.8916 72.1622 77.5368 75.7275 72.783C79.2928 68.0292 81.2181 64.3926 82.0975 63.1329C82.977 61.8731 88.9667 54.6712 90.2265 52.532C90.9444 51.5672 91.27 50.3662 91.1377 49.1709C91.0054 47.9757 90.425 46.875 89.5134 46.0906C87.8259 44.8309 83.4761 46.3045 80.2673 49.2043C77.0586 52.1041 58.5664 71.6659 65.3405 76.9188Z" fill="#FFBD95"/>
<path d="M76.7968 167.739C74.8953 167.264 69.4047 168.072 66.6 180.622C63.7953 193.172 64.4133 212.401 64.4133 212.401L69.4285 212.615C69.4285 212.615 77.2959 190.082 78.3893 185.661C80.885 175.583 82.8341 169.213 76.7968 167.739Z" fill="#FFBD95"/>
<path d="M9.50742 66.1752C6.94039 66.5555 4.61102 65.5334 3.16112 58.4028C1.71122 51.2721 0.499023 34.2774 0.499023 34.2774L4.58726 33.6594C4.58726 33.6594 10.7672 47.1363 11.7179 50.9869C12.6687 54.8374 16.234 65.1769 9.50742 66.1752Z" fill="#FFBD95"/>
<path d="M56.8788 42.4774C60.4442 48.2294 59.6835 56.7387 55.9756 58.9729C52.2677 61.2072 44.3527 58.2598 40.7874 52.484C37.222 46.7082 37.8876 39.8153 42.3323 37.0581C46.7771 34.3009 53.2897 36.7015 56.8788 42.4774Z" fill="#FFBD95"/>
<path d="M43.5922 55.7646C41.2405 54.1678 39.155 52.2107 37.4123 49.965C36.9131 48.5864 35.6296 45.8768 36.6755 44.0228C36.9132 43.6425 38.0065 43.1671 37.4123 42.0025C36.5091 40.2436 39.7892 38.0806 40.1457 37.8191C41.2522 36.9389 42.4566 36.1892 43.7348 35.5849C45.1847 34.9669 48.1558 34.0161 53.2423 36.8446C54.2168 37.3675 50.1999 37.0585 49.8196 36.5832C49.4393 36.1078 43.2119 42.3828 42.689 43.1671C42.3838 44.1969 42.1926 45.2569 42.1185 46.3284C42.1185 46.7562 43.3545 48.8954 43.307 49.347C43.2594 49.7986 41.5956 50.7494 41.548 51.3436C41.6344 53.0256 42.3667 54.6093 43.5922 55.7646Z" fill="#8D3B26"/>
<path d="M1.83011 24.3423C2.06146 24.3483 2.28165 24.4429 2.4453 24.6065C2.60894 24.7702 2.70354 24.9904 2.70955 25.2217V29.001C2.70959 29.1185 2.6861 29.2348 2.64042 29.3431C2.59475 29.4514 2.52783 29.5494 2.44363 29.6314C2.35943 29.7134 2.25968 29.7777 2.15022 29.8204C2.04076 29.8632 1.9238 29.8836 1.80632 29.8804C1.57308 29.8804 1.34939 29.7878 1.18447 29.6229C1.01954 29.4579 0.926888 29.2342 0.926888 29.001V25.3406C0.913512 25.2142 0.926986 25.0865 0.966348 24.9657C1.00571 24.8449 1.07006 24.7337 1.15531 24.6395C1.24055 24.5453 1.34477 24.4701 1.46105 24.4189C1.57732 24.3677 1.70306 24.3416 1.83011 24.3423Z" fill="#FFBD95"/>
<path d="M3.49418 24.1991C3.61056 24.1958 3.72634 24.2163 3.83452 24.2593C3.94271 24.3024 4.04096 24.367 4.12329 24.4494C4.20562 24.5317 4.2703 24.6299 4.31334 24.7381C4.35637 24.8463 4.3769 24.9621 4.37362 25.0785V28.8578C4.37362 29.091 4.28097 29.3147 4.11604 29.4796C3.95111 29.6445 3.72742 29.7372 3.49418 29.7372C3.26094 29.7372 3.03725 29.6445 2.87232 29.4796C2.7074 29.3147 2.61475 29.091 2.61475 28.8578V25.0785C2.61475 24.963 2.63743 24.8487 2.68162 24.742C2.72582 24.6353 2.79066 24.5383 2.87232 24.4567C2.95399 24.375 3.05091 24.3102 3.15761 24.266C3.26431 24.2218 3.37869 24.1991 3.49418 24.1991Z" fill="#FFBD95"/>
<path d="M5.13418 24.1279H5.11046C4.62476 24.1279 4.23096 24.5217 4.23096 25.0074V28.7866C4.23096 29.2723 4.62476 29.6661 5.11046 29.6661H5.13418C5.61989 29.6661 6.01362 29.2723 6.01362 28.7866V25.0074C6.01362 24.5217 5.61989 24.1279 5.13418 24.1279Z" fill="#FFBD95"/>
<path d="M6.67875 24.2227C6.79424 24.2227 6.90862 24.2454 7.01532 24.2896C7.12202 24.3338 7.21894 24.3986 7.30061 24.4802C7.38227 24.5619 7.44704 24.6589 7.49123 24.7656C7.53543 24.8723 7.55819 24.9866 7.55819 25.1021V28.8813C7.56136 28.9988 7.54097 29.1157 7.4982 29.2252C7.45543 29.3347 7.39115 29.4344 7.30917 29.5186C7.22718 29.6028 7.12919 29.6697 7.02091 29.7154C6.91263 29.7611 6.79627 29.7846 6.67875 29.7846C6.44335 29.7784 6.21965 29.6805 6.05537 29.5118C5.89109 29.343 5.79923 29.1168 5.79932 28.8813V25.1021C5.79932 24.8689 5.89197 24.6452 6.05689 24.4802C6.22182 24.3153 6.44551 24.2227 6.67875 24.2227Z" fill="#FFBD95"/>
<path d="M5.5381 37.5573C6.57656 35.3018 7.4736 32.9838 8.22399 30.6168C8.12121 28.6354 7.86692 26.6648 7.46337 24.7222C7.46337 24.7222 5.87087 26.1721 4.80127 26.0295C3.73168 25.8868 0.950738 25.2213 0.950738 25.2213C0.414558 27.1607 0.0956963 29.1537 0 31.1635C0.0984478 32.4437 0.329397 33.7102 0.689243 34.9428L5.5381 37.5573Z" fill="#FFBD95"/>
<path d="M84.7596 52.4602C87.0176 53.7437 89.5134 53.6487 93.5303 47.5401C97.5472 41.4315 104.868 26.1481 104.868 26.1481L101.231 24.0327C101.231 24.0327 90.5116 34.3008 88.2298 37.5096C85.948 40.7184 78.8887 49.1088 84.7596 52.4602Z" fill="#FFBD95"/>
<path d="M103.893 15.8331C103.776 15.8299 103.659 15.8503 103.55 15.8931C103.44 15.9359 103.34 16.0001 103.256 16.0821C103.172 16.1641 103.105 16.2621 103.059 16.3704C103.014 16.4787 102.99 16.595 102.99 16.7125V20.4918C102.99 20.7273 103.082 20.9535 103.246 21.1222C103.411 21.2909 103.634 21.3888 103.87 21.395C104.105 21.3951 104.331 21.3032 104.5 21.1389C104.669 20.9746 104.767 20.7509 104.773 20.5155V16.7363C104.773 16.5008 104.681 16.2746 104.517 16.1059C104.353 15.9372 104.129 15.8393 103.893 15.8331Z" fill="#FFBD95"/>
<path d="M102.253 15.5715C102.02 15.5715 101.796 15.6642 101.631 15.8291C101.466 15.994 101.374 16.2177 101.374 16.451V20.2302C101.373 20.4657 101.465 20.6919 101.63 20.8606C101.794 21.0294 102.018 21.1272 102.253 21.1334C102.488 21.1335 102.715 21.0416 102.883 20.8773C103.052 20.7131 103.15 20.4894 103.156 20.254V16.4748C103.156 16.2352 103.061 16.0055 102.892 15.8361C102.722 15.6667 102.493 15.5715 102.253 15.5715Z" fill="#FFBD95"/>
<path d="M100.637 15.4998C100.406 15.4994 100.183 15.588 100.015 15.7473C99.8466 15.9065 99.7461 16.1242 99.7339 16.3554V20.1347C99.7336 20.3662 99.8221 20.589 99.9814 20.7571C100.141 20.9252 100.358 21.0257 100.59 21.0379C100.821 21.0382 101.044 20.9496 101.212 20.7904C101.38 20.6311 101.481 20.4134 101.493 20.1822V16.403C101.496 16.2875 101.476 16.1725 101.435 16.0646C101.394 15.9567 101.332 15.8579 101.252 15.7741C101.173 15.6902 101.077 15.6228 100.972 15.5757C100.866 15.5286 100.753 15.5028 100.637 15.4998Z" fill="#FFBD95"/>
<path d="M99.0682 15.5471C98.9527 15.5471 98.8384 15.5699 98.7317 15.6141C98.625 15.6583 98.528 15.723 98.4464 15.8047C98.3647 15.8864 98.2999 15.9833 98.2557 16.09C98.2116 16.1967 98.1888 16.3111 98.1888 16.4266V20.182C98.1856 20.2995 98.206 20.4164 98.2488 20.5259C98.2916 20.6354 98.3558 20.7351 98.4378 20.8193C98.5198 20.9035 98.6178 20.9704 98.7261 21.0161C98.8344 21.0618 98.9507 21.0853 99.0682 21.0853C99.2998 21.0856 99.5226 20.997 99.6907 20.8377C99.8588 20.6785 99.9593 20.4608 99.9715 20.2296V16.4503C99.9715 16.2108 99.8763 15.9811 99.7069 15.8117C99.5375 15.6423 99.3078 15.5471 99.0682 15.5471Z" fill="#FFBD95"/>
<path d="M99.9002 28.9053C98.8861 26.6319 98.0129 24.2981 97.2856 21.9173C97.4281 19.9407 97.7221 17.978 98.1651 16.0464C98.1651 16.0464 99.7101 17.5201 100.803 17.3774C101.897 17.2348 104.654 16.6644 104.654 16.6644C105.059 18.6252 105.337 20.61 105.486 22.6066C105.533 24.1437 105.137 25.662 104.345 26.98L99.9002 28.9053Z" fill="#FFBD95"/>
<path d="M64.2951 212.448C63.7853 214.791 63.7047 217.207 64.0574 219.579C64.2713 220.173 78.5088 221.956 80.6956 221.053C82.8823 220.149 84.5224 219.46 84.5224 219.46C84.5224 219.46 84.1183 217.321 83.1913 217.226C82.2643 217.131 73.6838 214.587 72.6618 213.328C71.6397 212.068 71.0454 210.024 70.5225 210.761C69.659 211.46 68.6591 211.971 67.5868 212.261C66.5145 212.552 65.3934 212.616 64.2951 212.448Z" fill="#191919"/>
<path d="M80.6478 221.1C81.8125 220.672 82.8584 220.221 83.5714 219.912C82.4921 220.231 81.3687 220.375 80.2437 220.339C78.6037 220.03 72.9467 218.2 69.215 216.941C68.1933 216.631 67.2699 216.061 66.5362 215.286C65.8025 214.51 65.2839 213.557 65.0317 212.52C64.8021 212.532 64.572 212.532 64.3425 212.52C63.8326 214.862 63.7521 217.278 64.1048 219.65C64.2711 220.244 78.5086 221.884 80.6478 221.1Z" fill="#080808"/>
<path d="M84.4265 219.508C83.0121 220.209 81.5411 220.789 80.0293 221.243C79.4351 221.243 71.2348 219.294 66.7425 218.866C65.4352 218.724 64.3656 218.438 63.7714 218.367C63.1772 218.296 63.7714 219.746 63.7714 219.746L64.1517 220.744C64.1517 220.744 79.4113 222.17 79.9343 222.123C80.4572 222.075 84.9256 220.269 84.9256 220.269L84.4265 219.508Z" fill="#22272C"/>
<path d="M56.8788 215.895L50.8415 215.586C50.5841 216.934 50.0322 218.208 49.2253 219.318C48.2032 220.934 46.6107 222.622 46.6583 223.881C46.6583 224.713 47.0861 225.593 47.8704 225.688C50.155 226.135 52.5109 226.062 54.7634 225.474C55.6235 224.648 56.3387 223.684 56.8788 222.622C57.3206 221.579 57.4367 220.427 57.2116 219.318C57.1879 218.343 56.8788 215.895 56.8788 215.895Z" fill="#22272C"/>
<path d="M56.8788 215.229L50.8415 214.92C50.5841 216.268 50.0322 217.542 49.2253 218.652C48.2032 220.268 46.6107 221.932 46.6583 223.216C46.6583 224.048 47.0385 224.713 47.8229 224.832C50.1021 225.262 52.4481 225.18 54.6921 224.594C55.5718 223.855 56.2985 222.95 56.8313 221.932C57.3214 220.879 57.4948 219.707 57.3304 218.557C57.1878 217.654 56.8788 215.229 56.8788 215.229Z" fill="#191919"/>
<path d="M52.1249 214.017C51.4119 214.445 51.0791 218.391 51.0791 218.628C51.0791 218.866 52.3151 218.961 52.7667 218.89C54.6444 218.557 55.3575 215.396 54.9296 214.445C54.5018 213.494 52.7667 213.661 52.1249 214.017Z" fill="#191919"/>
<path d="M57.2353 218.556C57.2353 217.891 56.9738 216.322 56.855 215.609C56.855 216.013 56.855 216.417 56.9739 216.679C57.1168 217.823 56.9356 218.984 56.4509 220.03C55.9198 221.05 55.2023 221.961 54.3355 222.716C52.0815 223.293 49.728 223.366 47.4425 222.93C47.1447 222.887 46.8735 222.734 46.6819 222.502C46.6496 222.739 46.6496 222.979 46.6819 223.215C46.6819 224.047 47.0623 224.713 47.8466 224.831C50.1258 225.261 52.4718 225.18 54.7158 224.594C55.5955 223.854 56.3222 222.95 56.855 221.932C57.3047 220.867 57.4368 219.695 57.2353 218.556Z" fill="#080808"/>
<path d="M44.5192 35.6561C46.7773 34.2775 53.3613 32.3284 55.3103 37.0584C55.9521 38.6747 53.6703 41.5983 53.6703 41.5983C53.6703 41.5983 53.9792 38.2469 51.2934 38.8173C48.6075 39.3878 48.2272 42.8342 45.993 43.5711C43.7587 44.3079 42.6891 45.1874 41.7383 43.9514C40.7876 42.7154 41.9284 37.2248 44.5192 35.6561Z" fill="#8D3B26"/>
<path d="M52.3628 37.9854C52.3628 37.9854 54.3356 38.7935 54.7397 40.0295C54.8809 40.3392 54.954 40.6756 54.954 41.0159C54.954 41.3563 54.8809 41.6926 54.7397 42.0023C55.0588 41.8793 55.337 41.6694 55.5429 41.3963C55.7487 41.1232 55.8739 40.798 55.9043 40.4573C55.9957 39.9686 55.9858 39.4663 55.8754 38.9814C55.7649 38.4966 55.5563 38.0396 55.2622 37.6386C54.9682 37.2377 54.595 36.9012 54.1658 36.6502C53.7366 36.3991 53.2605 36.2387 52.7668 36.179L52.3628 37.9854Z" fill="#8D3B26"/>
<path d="M44.4003 121.747H62.0843L63.0826 137.648C63.0826 137.648 59.2558 169.213 59.8263 169.38C60.3967 169.546 61.4425 170.425 60.8008 170.758C60.159 171.091 59.4222 171.661 59.9927 172.208C60.5631 172.755 59.6599 174.466 59.9927 175.369C60.3254 176.272 59.1132 211.593 58.6378 213.209C58.1624 214.826 52.7194 215.23 50.6277 214.421C48.5361 213.613 48.6787 212.449 48.6787 212.449C48.6787 212.449 45.3273 186.041 45.3511 183.926C45.3748 181.811 46.0879 173.159 45.8502 172.565C45.6125 171.97 46.5633 171.067 46.5633 170.188C46.6591 169.47 46.6591 168.743 46.5633 168.025C46.4207 167.454 44.8044 145.278 44.329 141.261C43.8536 137.244 44.4003 121.747 44.4003 121.747Z" fill="#0E3854"/>
<path d="M62.0845 121.747L75.8941 117.778C77.7309 122.869 79.2238 128.078 80.3627 133.37C81.7651 140.501 82.5257 169.38 82.5257 169.926C82.5257 170.473 82.0027 174.133 81.4085 177.247C80.8143 180.361 72.1387 211.522 72.1387 211.522C71.3735 212.157 70.4611 212.59 69.4852 212.781C68.5094 212.972 67.5012 212.915 66.553 212.615C63.4393 211.522 62.8688 209.81 62.8688 209.81C62.8688 209.81 63.8909 180.908 66.244 178.103C67.8841 176.154 68.9299 174.133 68.6209 174.015C68.3119 173.896 67.8603 172.921 68.5021 172.565C69.1438 172.208 69.3577 170.901 68.6209 170.782C67.8841 170.663 68.1693 167.169 67.7415 164.293C67.3136 161.417 62.8688 135.961 62.8688 135.961L62.0845 121.747Z" fill="#0E3854"/>
<path d="M42.6175 66.2462C45.4806 68.2534 48.9455 69.2182 52.434 68.9796C53.8535 68.7458 55.2028 68.1976 56.3831 67.3751C57.5634 66.5526 58.5449 65.4766 59.2557 64.2258L66.8854 65.5093L75.157 73.1629C75.157 73.1629 70.9261 89.8011 71.045 94.9114C71.1638 100.022 75.5611 117.23 75.5611 117.23C71.2367 120.221 66.1285 121.874 60.8719 121.984C52.7905 121.984 43.901 121.984 43.901 121.984C43.901 121.984 42.7364 108.198 40.3119 101.519C37.8875 94.8401 30.4717 80.8165 30.4717 80.8165L34.6549 70.477L42.6175 66.2462Z" fill="#FF8626"/>
<path d="M44.234 141.332C44.7093 145.349 46.3256 167.478 46.4682 168.096C46.564 168.813 46.564 169.541 46.4682 170.258C46.4682 171.067 45.5175 171.97 45.7552 172.635C45.9929 173.301 45.2798 181.905 45.256 183.997C45.2322 186.089 48.5837 212.519 48.5837 212.519C48.5837 212.519 48.5837 213.209 49.4393 213.898C49.1779 209.477 48.1559 192.506 48.0608 187.562C48.0178 181.734 48.5352 175.916 49.6057 170.187C50.1287 169.45 48.0607 132.656 48.9877 129.923C49.9147 127.189 62.0844 121.818 62.0844 121.818H44.4004C44.4004 121.818 43.7348 137.291 44.234 141.332Z" fill="#00233F"/>
<path d="M65.7205 139.288C63.6763 137.172 63.3436 137.457 63.1535 137.624C64.1517 143.352 67.3843 161.844 67.7408 164.292C68.1687 167.168 67.8596 170.662 68.6202 170.781C69.3809 170.9 69.1432 172.184 68.5014 172.564C67.8597 172.944 68.2875 173.919 68.6202 174.014C68.953 174.109 67.8834 176.153 66.2434 178.102C63.8665 180.907 62.8682 209.81 62.8682 209.81C62.8682 209.81 63.4387 211.521 66.5524 212.614H66.7188C67.1228 207.861 67.931 197.783 68.335 193.599C68.8579 188.085 73.6355 174.988 73.5166 172.968C73.3978 170.948 68.2162 141.807 65.7205 139.288Z" fill="#00233F"/>
<path d="M58.6614 99.3088C60.8481 95.0542 70.0942 89.6587 68.9533 87.876C67.8124 86.0933 49.9383 91.6315 48.2744 91.3225C46.6106 91.0135 44.8992 81.8149 44.8992 81.8149L38.957 98.4531C39.4562 99.594 39.884 100.664 40.2406 101.591C42.6174 108.27 43.8297 122.056 43.8297 122.056C43.8297 122.056 52.7192 122.056 60.8006 122.056C61.5612 122.056 62.298 122.056 63.0349 122.056C62.6546 120.915 56.546 103.445 58.6614 99.3088Z" fill="#FF6E26"/>
<path d="M19.3001 63.8694C19.9591 66.0549 20.1614 68.3527 19.8943 70.6197C19.3519 73.7004 18.3672 76.6865 16.9707 79.4855L31.7549 86.6161C31.7549 86.6161 35.5104 103.397 34.013 111.217C32.5155 119.037 31.7549 125.312 31.7549 125.312C31.7549 125.312 42.0944 129.614 45.5409 129.828C47.5146 129.973 49.4988 129.788 51.4118 129.281C51.4118 129.281 45.4458 80.3412 44.0909 77.7028C42.7361 75.0645 39.3372 67.9338 39.3372 67.9338C39.3372 67.9338 34.3932 69.6927 34.2031 68.8846C34.0129 68.0765 32.2066 67.3634 32.0877 67.9338C31.9689 68.5043 30.3526 67.9339 30.4239 67.3159C30.4952 66.6979 19.3001 63.8694 19.3001 63.8694Z" fill="#CEE0FF"/>
<path d="M62.0132 64.7967C62.0132 64.7967 65.6023 65.1295 65.2695 64.3213C64.9367 63.5132 65.6973 63.2279 66.244 63.2755C66.7907 63.323 66.6719 61.6354 67.2186 61.7067C69.7141 59.2451 72.0483 56.6251 74.2066 53.863C74.2066 53.863 82.9535 57.4759 84.3559 59.4012C85.3629 60.8372 86.2607 62.3468 87.0417 63.9172L77.5342 76.182C77.5342 76.182 76.0606 90.4432 75.5376 101.187C75.3054 108.242 75.9925 115.297 77.5817 122.175C77.5817 122.175 71.7821 126.738 70.4511 126.738C69.4652 126.66 68.5082 126.368 67.6464 125.883C67.6464 125.883 67.4325 89.445 67.0046 81.8389C66.2663 75.9271 64.5809 70.1727 62.0132 64.7967Z" fill="#CEE0FF"/>
<path d="M34.013 111.312C32.4918 119.155 31.7549 125.407 31.7549 125.407C31.7549 125.407 35.3916 126.928 39.0757 128.211C39.3134 123.149 39.6937 113.284 39.5749 111.573C39.4323 109.196 35.5817 86.1881 34.1794 84.3341C32.777 82.4801 16.9707 79.5803 16.9707 79.5803L31.7549 86.711C31.7549 86.711 35.4866 103.492 34.013 111.312Z" fill="#B8D1FF"/>
<path d="M71.14 67.9572C69.8565 68.4564 75.7036 75.8247 75.3946 77.7975C75.0856 79.7703 72.78 100.045 73.2079 104.942C73.4931 108.174 73.9447 118.086 74.2062 124.408C75.7512 123.267 77.4387 122.031 77.4387 122.031C75.8495 115.154 75.1624 108.098 75.3946 101.043C75.9176 90.2761 77.3912 76.0386 77.3912 76.0386L86.8987 63.7739L86.7323 63.4412C83.6424 66.3172 78.9124 70.5718 78.0805 70.5718C76.9634 70.6193 72.4948 67.4819 71.14 67.9572Z" fill="#B8D1FF"/>
</svg>
