<svg width="213" height="204" viewBox="0 0 213 204" fill="none" xmlns="http://www.w3.org/2000/svg">
<path d="M101.382 73.7145L74.4883 104.663L78.0496 41.6537L100.056 34.802L101.382 73.7145Z" fill="#606E79"/>
<path d="M100.793 28.5191C98.3206 26.9805 95.5316 26.0935 92.6635 25.9335C89.8673 25.4661 87.0103 25.598 84.2637 26.3213L83.5269 16.7807L85.6391 7.55029L98.5336 9.87727L100.793 19.935V28.5191Z" fill="#561D10"/>
<path d="M84.8778 169.017C84.6586 170.504 84.1394 171.923 83.355 173.18C83.1055 173.678 82.9751 174.233 82.9751 174.796C82.9751 175.359 83.1055 175.914 83.355 176.412C84.6568 177.679 86.155 177.214 87.7023 178.248C89.2496 179.282 91.6566 182.979 92.9829 183.419C94.3091 183.858 97.3301 183.626 97.5021 182.953C97.674 182.281 94.5302 179.851 94.5302 179.851C89.7654 173.697 89.225 170.517 89.225 170.517C87.8132 169.904 86.3602 169.403 84.8778 169.017Z" fill="#FFA47C"/>
<path d="M94.653 179.748C94.653 179.748 95.5618 180.549 95.4144 180.808C95.2671 181.066 93.8425 181.014 93.4741 180.808C90.3954 179.044 87.5677 176.833 85.0743 174.24C84.5107 173.495 84.1538 172.6 84.0428 171.655C83.6248 172.094 83.3062 172.626 83.1106 173.213C82.915 173.799 82.8474 174.424 82.9129 175.042C83.0365 175.493 83.2272 175.921 83.4778 176.309C84.7225 177.202 86.0185 178.014 87.3584 178.739C88.9303 179.748 91.1162 183.471 92.4425 183.91C93.7688 184.35 98.2635 184.169 98.4354 183.497C98.6073 182.824 96.1266 180.833 94.653 179.748Z" fill="#4F2718"/>
<path d="M82.8882 174.887C82.8882 174.887 83.8215 177.472 84.0916 178.429C84.4389 179.828 84.6772 181.255 84.8039 182.695H85.3934C85.3934 182.695 84.6319 177.24 87.3582 178.894C85.9344 177.479 84.4424 176.141 82.8882 174.887Z" fill="#4F2718"/>
<path d="M96.2492 130.131C91.8037 132.536 88.3897 141.482 87.5301 145.075C86.6704 148.669 85.074 168.914 84.681 170.155C84.288 171.396 89.102 171.448 89.274 170.698C92.0569 161.443 95.337 152.362 99.0983 143.498C99.9088 141.714 103.323 133.544 103.568 132.691C104.944 128.399 98.779 128.735 96.2492 130.131Z" fill="#FFA47C"/>
<path d="M122.234 96.3896C122.3 97.1983 122.3 98.0114 122.234 98.8201C122.057 99.3611 121.844 99.8882 121.596 100.397C121.437 100.83 121.437 101.309 121.596 101.742C121.94 102.026 122.357 101.406 122.529 101.018C122.794 100.433 123.016 99.8281 123.192 99.2079C123.409 98.4256 123.533 97.6178 123.561 96.8033C123.438 96.3897 122.234 96.3896 122.234 96.3896Z" fill="#FFA47C"/>
<path d="M122.333 95.7954C122.189 96.5369 121.983 97.2636 121.719 97.9673C121.498 98.3551 121.203 98.4068 120.761 98.7171C120.319 99.0273 119.975 99.5186 120.073 99.9064C120.171 100.294 120.761 99.9064 121.08 99.9064C121.616 99.6094 122.079 99.1844 122.431 98.6654C122.833 98.0313 123.155 97.3446 123.389 96.6228C123.413 96.1057 122.333 95.7954 122.333 95.7954Z" fill="#FFA47C"/>
<path d="M122.26 95.5105C122.035 96.1021 121.764 96.6729 121.449 97.217C121.203 97.5014 120.958 97.5013 120.54 97.7082C120.123 97.915 119.779 98.2253 119.803 98.5873C119.828 98.9493 120.368 98.7424 120.663 98.5873C121.158 98.4493 121.608 98.1722 121.965 97.7858C122.382 97.3154 122.745 96.7947 123.046 96.2344C123.119 95.95 122.26 95.5105 122.26 95.5105Z" fill="#FFA47C"/>
<path d="M118.428 99.8539C118.575 100.087 119.164 99.7246 119.484 99.2592C119.827 98.5495 119.93 97.7382 119.778 96.9581C119.778 96.3634 119.778 95.4843 120.147 95.4068C120.955 95.503 121.709 95.8859 122.284 96.4927C122.735 97.2163 123.075 98.0103 123.291 98.8455C123.201 99.5911 123.019 100.321 122.75 101.017C122.547 101.507 122.438 102.034 122.431 102.569C122.446 102.7 122.503 102.823 122.592 102.916C122.681 103.01 122.797 103.07 122.922 103.086C123.143 103.086 123.242 102.284 123.659 101.638C124.117 100.814 124.503 99.9489 124.813 99.0524C124.714 97.9412 124.558 96.8365 124.347 95.7429C124.199 94.9931 121.891 91.9939 121.891 91.7094C121.891 91.425 119.68 86.3057 119.68 86.3057L115.849 87.3399C116.679 88.6657 117.394 90.0676 117.985 91.5284C117.932 92.2755 117.834 93.0182 117.691 93.752C117.652 94.9186 117.845 96.0808 118.256 97.165C118.624 98.3284 118.157 99.5178 118.428 99.8539Z" fill="#FFBD95"/>
<path d="M79.9659 166.975C80.1292 168.269 80.0201 169.584 79.6466 170.828C79.0326 172.224 76.7484 175.146 75.6678 174.835C74.5871 174.525 73.3836 171.267 73.2117 170.75C72.8967 167.945 73.2512 165.101 74.2432 162.477L79.9659 166.975Z" fill="#8D3B26"/>
<path d="M101.776 36.1208C104.232 35.7847 106.688 43.2311 107.646 51.4014C109.095 65.6478 111.551 70.0432 107.449 71.0257C103.348 72.0082 102.881 66.139 100.081 54.1938C97.8705 44.8599 96.8881 36.7672 101.776 36.1208Z" fill="#FFA47C"/>
<path d="M70.9763 32.4754C72.1798 30.5621 77.9516 30.5362 80.1129 30.2777C85.8045 30.1036 91.4702 31.1505 96.7652 33.3545C98.7055 34.3887 104.134 36.5089 104.625 38.7066C105.435 42.0678 93.4495 57.6069 97.4529 68.5179C98.7792 72.1635 106.614 81.73 106.639 85.6342C106.639 90.3916 93.3512 97.0882 93.3512 97.0882L92.5162 97.3209L91.7057 97.5536C91.7057 97.5536 76.9692 98.7688 74.7587 94.632C72.9412 91.2449 76.6008 74.3612 76.1341 69.6814C74.9797 57.6069 69.1342 35.3453 70.9763 32.4754Z" fill="#FFBD95"/>
<path d="M106.638 86.4615C108.53 89.4866 108.849 95.2006 108.579 102.647C107.868 111.646 106.547 120.581 104.624 129.382C103.323 136.078 97.1333 136.285 95.8316 131.166C95.4632 129.769 92.2703 101.122 92.3931 97.8896C92.5159 94.6577 92.3931 88.6851 94.3579 84.9619C95.807 82.1436 103.863 81.9627 106.638 86.4615Z" fill="#FFA47C"/>
<path d="M84.6571 26.7351C85.5559 24.1026 86.2057 21.3832 86.5973 18.6165L90.5271 19.3404L94.4568 20.0644C93.922 22.8039 93.6505 25.5931 93.6463 28.3898C94.372 30.241 95.4312 31.9268 96.7656 33.3541L88.4394 31.8028L80.1133 30.2773C81.8274 29.4103 83.3694 28.2082 84.6571 26.7351Z" fill="#FFBD95"/>
<path d="M106.147 65.3635C108.186 64.5878 112.189 67.1475 114.915 73.8699C118.035 81.6266 122.701 92.641 120.957 93.5201C120.147 93.9079 119.066 93.2357 118.305 91.5809C115.536 87.1245 112.501 82.8584 109.217 78.8083C104.428 71.9049 102.217 66.7338 106.147 65.3635Z" fill="#FFBD95"/>
<path d="M84.6567 26.7352L85.7619 23.012C86.0321 21.8227 86.2532 20.6075 86.4005 19.7542L90.1829 19.3147H90.5267L94.4565 20.0386C93.9217 22.7781 93.6502 25.5674 93.646 28.3641C94.3717 30.2153 95.4309 31.9011 96.7652 33.3284C96.7652 33.3284 91.6075 30.9238 90.6496 30.355L84.6567 26.7352Z" fill="#FFA47C"/>
<path d="M99.8104 15.6948C98.7297 22.1845 92.4422 26.4506 89.3966 25.8818C86.3511 25.313 83.0599 19.2111 83.5757 12.5404C84.0915 5.86973 88.4879 2.45679 93.179 3.33588C97.8702 4.21496 100.916 9.17919 99.8104 15.6948Z" fill="#FFBD95"/>
<path d="M88.4392 7.75723C89.0778 9.59296 90.7725 10.7306 94.5304 11.1184C97.232 11.4029 98.9022 15.3587 98.8531 16.91C98.8531 17.5047 100.793 28.5192 100.793 28.5192C100.793 28.5192 104.011 14.6089 98.9513 7.0074C93.8917 -0.594111 87.4568 3.56864 87.4077 4.13746C87.6102 5.38379 87.9565 6.5994 88.4392 7.75723Z" fill="#8D3B26"/>
<path d="M90.0112 6.2576C90.0112 6.2576 90.0112 9.02413 87.7516 9.48953C83.5271 10.3686 84.264 26.3214 84.264 26.3214C84.264 26.3214 79.7448 6.36102 87.4078 4.13745C91.7796 2.87053 90.0112 6.2576 90.0112 6.2576Z" fill="#8D3B26"/>
<path d="M80.6533 160.253C80.6533 160.253 80.0393 167.312 79.7446 168.01C79.4499 168.708 77.5832 171.267 76.6008 170.854C73.8254 169.639 73.678 163.588 74.4885 161.856C74.9797 160.874 75.4218 159.788 75.7902 159.115C76.2873 158.168 76.9073 157.297 77.6323 156.53L80.6533 160.253Z" fill="#FFBD95"/>
<path d="M97.1338 126.33C99.7372 128.916 99.86 131.139 96.0531 137.939C92.2461 144.739 80.4815 161.882 79.6955 161.209C78.9096 160.537 75.9377 158.133 77.4605 156.038C78.492 154.72 78.664 152.16 80.064 148.282C82.5201 141.507 85.6884 133.001 86.4744 131.605C87.727 129.562 92.9339 122.245 97.1338 126.33Z" fill="#FFBD95"/>
<path d="M74.4151 90.7277C73.6783 94.244 75.2502 99.6996 78.001 106.577C81.6544 114.752 85.8739 122.634 90.6253 130.157C94.0884 135.923 99.9339 133.855 99.4673 128.58C99.3199 127.132 92.7621 99.1307 91.5832 96.1315C90.4042 93.1322 88.4885 87.5475 85.4184 84.7292C83.1097 82.6608 75.5204 85.4532 74.4151 90.7277Z" fill="#FFBD95"/>
<path d="M100.031 34.8022V50.3155C100.031 50.3155 96.5683 61.0714 97.8946 66.3718C99.2209 71.6721 104.747 77.6965 107.94 85.0653C111.133 92.4341 107.94 116.48 107.94 116.48C107.94 116.48 99.442 119.324 96.7894 116.48C95.6799 115.393 94.2556 114.731 92.7454 114.6C91.2353 114.469 89.7271 114.876 88.4633 115.756C86.9405 116.945 83.0844 120.927 83.0844 120.927C83.0844 120.927 75.3723 107.844 73.7267 95.6143C72.425 85.8409 75.9127 73.6113 75.225 68.6471C74.5373 63.6828 71.7373 43.5931 71.7373 43.5931C71.7373 43.5931 75.7407 44.0068 80.088 44.2395C81.4143 44.2395 77.6319 31.3118 78.8108 31.3118C81.9055 31.3118 82.9617 45.3771 90.7229 43.5414C96.4947 42.1711 96.3719 32.8114 96.3719 32.8114L100.031 34.8022Z" fill="#002D56"/>
<path d="M78.0744 54.7105C79.7691 53.5211 90.3548 57.296 94.6039 56.3652C95.8341 56.008 96.9577 55.3267 97.8687 54.3858C98.7797 53.4449 99.448 52.2754 99.8108 50.9873C99.1476 53.2626 96.7407 61.8725 97.8705 66.5006C99.1722 71.801 104.723 77.8253 107.916 85.1941C111.109 92.5629 107.916 116.608 107.916 116.608C107.916 116.608 99.4178 119.453 96.7652 116.608L96.5933 116.479L91.6811 101.509C91.6811 101.509 99.4915 103.913 99.3933 96.7515C99.295 89.5895 92.5653 73.4816 90.6004 69.3188C88.6356 65.1561 76.3797 55.8998 78.0744 54.7105Z" fill="#00233F"/>
<path d="M80.1126 30.2772C81.2752 33.6534 82.2188 37.1088 82.9371 40.6194C83.6494 44.8597 76.453 79.2734 75.2495 86.4095C74.5014 92.4601 74.2467 98.5671 74.4881 104.663L70.4356 100.501C71.9093 90.9931 72.8361 81.4005 73.211 71.7753C73.211 61.5624 69.2321 36.6377 69.9689 33.3541C70.7058 30.0704 80.1126 30.2772 80.1126 30.2772Z" fill="#99A2A9"/>
<path d="M97.4771 33.354C97.4771 33.354 99.3928 49.281 99.1718 53.3144C99.5719 60.149 100.301 66.9577 101.358 73.7144C101.358 73.7144 105.41 41.0331 105.017 38.9388C104.501 36.043 97.4771 33.354 97.4771 33.354Z" fill="#99A2A9"/>
<path d="M71.9587 31.7509C74.0218 30.9494 76.8708 35.8102 78.0252 41.6535C80.162 51.8147 82.5935 54.5813 79.0322 56.1843C75.4709 57.7873 74.7341 53.5988 71.5412 45.506C69.0605 39.1197 67.7342 33.4056 71.9587 31.7509Z" fill="#FFA47C"/>
<path d="M75.5443 55.0214C74.1934 53.2891 77.6074 48.0663 84.0669 43.6967C91.4352 38.6807 102.021 31.3636 103.126 32.9667C104.624 35.1644 95.9544 42.042 89.765 48.48C83.5757 54.918 78.3197 58.5636 75.5443 55.0214Z" fill="#FFA47C"/>
<path d="M98.1406 35.1641C98.5834 34.7355 98.9134 34.1936 99.0985 33.591C99.2835 32.9884 99.3173 32.3457 99.1967 31.7253C99.1411 30.9075 99.2454 30.0863 99.5031 29.3125C99.7607 28.5387 100.166 27.8287 100.695 27.2265C101.362 26.3241 102.075 25.4609 102.832 24.6409C103.519 24.4341 103.298 25.339 103.495 25.2615C103.691 25.1839 104.428 24.9512 104.502 25.701C104.576 26.4508 104.748 26.2957 104.993 26.3991C105.239 26.5025 105.362 27.1231 105.214 27.4333C105.067 27.7436 105.484 27.8987 105.46 28.3124C105.415 28.7625 105.224 29.1826 104.919 29.5018C104.544 29.9321 104.254 30.4379 104.068 30.9888C103.883 31.5397 103.805 32.1244 103.839 32.7078C103.839 34.2591 103.691 36.7154 101.383 37.3101C99.074 37.9048 98.1406 35.1641 98.1406 35.1641Z" fill="#FFA47C"/>
<path d="M140.434 4.8353C140.746 3.44779 141.497 2.21329 142.564 1.33464C143.631 0.455987 144.95 -0.0145471 146.304 0.00034283C150.381 0.155476 153.672 4.13721 152.125 10.2132C150.48 16.9357 151.609 22.5721 152.125 22.4429C152.641 22.3136 152.567 24.0718 151.192 24.4079C150.516 24.5928 149.81 24.6174 149.125 24.4802C148.439 24.343 147.791 24.0473 147.227 23.6145C146.663 23.1816 146.197 22.6224 145.864 21.9771C145.53 21.3319 145.337 20.6167 145.297 19.8832C145.121 17.1425 144.2 14.5128 142.645 12.3075L140.434 4.8353Z" fill="#6D361A"/>
<path d="M143.21 171.603C143.525 171.75 143.795 171.984 143.994 172.28C144.193 172.576 144.312 172.923 144.34 173.284C144.34 174.214 144.463 179.928 144.463 179.928C143.55 180.332 142.717 180.91 142.007 181.635C140.877 182.695 139.845 184.996 138.347 185.668C136.805 186.394 135.079 186.567 133.435 186.16C132.747 185.875 132.993 184.246 133.975 182.592L137.291 177.007L143.21 171.603Z" fill="#8D3B26"/>
<path d="M138.199 170.569C138.09 171.72 137.901 172.86 137.634 173.982C137.11 176.309 136.395 178.585 135.498 180.782C134.785 182.23 134.908 183.367 137.094 182.644C139.28 181.92 142.743 176.076 143.382 173.594C143.676 172.482 143.038 171.293 142.915 170.569C142.62 168.785 138.199 170.569 138.199 170.569Z" fill="#FFBD95"/>
<path d="M166.395 179.127C167.106 180.184 167.585 181.394 167.795 182.669C167.795 184.195 167.255 187.84 166.224 188.176C165.192 188.513 162.81 186.211 162.49 185.824C161.018 183.5 160.092 180.841 159.789 178.067L166.395 179.127Z" fill="#8D3B26"/>
<path d="M164.086 172.974C164.086 172.974 166.542 179.489 166.69 180.291C166.837 181.092 166.297 184.247 165.29 184.376C162.49 184.712 159.763 179.463 159.714 177.55C159.665 175.637 159.567 173.542 159.567 173.542L164.086 172.974Z" fill="#FFBD95"/>
<path d="M133.705 32.9403C131.789 31.5441 126.336 36.7669 121.965 43.5669C114.596 55.3312 110.495 58.0201 113.688 60.8383C116.88 63.6566 119.803 58.744 127.417 49.5912C133.361 42.4551 137.684 35.862 133.705 32.9403Z" fill="#191919"/>
<path d="M130.487 80.54C129.4 82.8335 128.86 85.3719 128.916 87.9347C130.045 92.4594 142.768 96.3119 142.768 96.3119H143.627V81.6001C138.715 81.6001 135.375 80.54 130.487 80.54Z" fill="#002D56"/>
<path d="M129.529 85.1682C127.884 88.2967 127.957 93.9332 128.768 101.25C129.873 111.256 132.992 127.106 133.385 128.554C135.129 135.043 141.196 134.759 142.104 129.614C142.374 128.192 144.56 99.518 144.094 96.3119C143.484 91.8792 142.066 87.6124 139.918 83.7462C138.297 81.1089 131.936 80.5142 129.529 85.1682Z" fill="#002D56"/>
<path d="M159.371 35.6294C158.512 33.561 154.017 32.6561 152.003 32.0097C149.254 31.4809 146.47 31.1784 143.677 31.1047C143.677 31.1047 133.853 32.1389 131.691 32.0614C130.782 32.0614 130.119 35.4484 129.775 36.431C127.811 41.8865 125.502 48.2728 130.389 52.7199C131.495 53.7283 132.477 65.2856 132.477 70.6377C132.39 74.0357 131.724 77.3896 130.512 80.5404C135.424 80.5404 138.765 81.6005 143.677 81.6005H158.413C157.005 78.0328 155.823 74.3705 154.877 70.6377C151.954 54.1678 160.698 38.7321 159.371 35.6294Z" fill="#FFBD95"/>
<path d="M143.627 135.845C143.357 125.917 140.754 123.952 137.389 123.952C132.01 123.952 132.894 134.552 132.993 137.784C133.091 141.016 137.143 166.51 138.2 170.569H142.915C143.529 163.614 143.824 143.964 143.627 135.845Z" fill="#002D56"/>
<path d="M130.93 31.9065C134.221 31.9065 136.112 34.1042 134.687 39.8441C133.078 44.4599 130.681 48.7272 127.614 52.4357L119.288 45.0669C119.288 45.0669 127.859 31.9323 130.93 31.9065Z" fill="#FF9236"/>
<path d="M148.122 27.7437C147.669 25.0217 147.479 22.2582 147.557 19.4958H139.698C139.764 22.259 139.567 25.0222 139.108 27.7437C138.111 29.4096 136.818 30.8579 135.301 32.0099H151.954C150.433 30.8538 149.133 29.4065 148.122 27.7437Z" fill="#FFBD95"/>
<path d="M159.371 35.6294C158.511 33.561 152.985 31.7511 150.922 31.1047C149.571 32.7778 147.856 34.0835 145.924 34.9116C143.991 35.7397 141.898 36.0657 139.821 35.8621C137.512 35.6294 135.301 32.0097 135.301 32.0097C134.073 32.0097 132.502 32.0097 131.642 32.0097C130.782 32.0097 130.07 35.3967 129.726 36.3792C127.761 41.8347 125.453 48.221 130.34 52.6682C131.445 53.6765 132.428 65.234 132.428 70.586C132.34 73.984 131.675 77.3379 130.463 80.4887C135.375 80.4887 138.715 81.5487 143.628 81.5487H158.364C156.956 77.9811 155.774 74.3188 154.827 70.586C151.954 54.1678 160.697 38.7321 159.371 35.6294Z" fill="#F7892D"/>
<path d="M164.233 172.999C164.233 169.535 161.114 142.154 160.328 138.844C159.542 135.535 158.044 123.021 150.504 125.529C147.286 126.589 146.623 129.071 149.055 139.258C151.02 147.558 156.89 167.078 159.518 174.008C161.126 173.9 162.713 173.561 164.233 172.999Z" fill="#00233F"/>
<path d="M143.627 81.6006V96.3899H144.462C144.462 96.3899 158.781 93.5975 159.911 89.047C159.965 86.4955 159.434 83.9678 158.363 81.6781L143.627 81.6006Z" fill="#002D56"/>
<path d="M159.052 85.2458C160.869 88.245 161.115 93.8815 160.746 101.25C160.115 110.083 159.057 118.877 157.578 127.597C156.203 134.164 148.982 134.242 147.754 129.174C147.41 127.778 144.684 99.4663 144.831 96.2602C144.978 93.0541 144.978 87.2108 146.968 83.5393C148.441 80.8762 156.375 80.8762 159.052 85.2458Z" fill="#002D56"/>
<path d="M147.607 22.7278C147.607 20.9955 147.607 19.4958 147.607 19.4958H139.747C139.814 22.259 139.616 25.0222 139.158 27.7437C138.16 29.4096 136.868 30.8579 135.351 32.0099L147.631 22.7278H147.607Z" fill="#FFA47C"/>
<path d="M149.325 14.557C149.325 21.0467 144.167 26.3988 140.999 26.4505C137.83 26.5022 133.631 21.2794 133.041 14.6604C132.452 8.04143 136.038 3.93041 140.729 3.85285C145.42 3.77528 149.227 8.04145 149.325 14.557Z" fill="#FFBD95"/>
<path d="M138.691 9.0238C139.648 10.6527 141.785 11.1439 145.494 10.782C148.171 10.5234 148.834 13.3675 149.055 14.9188C149.053 15.9573 148.979 16.9943 148.834 18.0215C148.834 18.0215 152.788 12.4367 147.287 5.35231C143.48 0.413916 138.003 3.69755 137.045 4.75762C136.677 5.17131 138.224 8.22228 138.691 9.0238Z" fill="#8D3B26"/>
<path d="M139.648 7.00736C139.568 7.91523 139.227 8.77571 138.669 9.47349C138.112 10.1713 137.365 10.673 136.529 10.9116C135.549 11.0917 134.664 11.6383 134.037 12.4506C133.41 13.263 133.082 14.2865 133.115 15.3328C133.115 15.3328 129.21 7.3952 135.104 4.65453C138.887 2.92221 139.722 6.10242 139.648 7.00736Z" fill="#8D3B26"/>
<path d="M149.252 53.5474C145.273 55.2022 141.441 52.6942 138.248 52.9528C136.286 53.2803 134.276 52.9737 132.482 52.0736C130.689 51.1735 129.197 49.7221 128.203 47.911C127.245 46.4114 128.203 41.3178 128.203 41.0076C127.049 45.222 126.779 49.4623 130.34 52.7201C131.445 53.7285 132.428 65.2858 132.428 70.6379C132.34 74.0359 131.675 77.3898 130.463 80.5406C133.224 80.6199 135.979 80.8615 138.715 81.2645C138.715 81.2645 138.273 77.3862 137.856 75.3953C137.462 71.5979 138.012 67.758 139.452 64.2516C141.073 60.9421 150.529 58.8737 151.462 57.8912C154.09 55.0212 155.736 50.8326 149.252 53.5474Z" fill="#FF9236"/>
<path d="M150.185 131.915C149.669 128.321 148.908 112.162 147.876 103.474C147.115 96.9844 145.592 96.2346 144.831 96.3122C144.683 99.4665 147.066 125.839 147.655 130.571C147.855 133.521 148.349 136.442 149.129 139.284C151.094 147.584 156.964 167.104 159.592 174.034C159.985 174.034 161.336 173.904 161.851 173.827L162.932 173.465C162.932 173.465 156.767 151.022 153.304 140.034C152.069 137.415 151.026 134.701 150.185 131.915Z" fill="#00233F"/>
<path d="M131.322 90.1583C131.077 86.099 135.964 82.4017 138.199 81.2123C135.08 81.0055 130.487 80.54 130.487 80.54C127.442 85.3233 128.031 93.9332 128.768 101.224C129.873 111.075 132.894 126.666 133.361 128.45C132.869 131.525 132.746 134.652 132.992 137.758C132.992 140.913 137.143 166.484 138.199 170.543L135.104 130.183C135.104 130.183 131.691 95.7689 131.322 90.1583Z" fill="#00233F"/>
<path d="M115.873 61.0968C113.884 61.9242 110.666 58.3302 109.315 52.3835C107.744 45.5059 105.337 35.7067 107.13 35.0603C109.586 34.1295 112.263 42.3257 115.505 48.3759C118.747 54.426 119.975 59.3645 115.873 61.0968Z" fill="#FFA47C"/>
<path d="M167.231 64.2512C169.294 64.7166 169.957 70.5082 167.795 77.4633C165.339 85.5044 161.975 97.0618 160.157 96.5447C157.701 95.8466 159.961 85.7371 160.624 77.4116C161.287 69.0862 162.982 63.2687 167.231 64.2512Z" fill="#FFBD95"/>
<path d="M154.361 34.3367C156.817 33.3283 161.139 40.4127 163.595 48.8157C167.894 63.4499 171.381 67.38 167.132 69.5001C163.276 71.491 161.287 65.6476 155.982 53.8317C151.855 44.6788 149.252 36.5085 154.361 34.3367Z" fill="#303030"/>
<path d="M109.709 40.4905C109.782 39.4855 110.032 38.5036 110.446 37.5947C111.319 36.2193 111.82 34.6192 111.895 32.9665C111.874 31.5687 112.116 30.1803 112.607 28.8814C112.779 28.4935 111.993 28.3384 111.428 28.8814C110.863 29.4243 110.691 32.3202 110.274 32.3719C109.856 32.4236 108.726 24.6152 108.186 24.6152C107.646 24.6152 108.186 29.7863 107.965 29.9932C107.744 30.2 106.639 24.5894 105.951 24.5894C105.263 24.5894 106.467 30.4327 106.148 30.4844C105.828 30.5361 103.937 25.7012 103.298 25.9339C102.66 26.1665 105.018 30.8981 104.6 31.1049C104.183 31.3118 102.414 28.6745 102.021 29.0882C101.628 29.5019 103.741 32.1909 104.011 32.708C104.597 34.5074 105.354 36.2399 106.27 37.8791C106.835 38.0859 107.572 40.1802 107.572 40.1802L109.709 40.4905Z" fill="#FFA47C"/>
<path d="M115.874 61.0974C113.884 61.9248 110.961 60.1149 108.997 52.5651C107.841 48.273 107.02 43.8889 106.541 39.4564C106.541 38.4221 110.691 37.9309 111.453 39.4564C113.246 43.2054 114.277 44.7826 116.365 48.9195C119.238 55.3833 119.975 59.3651 115.874 61.0974Z" fill="#191919"/>
<path d="M167.23 64.2512C169.293 64.7166 170.202 70.4048 168.065 77.3599C166.272 83.1774 164.602 88.969 163.644 91.4511C163.202 92.5629 158.879 91.0116 158.904 90.4428C158.904 88.1158 159.542 85.8146 160.206 77.515C160.869 69.2154 162.981 63.2687 167.23 64.2512Z" fill="#303030"/>
<path d="M150.676 35.9659C152.027 32.8374 155.81 31.5188 159.346 36.1728C162.883 40.8268 164.111 50.6518 164.111 50.6518L153.525 53.2374C153.525 53.2374 147.876 42.3522 150.676 35.9659Z" fill="#88BD4F"/>
<path d="M159.175 92.3562C158.668 92.757 158.184 93.1886 157.726 93.649C157.17 94.5754 156.528 95.4415 155.81 96.2345C155.22 96.5965 154.803 96.6482 154.704 96.7775C154.606 96.9067 154.705 98.2771 155.736 97.8634C156.768 97.4497 157.725 96.4413 158.069 96.4931C158.413 96.5448 158.462 99.0786 158.266 99.6733C158.069 100.268 156.326 103.629 156.252 103.784C156.178 103.939 156.08 104.482 156.252 104.612C156.424 104.741 157.259 104.612 157.431 104.379C157.603 104.146 157.725 104.689 157.922 104.663L158.806 104.379C159.187 104.35 159.561 104.254 159.911 104.095C160.478 103.656 161.012 103.171 161.508 102.647C162.247 101.384 162.872 100.051 163.374 98.6649C163.374 97.8893 162.736 92.744 162.736 92.744L159.175 92.3562Z" fill="#FFBD95"/>
<path d="M170.57 48.4023C170.57 52.7201 167.255 54.0646 163.202 53.8578C159.15 53.6509 138.789 48.1437 138.003 47.0319C137.217 45.9201 138.003 39.7407 139.673 39.0684C141.343 38.3962 159.469 40.3353 162.76 41.111C166.051 41.8867 170.472 43.3346 170.57 48.4023Z" fill="#FFBD95"/>
<path d="M169.367 44.6791C168.483 43.3347 165.879 40.413 159.543 39.6632C155.343 39.1719 147.262 38.4221 147.262 38.4221C146.112 40.4588 145.439 42.7541 145.297 45.1187C145.063 47.6411 145.496 50.1826 146.55 52.4616C146.55 52.4616 163.227 54.4525 166.395 53.0563C167.574 52.7202 171.823 48.4799 169.367 44.6791Z" fill="#B8D1FF"/>
<path d="M144.339 45.765C143.087 50.2638 134.515 46.7475 130.364 44.8083C126.213 42.8692 114.203 34.9832 114.203 34.9832L116.217 31.8289C124.364 32.693 132.377 34.63 140.066 37.5946C141.269 38.0859 145.616 41.1627 144.339 45.765Z" fill="#FFBD95"/>
<path d="M200.928 193.012C200.928 193.012 198.103 198.519 198.472 199.708C199.056 200.587 199.863 201.276 200.801 201.696C201.739 202.117 202.77 202.252 203.777 202.087C205.904 201.252 207.9 200.084 209.696 198.622C210.973 198.183 209.475 190.866 209.475 190.866L200.928 193.012Z" fill="#191919"/>
<path d="M173.911 21.4089C173.911 21.4089 177.546 33.4576 178.356 33.8454C180.812 35.0865 188.917 34.466 191.177 37.2583C193.879 40.6454 188.5 63.4758 188.721 69.5777C188.942 75.6796 194.173 85.97 195.057 91.8134C195.942 97.6567 178.479 104.741 177.865 104.741C175.069 102.67 172.585 100.169 170.497 97.3206C169.44 95.4073 170.816 83.4621 169.883 79.7647C168.949 76.0674 163.939 62.1571 163.57 61.3556C161.953 57.7866 161.114 53.882 161.114 49.9275C160.795 48.5671 160.696 47.1599 160.82 45.7648C161.556 43.929 167.353 40.1283 167.255 39.3526C167.156 38.577 165.314 27.7435 165.314 27.7435L173.911 21.4089Z" fill="#FFBD95"/>
<path d="M178.357 33.7422L169.859 43.0243L167.402 39.2753C167.402 39.2753 161.95 38.9391 161.532 40.1285C160.557 44.532 160.168 49.057 160.378 53.5733C161.409 57.0846 162.615 60.5367 163.988 63.9155C164.971 66.7079 165.88 70.5087 167.55 75.2661C168.663 79.4946 169.403 83.8222 169.76 88.1938C169.76 88.1938 173.69 88.3489 179.757 88.0128C184.608 87.8287 189.438 87.2321 194.198 86.2288C195.574 85.0394 190.293 72.0341 190.219 70.7155C190.146 69.3969 193.437 43.076 192.872 40.2577C192.659 39.0556 192.095 37.9534 191.259 37.1051C190.422 36.2569 189.355 35.7049 188.206 35.5262C185.848 35.0091 178.357 33.7422 178.357 33.7422Z" fill="#CEE0FF"/>
<path d="M187.001 35.2673C187.001 35.2673 194.591 37.2582 189.457 44.446C187.222 47.5745 185.086 59.1061 182.752 60.6315C174.377 66.1646 184.103 81.3159 185.208 82.9707C185.917 84.1466 186.3 85.5079 186.314 86.9007L195.401 85.8148C198.226 86.3836 190.17 70.5859 190.489 67.3023C190.808 64.0186 193.436 42.481 192.945 40.2316C192.614 38.8293 191.852 37.5817 190.776 36.6836C189.701 35.7856 188.374 35.2876 187.001 35.2673Z" fill="#B8D1FF"/>
<path d="M166.198 32.3456L175.458 25.5457L177.349 31.8802L174.696 34.8019L166.198 32.3456Z" fill="#FFA47C"/>
<path d="M159.543 12.5923C161.606 9.43789 168.778 5.30101 173.69 9.7223C175.558 11.3597 176.866 13.5948 177.416 16.0872C177.966 18.5796 177.727 21.1928 176.736 23.5291C175.841 26.3097 174.118 28.7124 171.824 30.3808C169.546 31.6001 167.114 32.4707 164.603 32.9664C163.768 32.9664 161.901 27.0972 161.68 27.1747C161.467 27.1998 161.253 27.1565 161.064 27.0503C160.875 26.9441 160.722 26.7801 160.624 26.5801C160.427 25.882 160.231 21.409 159.985 21.047C159.74 20.685 157.087 16.2379 159.543 12.5923Z" fill="#FFBD95"/>
<path d="M158.561 15.5918C158.561 15.5918 162.318 12.0238 168.778 15.8762C170.178 16.7036 168.999 21.9264 169.392 22.2884C169.785 22.6504 172.88 17.8412 172.855 18.4101C172.462 24.2275 174.82 26.8131 175.311 26.7355C176.76 26.5028 179.536 17.7637 175.999 12.0755C174.766 10.1565 172.969 8.71554 170.885 7.97311C168.8 7.23068 166.542 7.22765 164.455 7.96447C162.825 8.40126 161.372 9.37875 160.31 10.7524C159.249 12.126 158.635 13.8228 158.561 15.5918Z" fill="#8D3B26"/>
<path d="M170.595 20.2199C170.472 22.0556 170.743 24.4602 171.676 24.5378C172.609 24.6153 173.518 23.1415 173.641 21.2799C173.764 19.4183 173.1 17.867 172.167 17.8153C171.234 17.7636 170.718 18.3583 170.595 20.2199Z" fill="#FFBD95"/>
<path d="M178.234 194.744H185.037V193.4H178.234V194.744Z" fill="#191919"/>
<path d="M184.742 183.988C185.629 185.567 186.174 187.333 186.339 189.159C186.339 190.555 185.626 193.555 184.767 193.555C181.993 193.531 179.221 193.687 176.465 194.02C173.813 194.408 172.806 196.011 166.027 195.985C164.037 195.985 160.55 195.856 160.55 195.003C160.55 191.305 167.058 192.624 169.122 190.633C171.615 187.959 174.576 185.817 177.841 184.324C180.134 184.08 182.438 183.968 184.742 183.988Z" fill="#191919"/>
<path d="M181.648 86.4097C181.648 86.4097 190.711 95.9504 191.128 100.113C191.546 104.276 187.714 117.566 186.363 128.037C185.012 138.509 184.177 140.629 184.521 143.085C184.865 145.541 187.518 155.573 187.419 162.244C187.419 170 187.714 185.927 187.714 185.927C185.578 187.214 183.116 187.774 180.665 187.53C178.439 187.374 176.309 186.519 174.549 185.074C174.549 185.074 172.511 146.007 172.093 141.896C171.823 139.31 169.76 120.901 169.122 105.956C168.925 101.147 169.981 87.3922 169.981 85.4014L181.648 86.4097Z" fill="#191919"/>
<path d="M169.662 40.361L169.859 43.0242L174.353 38.1633L169.662 40.361Z" fill="#B8D1FF"/>
<path d="M169.858 43.0242L168.213 40.1284L167.206 41.5505L169.858 43.0242Z" fill="#B8D1FF"/>
<path d="M195.622 85.7373C197.599 90.8011 199.297 95.9808 200.707 101.251C202.131 107.482 203.85 139.827 204.366 142.878C204.882 145.929 206.675 155.211 208.075 164.39C209.475 173.568 210.31 192.029 210.31 192.029L199.135 193.865C199.135 193.865 192.479 155.082 191.423 149.083C190.366 143.085 179.289 99.9578 179.289 99.9578L177.914 86.0734L195.622 85.7373Z" fill="#303030"/>
<path d="M195.279 112.188C196.212 116.324 198.963 144.455 199.184 146.032C199.405 147.61 206.307 190.762 206.552 192.753L210.236 192.133C210.236 192.133 209.401 173.698 208.001 164.493C206.601 155.289 204.808 146.007 204.293 142.981C203.777 139.956 202.058 107.585 200.633 101.354C199.223 96.0843 197.526 90.9046 195.549 85.8408L185.725 86.177C185.725 86.177 194.345 108.025 195.279 112.188Z" fill="#191919"/>
<path d="M195.893 85.7375L177.644 86.0736C176.612 86.0736 169.858 85.4014 169.858 85.4014L169.735 88.2713C169.735 88.2713 176.293 88.8401 179.412 88.8401C182.532 88.8401 196.605 88.0645 196.605 88.0645L195.893 85.7375Z" fill="#3B1B1D"/>
<path d="M176.662 89.228H178.086C178.9 89.228 179.56 88.5335 179.56 87.6767V87.4699C179.56 86.6131 178.9 85.9185 178.086 85.9185H176.662C175.848 85.9185 175.188 86.6131 175.188 87.4699V87.6767C175.188 88.5335 175.848 89.228 176.662 89.228Z" fill="#722C1D"/>
<path d="M171.332 40.8525L167.255 40.9043L168.385 44.0845L170.448 44.0069L171.332 40.8525Z" fill="#E77B20"/>
<path d="M168.385 44.0842C166.637 49.153 166.122 54.6015 166.887 59.9335C168.115 69.0864 168.017 89.7708 168.017 89.7708L170.276 93.9852L173.027 89.0209C173.027 89.0209 171.16 66.4491 170.153 59.7784C169.606 54.5304 169.696 49.2304 170.424 44.0066L168.385 44.0842Z" fill="#FF9236"/>
<path d="M179.953 34.001L177.35 31.8809L169.662 40.3614L171.995 43.3865L179.953 34.001Z" fill="#E0F2FF"/>
<path d="M168.213 40.1285L166.69 43.3604L165.634 40.6456L167.009 38.2927L168.213 40.1285Z" fill="#E0F2FF"/>
<path d="M183.809 37.9563C186.118 34.3107 189.581 35.138 192.774 37.646C195.967 40.154 211.931 58.9768 211.956 60.3471C211.98 61.7175 208.051 66.4749 206.258 66.0095C204.465 65.5441 188.426 51.1167 186.167 48.557C183.907 45.9973 181.107 42.2224 183.809 37.9563Z" fill="#FFBD95"/>
<path d="M182.483 41.4468C182.472 42.8402 182.735 44.2209 183.254 45.5023C183.774 46.7837 184.54 47.9382 185.504 48.8932C188.918 51.608 197.367 59.3646 197.367 59.3646C199.447 58.3491 201.266 56.8243 202.672 54.9175C204.23 52.9497 205.249 50.5719 205.619 48.04C205.619 48.04 192.627 36.6636 189.311 35.5518C188.48 35.3496 187.616 35.3509 186.785 35.5556C185.955 35.7602 185.18 36.1627 184.52 36.7322C183.861 37.3016 183.334 38.0228 182.981 38.8401C182.628 39.6575 182.457 40.5493 182.483 41.4468Z" fill="#CEE0FF"/>
<path d="M210.924 58.8478C214.583 61.6402 208.468 69.1901 205.324 72.603C202.18 76.0159 192.847 86.5391 192.847 86.5391L189.04 83.1779C192.327 74.9579 196.719 67.2779 202.082 60.3734C202.917 59.3391 207.191 56.0037 210.924 58.8478Z" fill="#FFBD95"/>
<path d="M187.911 94.2441C187.714 94.1153 187.572 93.9126 187.513 93.6772C187.453 93.4418 187.482 93.1914 187.592 92.9771L189.458 89.5384C189.576 89.3266 189.769 89.1724 189.994 89.1095C190.22 89.0465 190.46 89.0799 190.662 89.2022C190.863 89.3264 191.009 89.5292 191.069 89.7665C191.129 90.0038 191.097 90.2564 190.981 90.4692L189.016 93.8045C188.971 93.9098 188.907 94.0047 188.827 94.0838C188.747 94.1629 188.653 94.2246 188.55 94.2654C188.447 94.3062 188.338 94.3254 188.228 94.3217C188.119 94.318 188.011 94.2916 187.911 94.2441Z" fill="#FFBD95"/>
<path d="M186.388 93.5198C186.186 93.3957 186.04 93.1929 185.98 92.9556C185.92 92.7183 185.952 92.4657 186.068 92.2529L187.935 88.84C187.989 88.7304 188.063 88.6335 188.154 88.5553C188.245 88.4771 188.35 88.4193 188.463 88.3854C188.575 88.3515 188.693 88.3422 188.81 88.3582C188.926 88.3741 189.038 88.4149 189.138 88.478C189.34 88.6022 189.486 88.805 189.546 89.0423C189.606 89.2795 189.574 89.5321 189.458 89.7449L187.591 93.1837C187.473 93.3955 187.281 93.5496 187.055 93.6126C186.83 93.6755 186.59 93.6422 186.388 93.5198Z" fill="#FFBD95"/>
<path d="M184.963 92.7182C184.762 92.594 184.615 92.3912 184.555 92.1539C184.496 91.9166 184.527 91.6641 184.644 91.4513L186.51 88.0384C186.628 87.8266 186.821 87.6724 187.046 87.6095C187.272 87.5465 187.512 87.5799 187.714 87.7022C187.812 87.7613 187.899 87.8403 187.969 87.9348C188.038 88.0293 188.089 88.1373 188.119 88.2527C188.149 88.3681 188.156 88.4886 188.142 88.6071C188.127 88.7256 188.09 88.8399 188.033 88.9433L186.166 92.3821C186.11 92.4896 186.034 92.5839 185.943 92.6595C185.851 92.7351 185.746 92.7902 185.633 92.8217C185.521 92.8531 185.403 92.8602 185.288 92.8424C185.173 92.8246 185.062 92.7823 184.963 92.7182Z" fill="#FFBD95"/>
<path d="M183.661 91.8132C183.563 91.7542 183.476 91.6752 183.406 91.5807C183.337 91.4862 183.286 91.3781 183.256 91.2627C183.226 91.1474 183.219 91.0269 183.233 90.9083C183.248 90.7898 183.285 90.6756 183.342 90.5721L185.209 87.1334C185.327 86.9216 185.519 86.7674 185.745 86.7045C185.97 86.6415 186.21 86.6748 186.412 86.7972C186.613 86.9214 186.76 87.1242 186.82 87.3615C186.879 87.5988 186.848 87.8513 186.732 88.0642L184.865 91.4771C184.809 91.5846 184.733 91.6789 184.641 91.7545C184.549 91.83 184.444 91.8852 184.332 91.9167C184.219 91.9481 184.102 91.9551 183.986 91.9373C183.871 91.9196 183.761 91.8773 183.661 91.8132Z" fill="#FFBD95"/>
<path d="M191.226 80.3337C189.225 81.8371 187.314 83.4691 185.504 85.2204C184.604 87.0658 183.848 88.9855 183.244 90.9603C183.244 90.9603 185.332 90.4691 186.191 91.1672C187.051 91.8653 189.016 93.8045 189.016 93.8045C190.435 92.3255 191.695 90.6867 192.774 88.9178C193.316 87.6977 193.744 86.4247 194.051 85.117L191.226 80.3337Z" fill="#FFBD95"/>
<path d="M115.825 35.4487C115.825 35.4487 112.141 36.4829 110.741 34.3628C109.876 32.5036 109.576 30.4093 109.881 28.3643C109.684 25.3134 106.713 23.0122 106.295 21.2024C105.877 19.3925 106.885 18.9271 107.228 19.4959C109.169 22.7537 111.33 24.0982 112.018 25.6237C113.444 27.8839 115.019 30.0353 116.733 32.0616L115.825 35.4487Z" fill="#FFBD95"/>
<path d="M113.27 35.6554C111.898 35.3696 110.616 34.7299 109.537 33.7938C108.481 32.5527 108.849 30.3291 108.088 29.1656C107.326 28.0022 108.088 28.0021 108.432 28.028C109.027 28.6744 109.577 29.3657 110.077 30.0964C110.593 30.717 113.933 32.2424 113.27 35.6554Z" fill="#FFBD95"/>
<path d="M70.3621 182.359C69.4275 184.066 68.8419 185.959 68.6428 187.918C68.52 189.469 69.4042 192.753 70.3621 192.753C73.3828 192.73 76.4018 192.912 79.4005 193.296C82.2987 193.709 83.3793 195.468 90.7476 195.468C92.9089 195.468 96.8387 195.312 96.7159 194.382C96.5931 193.451 89.6178 191.796 87.3828 189.521C84.6726 186.594 81.4543 184.242 77.9023 182.592C75.3948 182.369 72.8776 182.291 70.3621 182.359Z" fill="#191919"/>
<path d="M77.5092 192.753H70.0918V194.227H77.5092V192.753Z" fill="#191919"/>
<path d="M44.254 120.823C44.254 120.823 72.057 130.39 73.2113 131.76C74.3657 133.13 82.1514 184.815 82.1514 184.815C80.1219 186.335 77.6915 187.149 75.2007 187.142C72.9667 187.444 70.7052 187.444 68.4711 187.142C68.4711 187.142 60.8081 153.97 61.1028 149.574C61.0755 145.876 60.6218 142.195 59.7519 138.612C59.7519 138.612 27.4298 136.931 25.1948 134.914C12.5705 123.434 26.472 116.815 26.472 116.815L44.4751 118.16L44.254 120.823Z" fill="#00233F"/>
<path d="M48.7486 77.1018C50.5907 81.4455 54.0537 81.0577 57.8115 79.0151C61.5693 76.9725 78.5163 63.5018 78.7619 60.7094C78.9093 59.2357 76.748 55.073 74.7831 55.2281C72.8182 55.3832 56.78 64.5878 53.98 66.8631C51.1801 69.1383 46.5627 72.0083 48.7486 77.1018Z" fill="#B8D1FF"/>
<path d="M41.0117 47.8591C41.0117 47.8591 37.3522 60.218 36.0996 61.3557C33.6435 63.5534 27.8962 64.2774 25.4401 67.3025C22.4683 70.9739 24.5068 90.5724 24.2121 97.2172C23.9174 103.862 19.0052 116.764 16.5 122.633C13.9948 128.502 29.9839 137.216 30.647 137.397C34.598 136.236 38.358 134.449 41.7977 132.096C43.4433 130.416 45.0151 113.997 46.0713 110.093C47.1274 106.189 51.6712 92.3047 52.0887 91.4256C53.8332 87.5377 54.7311 83.2889 54.7167 78.9891C54.8395 77.6188 55.4781 75.4728 55.0606 74.4644C54.2746 72.4477 47.987 68.285 48.0853 67.4317C48.1835 66.5785 50.2712 54.8143 50.2712 54.8143L41.0117 47.8591Z" fill="#FFBD95"/>
<path d="M61.1029 198.803H53.6855V200.328H61.1029V198.803Z" fill="#191919"/>
<path d="M53.9309 188.047C52.9928 189.818 52.4077 191.771 52.2116 193.787C52.0888 195.39 52.9731 198.777 53.9309 198.777C56.9525 198.751 59.9723 198.941 62.9693 199.346C65.8429 199.76 66.9236 201.596 74.3164 201.57C76.4778 201.57 80.4076 201.415 80.2848 200.458C80.162 199.501 73.1866 197.743 70.9516 195.468C68.2642 192.447 65.0442 190.006 61.4711 188.28C58.9644 188.045 56.4465 187.967 53.9309 188.047Z" fill="#191919"/>
<path d="M36.1001 61.3557L45.9245 72.4218L48.0613 67.4318C48.0613 67.4318 52.2858 65.8287 53.9559 66.8629C55.6261 67.8972 55.9945 78.4462 55.9454 79.7907C54.883 84.7105 53.454 89.5345 51.6717 94.218C50.5665 97.2431 49.5841 101.38 47.742 106.551C46.3175 111.393 45.145 116.313 44.2298 121.289C40.5382 122.231 36.667 122.033 33.0792 120.72C25.7109 118.134 17.9988 116.919 17.7531 116.531C16.6479 114.877 21.9039 104.948 22.6653 98.4324C22.8372 97.0362 23.2303 72.2926 23.8689 69.2158C24.1049 67.9022 24.7237 66.6985 25.6391 65.7718C26.5546 64.8452 27.7213 64.2415 28.9775 64.0447C31.4241 63.3772 33.8081 62.4771 36.1001 61.3557Z" fill="#CEE0FF"/>
<path d="M41.3066 84.1603C34.8717 64.4843 30.2051 64.6394 30.2051 64.6394L29.2964 64.0964H28.9771C27.7209 64.2933 26.5542 64.8969 25.6387 65.8236C24.7233 66.7502 24.1045 67.9539 23.8685 69.2675C23.2299 72.3443 22.8369 97.088 22.6649 98.4842C21.9281 104.974 16.6721 114.902 17.7528 116.583C17.9738 116.919 24.2614 117.979 30.7946 120.022L42.8295 121.651C43.6891 121.496 44.2294 121.34 44.2294 121.34C45.1446 116.364 46.3171 111.444 47.7416 106.603C48.7486 103.733 52.1625 93.0546 52.8257 90.831C52.8257 90.831 50.3696 95.485 47.5451 94.8645C45.3346 94.3732 44.8434 95.0196 41.3066 84.1603Z" fill="#B8D1FF"/>
<path d="M17.6299 116.454C16.5063 120.433 16.0818 124.595 16.3773 128.735C17.1141 134.32 18.4159 140.577 30.77 141.663C43.1241 142.749 50.8117 143.576 51.2047 143.628C51.5976 143.679 50.2467 154.797 50.7625 162.58C51.2783 170.362 52.1134 191.021 52.1134 191.021C54.5987 191.65 57.1467 191.962 59.7027 191.952C64.6149 191.952 66.1867 190.219 66.1867 190.219C66.1867 190.219 69.5762 141.533 68.3727 137.474C66.3833 130.648 45.703 125.063 44.917 123.848C44.4627 122.028 44.2968 120.141 44.4258 118.264L17.6299 116.454Z" fill="#002D56"/>
<path d="M29.1487 64.6912C24.6295 65.2083 23.7699 69.4227 24.605 74.2318C25.44 79.0409 33.2013 100.087 34.4293 100.915C35.6574 101.742 44.0818 102.828 44.4993 100.604C44.9168 98.3809 38.1134 78.1619 36.7871 74.3353C35.4608 70.5087 34.4293 64.0707 29.1487 64.6912Z" fill="#CEE0FF"/>
<path d="M41.5766 50.7034L49.5834 58.4342L48.8712 62.8038L39.6609 61.9247L37.2539 59.0548L40.496 50.0054L41.5766 50.7034Z" fill="#FFA47C"/>
<path d="M49.289 34.7762C45.7523 32.6043 36.6648 31.9838 33.8157 39.0164C32.7186 41.684 32.4557 44.6496 33.065 47.4848C33.6743 50.3199 35.1242 52.8777 37.2051 54.7883C39.4101 57.1759 42.2862 58.7532 45.4085 59.2871C48.2522 59.4419 51.1016 59.1367 53.8574 58.3822C54.6434 57.8651 53.8574 50.9875 54.0784 50.9358C54.3034 50.8522 54.499 50.6987 54.6393 50.4955C54.7797 50.2924 54.8581 50.0492 54.8644 49.7982C54.7416 48.9708 52.875 44.3168 52.9241 43.7738C52.9732 43.2309 53.317 37.2841 49.289 34.7762Z" fill="#FFBD95"/>
<path d="M51.6957 37.3871C51.6957 37.3871 46.2677 35.6031 41.6257 42.8426C40.6187 44.4198 44.2046 49.2031 44.0818 49.7461C43.959 50.289 38.5065 46.9537 38.8258 47.5225C41.8959 53.3141 40.7907 57.1666 40.2749 57.3217C38.703 57.813 31.8751 50.2373 32.7347 42.5841C33.0488 40.0436 34.1507 37.6833 35.8693 35.8694C37.588 34.0555 39.8273 32.8894 42.2397 32.5522C44.0999 32.1868 46.0223 32.4594 47.7244 33.3297C49.4265 34.2 50.8185 35.6221 51.6957 37.3871Z" fill="#8D3B26"/>
<path d="M41.8228 48.221C42.8052 50.0826 43.6648 52.6682 42.7315 53.237C41.7982 53.8058 40.2754 52.7199 39.2684 50.8841C38.2614 49.0484 38.2123 47.1092 39.2684 46.5663C40.3245 46.0233 40.8158 46.3853 41.8228 48.221Z" fill="#FFBD95"/>
<path d="M46.0716 69.6033L45.9734 72.4474L43.6401 69.8618L46.0716 69.6033Z" fill="#B8D1FF"/>
<path d="M72.9167 61.3559C75.8886 65.4927 82.741 59.6236 86.1796 55.9262C89.6181 52.2289 98.2635 40.1285 98.2635 40.1285L95.267 36.4829C95.267 36.4829 77.485 50.6 76.4289 51.5825C75.3728 52.565 69.8957 57.1673 72.9167 61.3559Z" fill="#FFBD95"/>
<path d="M45.9731 72.4475L46.9311 69.7068L47.5942 71.2064L45.9731 72.4475Z" fill="#B8D1FF"/>
<path d="M17.6549 116.454L16.8198 119.453L44.4754 121.495L44.4262 118.263L17.6549 116.454Z" fill="#3B1B1D"/>
<path d="M42.8538 121.495H42.0188C41.58 121.495 41.1589 121.313 40.8464 120.989C40.5339 120.665 40.3551 120.224 40.3486 119.763C40.355 119.298 40.533 118.855 40.8448 118.527C41.1567 118.198 41.5778 118.011 42.0188 118.004H42.8538C43.2925 118.011 43.7111 118.199 44.019 118.528C44.3269 118.857 44.4995 119.301 44.4994 119.763C44.4994 120.222 44.3261 120.663 44.0175 120.988C43.7089 121.312 43.2902 121.495 42.8538 121.495Z" fill="#722C1D"/>
<path d="M34.8716 61.5885L37.254 59.0547L46.0713 69.6037L44.1802 72.5771L34.8716 61.5885Z" fill="#E8E2D6"/>
<path d="M38.2854 103.629C41.9207 103.629 44.8678 100.99 44.8678 97.7342C44.8678 94.4784 41.9207 91.8391 38.2854 91.8391C34.6501 91.8391 31.7031 94.4784 31.7031 97.7342C31.7031 100.99 34.6501 103.629 38.2854 103.629Z" fill="#E8E2D6"/>
<path d="M45.5064 97.7082C45.7278 99.1241 45.5308 100.577 44.9421 101.872C44.3535 103.166 43.4015 104.239 42.2149 104.945C41.0284 105.651 39.6645 105.957 38.3075 105.821C36.9505 105.685 35.6659 105.114 34.6274 104.184C33.5889 103.255 32.8465 102.012 32.5006 100.624C32.1547 99.236 32.2219 97.7696 32.6932 96.4232C33.1645 95.0767 34.0172 93.9151 35.136 93.0952C36.2547 92.2754 37.5855 91.8369 38.9487 91.8391C40.5544 91.717 42.1415 92.2638 43.368 93.3615C44.5946 94.4593 45.3625 96.0202 45.5064 97.7082Z" fill="#CEE0FF"/>
<path d="M45.5064 98.5098C45.7278 99.9257 45.5308 101.379 44.9421 102.673C44.3535 103.968 43.4015 105.04 42.2149 105.747C41.0284 106.453 39.6645 106.759 38.3075 106.623C36.9505 106.487 35.6659 105.915 34.6274 104.986C33.5889 104.056 32.8465 102.813 32.5006 101.425C32.1547 100.038 32.2219 98.5712 32.6932 97.2247C33.1645 95.8783 34.0172 94.7166 35.136 93.8967C36.2547 93.0769 37.5855 92.6384 38.9487 92.6406C40.5544 92.5185 42.1415 93.0653 43.368 94.163C44.5946 95.2608 45.3625 96.8218 45.5064 98.5098Z" fill="#E8E2D6"/>
<path d="M46.9312 69.7068L48.3557 65.906L49.5837 68.0262L47.889 72.4474L46.9312 69.7068Z" fill="#E8E2D6"/>
<path d="M80.9476 88.7883L81.3897 87.8575C81.4133 87.8043 81.4468 87.7567 81.4882 87.7174C81.5296 87.6781 81.5781 87.648 81.6307 87.6287C81.6834 87.6094 81.7391 87.6014 81.7947 87.6052C81.8503 87.6089 81.9047 87.6244 81.9546 87.6506C82.0051 87.6755 82.0503 87.7108 82.0876 87.7544C82.125 87.7979 82.1536 87.8489 82.172 87.9044C82.1903 87.9598 82.1979 88.0185 82.1943 88.0771C82.1907 88.1356 82.176 88.1929 82.151 88.2454L81.6844 89.202C81.6323 89.3049 81.5435 89.3817 81.4376 89.4156C81.3316 89.4496 81.2172 89.4378 81.1195 89.383C81.0686 89.3587 81.0232 89.3233 80.9863 89.2791C80.9495 89.2349 80.922 89.1829 80.9057 89.1266C80.8894 89.0703 80.8847 89.011 80.892 88.9527C80.8992 88.8944 80.9182 88.8383 80.9476 88.7883Z" fill="#90A4A2"/>
<path d="M74.6605 103.371C74.2921 103.19 74.8079 101.277 74.9798 100.915L80.5305 88.9176C80.6153 88.7327 80.7664 88.5907 80.9506 88.5228C81.1348 88.4549 81.3371 88.4668 81.513 88.5557C81.6844 88.6495 81.8139 88.8106 81.8736 89.004C81.9333 89.1974 81.9184 89.4078 81.8322 89.5899L76.306 101.561C76.0359 101.949 75.0289 103.552 74.6605 103.371Z" fill="#4B5B60"/>
<path d="M83.4143 85.7966L81.9839 85.1182L81.6818 85.824L83.1122 86.5025L83.4143 85.7966Z" fill="#90A4A2"/>
<path d="M79.0813 94.063C79.0598 94.0413 79.0427 94.0152 79.0309 93.9863C79.0192 93.9574 79.0132 93.9264 79.0132 93.895C79.0132 93.8636 79.0192 93.8325 79.0309 93.8036C79.0427 93.7747 79.0598 93.7486 79.0813 93.7269L80.8497 89.7193C80.8942 89.6792 80.9508 89.6572 81.0094 89.6572C81.0679 89.6572 81.1245 89.6792 81.169 89.7193C81.227 89.7475 81.2722 89.7984 81.2952 89.8612C81.3181 89.9239 81.3169 89.9936 81.2919 90.0554L79.4989 94.063C79.4769 94.1004 79.4461 94.1313 79.4096 94.1527C79.3731 94.1741 79.332 94.1854 79.2901 94.1854C79.2483 94.1854 79.2072 94.1741 79.1707 94.1527C79.1341 94.1313 79.1033 94.1004 79.0813 94.063Z" fill="#C9DAD8"/>
<path d="M34.1102 98.9756C33.3979 104.147 43.5907 104.69 48.5766 104.741C53.5624 104.793 69.8954 103.397 69.8954 103.397L67.6112 98.6136C67.6112 98.6136 42.5837 94.5026 41.1837 94.425C39.7838 94.3475 34.7979 93.8045 34.1102 98.9756Z" fill="#FFBD95"/>
<path d="M79.4495 102.776C79.4528 102.661 79.4344 102.546 79.3954 102.438C79.3564 102.33 79.2977 102.231 79.2224 102.147C79.1471 102.063 79.0568 101.996 78.9567 101.948C78.8566 101.901 78.7487 101.875 78.639 101.871H75.1022C74.9925 101.868 74.8833 101.887 74.7807 101.928C74.6782 101.969 74.5843 102.031 74.5044 102.111C74.4246 102.19 74.3604 102.285 74.3155 102.39C74.2706 102.496 74.2457 102.609 74.2426 102.725C74.2393 102.84 74.2577 102.955 74.2967 103.063C74.3356 103.171 74.3944 103.27 74.4697 103.354C74.5449 103.438 74.6352 103.506 74.7353 103.553C74.8354 103.6 74.9434 103.626 75.0531 103.63H78.5899C78.7004 103.637 78.811 103.62 78.9151 103.58C79.0192 103.54 79.1144 103.479 79.195 103.399C79.2755 103.319 79.3396 103.222 79.3834 103.115C79.4272 103.008 79.4497 102.893 79.4495 102.776Z" fill="#FFBD95"/>
<path d="M79.6462 101.147C79.6495 101.031 79.6312 100.916 79.5922 100.808C79.5532 100.7 79.4944 100.601 79.4191 100.517C79.3438 100.433 79.2536 100.366 79.1535 100.318C79.0534 100.271 78.9454 100.245 78.8358 100.242H75.299C75.1885 100.235 75.0778 100.252 74.9737 100.291C74.8696 100.331 74.7743 100.393 74.6938 100.473C74.6133 100.553 74.5491 100.649 74.5054 100.756C74.4616 100.863 74.4391 100.979 74.4393 101.095C74.4361 101.21 74.4544 101.325 74.4934 101.433C74.5323 101.541 74.5912 101.64 74.6664 101.724C74.7417 101.808 74.832 101.876 74.9321 101.923C75.0322 101.971 75.1401 101.997 75.2498 102H78.7866C78.8971 102.007 79.0078 101.99 79.1119 101.95C79.216 101.911 79.3112 101.849 79.3918 101.769C79.4723 101.689 79.5364 101.593 79.5802 101.486C79.624 101.379 79.6464 101.263 79.6462 101.147Z" fill="#FFBD95"/>
<path d="M79.7444 99.5445C79.7445 99.3158 79.6598 99.096 79.5085 98.9319C79.3572 98.7677 79.151 98.6722 78.9338 98.6654H75.3971C75.2874 98.662 75.1781 98.6813 75.0756 98.7223C74.973 98.7633 74.8791 98.8253 74.7993 98.9045C74.7195 98.9838 74.6553 99.0788 74.6103 99.1841C74.5654 99.2895 74.5407 99.4032 74.5375 99.5187C74.5342 99.6341 74.5526 99.7491 74.5915 99.8571C74.6305 99.9651 74.6893 100.064 74.7646 100.148C74.8399 100.232 74.9301 100.3 75.0302 100.347C75.1303 100.394 75.2383 100.42 75.348 100.424H78.8847C78.9964 100.427 79.1077 100.407 79.2118 100.364C79.316 100.322 79.411 100.257 79.4912 100.175C79.5713 100.093 79.635 99.9954 79.6785 99.887C79.722 99.7786 79.7444 99.6622 79.7444 99.5445Z" fill="#FFBD95"/>
<path d="M79.6951 97.9927C79.6983 97.8773 79.68 97.7623 79.641 97.6543C79.602 97.5463 79.5432 97.4475 79.4679 97.3634C79.3927 97.2794 79.3024 97.2118 79.2023 97.1645C79.1022 97.1172 78.9943 97.0911 78.8846 97.0878H75.3478C75.2381 97.0843 75.1289 97.1037 75.0263 97.1447C74.9238 97.1857 74.8299 97.2476 74.7501 97.3269C74.6702 97.4061 74.6059 97.5011 74.561 97.6065C74.5161 97.7119 74.4913 97.8256 74.4882 97.941C74.4849 98.0565 74.5033 98.1715 74.5423 98.2795C74.5812 98.3874 74.64 98.4863 74.7153 98.5703C74.7905 98.6543 74.8808 98.722 74.9809 98.7693C75.081 98.8165 75.189 98.8426 75.2987 98.8459H78.8355C78.946 98.853 79.0566 98.8362 79.1607 98.7965C79.2648 98.7568 79.36 98.6951 79.4406 98.6151C79.5211 98.5352 79.5853 98.4387 79.629 98.3316C79.6728 98.2246 79.6953 98.1092 79.6951 97.9927Z" fill="#FFBD95"/>
<path d="M67.1445 98.7424C69.2883 97.7811 71.4866 96.9608 73.7268 96.2861C75.5888 96.4474 77.4362 96.7585 79.253 97.2169C79.253 97.2169 77.8531 98.7424 77.9513 99.8025C78.0495 100.863 78.6144 103.629 78.6144 103.629C76.7793 104.097 74.9021 104.357 73.0145 104.405C71.8047 104.265 70.6116 103.996 69.4533 103.603L67.1445 98.7424Z" fill="#FFBD95"/>
<path d="M94.3579 37.7496C94.9122 37.2107 95.3237 36.5292 95.5519 35.7721C95.7802 35.015 95.8173 34.2085 95.6596 33.4317C95.605 32.4012 95.7464 31.3696 96.0753 30.3973C96.4043 29.425 96.9143 28.5316 97.5754 27.7694C98.401 26.6574 99.304 25.6117 100.277 24.6409C101.137 24.3823 100.842 25.52 101.112 25.4165C101.382 25.3131 102.291 25.0028 102.365 25.9595C102.438 26.9161 102.684 26.7352 102.979 26.8386C103.274 26.942 103.445 27.7435 103.274 28.1572C103.102 28.5709 103.593 28.726 103.593 29.2431C103.532 29.8183 103.29 30.3555 102.905 30.7686C102.432 31.3096 102.069 31.9461 101.837 32.6394C101.604 33.3328 101.508 34.0685 101.554 34.8021C101.554 36.7412 101.358 39.8439 98.4596 40.6195C95.5614 41.3952 94.3579 37.7496 94.3579 37.7496Z" fill="#FFBD95"/>
<path d="M69.2325 57.7617C69.6961 60.0699 70.6537 62.2364 72.0324 64.0963C72.5194 64.6525 73.1124 65.0942 73.7726 65.3927C74.4328 65.6912 75.1454 65.8397 75.8639 65.8286C76.2278 65.1762 76.6383 64.5539 77.0919 63.967C77.8779 63.088 79.548 63.1397 79.3761 62.3899C79.2042 61.64 76.5762 60.9161 75.0288 58.7959C73.4815 56.6758 73.9482 54.8659 73.5798 54.6332C73.2113 54.4005 72.1061 55.8742 71.4921 56.1328C70.878 56.3914 69.1343 56.0035 69.2325 57.7617Z" fill="#CEE0FF"/>
<path d="M25.2193 192.883H31.8999L31.8999 142.982H25.2193L25.2193 192.883Z" fill="#99A2A9"/>
<path d="M8.98433 143.499H12.6685L12.6685 129.614H8.98433L8.98433 143.499Z" fill="#99A2A9"/>
<path d="M12.4235 147.842H49.4858C51.3849 147.842 52.9243 146.221 52.9243 144.222V141.378C52.9243 139.379 51.3849 137.758 49.4858 137.758H12.4235C10.5244 137.758 8.98496 139.379 8.98496 141.378V144.222C8.98496 146.221 10.5244 147.842 12.4235 147.842Z" fill="#303030"/>
<path d="M9.7573 134.111L10.8306 133.978C12.4338 133.78 13.5807 132.251 13.3924 130.563L7.22004 75.251C7.03171 73.5634 5.57941 72.356 3.97625 72.5542L2.90295 72.6869C1.29978 72.8852 0.152826 74.414 0.341155 76.1017L6.51352 131.414C6.70184 133.102 8.15414 134.309 9.7573 134.111Z" fill="#303030"/>
<path d="M4.80855 74.2056C5.10473 74.1691 5.4026 74.2573 5.63724 74.451C5.87189 74.6448 6.02431 74.9283 6.06118 75.2398L12.1768 129.821C12.2115 130.132 12.1277 130.446 11.9437 130.693C11.7597 130.94 11.4903 131.101 11.1944 131.139C10.9022 131.169 10.6106 131.077 10.3814 130.884C10.1522 130.691 10.0033 130.412 9.96635 130.105L3.87523 75.5242C3.83954 75.2202 3.9167 74.9134 4.09057 74.6678C4.26444 74.4221 4.52161 74.2566 4.80855 74.2056Z" fill="#424249"/>
<path d="M41.8223 198.7C41.8223 199.508 42.0498 200.298 42.4762 200.969C42.9026 201.641 43.5087 202.165 44.2178 202.474C44.9269 202.783 45.7072 202.864 46.46 202.707C47.2127 202.549 47.9042 202.16 48.4469 201.589C48.9896 201.017 49.3592 200.289 49.5089 199.497C49.6587 198.704 49.5818 197.883 49.2881 197.137C48.9944 196.39 48.497 195.752 47.8588 195.303C47.2207 194.854 46.4704 194.615 45.7029 194.615C44.6736 194.615 43.6866 195.045 42.9589 195.811C42.2311 196.577 41.8223 197.616 41.8223 198.7Z" fill="#303030"/>
<path d="M6.62654 198.7C6.62168 199.514 6.84658 200.311 7.27272 200.991C7.69886 201.67 8.30706 202.201 9.02019 202.516C9.73333 202.831 10.5193 202.917 11.2785 202.761C12.0376 202.605 12.7357 202.216 13.2843 201.642C13.8329 201.068 14.2073 200.335 14.36 199.537C14.5127 198.739 14.4368 197.911 14.1419 197.159C13.8471 196.406 13.3466 195.762 12.7039 195.309C12.0612 194.857 11.3051 194.615 10.5317 194.615C9.50024 194.615 8.51069 195.044 7.77903 195.81C7.04737 196.575 6.63303 197.614 6.62654 198.7Z" fill="#303030"/>
<path d="M5.39844 196.321H51.7203C51.7203 195.409 51.3761 194.535 50.7635 193.89C50.1509 193.245 49.32 192.883 48.4536 192.883H8.64049C7.7784 192.889 6.95383 193.255 6.34653 193.899C5.73922 194.543 5.39841 195.414 5.39844 196.321Z" fill="#99A2A9"/>
<g style="mix-blend-mode:soft-light">
<path d="M26.2996 192.883H27.9697L27.9697 147.325H26.2996L26.2996 192.883Z" fill="#99A2A9"/>
</g>
<path d="M47.0288 104.663L47.0288 204H53.2182L53.2182 104.663H47.0288Z" fill="#79858E"/>
<path d="M179.29 104.663V204H185.479V104.663H179.29Z" fill="#79858E"/>
<path d="M184.447 106.241H47.9131V120.358H184.447V106.241Z" fill="#79858E"/>
<g style="mix-blend-mode:multiply">
<path d="M185.381 115.807L47.0293 117.204V112.524L185.381 112.575V115.807Z" fill="#B9B9BD"/>
</g>
<path d="M193.29 104.405H39.563V112.627H193.29V104.405Z" fill="#99A2A9"/>
<path d="M82.6431 102.233H118.674L122.726 73.7146H86.6956L82.6431 102.233Z" fill="#8E8E8E"/>
<path d="M82.6424 102.233H68.79V104.431H82.6424V102.233Z" fill="#8E8E8E"/>
<path opacity="0.5" d="M86.6956 73.7146L118.625 102.233H82.6431L86.6956 73.7146Z" fill="#757575"/>
<path d="M82.6428 104.431H118.625V102.233H82.6428V104.431Z" fill="#757575"/>
<path d="M102.315 88.349C102.331 88.8273 102.473 89.2916 102.724 89.6903C102.976 90.0889 103.327 90.4063 103.74 90.6069C104.153 90.8076 104.61 90.8837 105.062 90.8269C105.513 90.77 105.941 90.5824 106.297 90.2849C106.653 89.9874 106.924 89.5917 107.079 89.1418C107.234 88.6919 107.267 88.2056 107.175 87.7369C107.083 87.2682 106.87 86.8355 106.558 86.4871C106.246 86.1387 105.849 85.8882 105.41 85.7635C104.674 85.6761 103.936 85.8991 103.356 86.3836C102.776 86.8682 102.402 87.5749 102.315 88.349Z" fill="#B8D1FF"/>
</svg>
