<svg width="122" height="255" viewBox="0 0 122 255" fill="none" xmlns="http://www.w3.org/2000/svg">
<path d="M52.0284 0L53.9449 3.9098L58.2636 4.54866L55.146 7.58962L55.8871 11.8827L52.0284 9.86395L48.1441 11.8827L48.8852 7.58962L45.7676 4.54866L50.0863 3.9098L52.0284 0Z" fill="#FF9236"/>
<path d="M106.255 33.323L107.762 36.3895L111.161 36.9006L108.708 39.2771L109.27 42.6503L106.255 41.0659L103.214 42.6503L103.801 39.2771L101.348 36.9006L104.747 36.3895L106.255 33.323Z" fill="#FF9236"/>
<path d="M15.5113 60.8699L16.5846 63.042L18.9356 63.3742L17.2235 65.0608L17.6324 67.4118L15.5113 66.3129L13.3903 67.4118L13.7992 65.0608L12.0615 63.3742L14.4381 63.042L15.5113 60.8699Z" fill="#FF9236"/>
<path d="M23.6376 18.6548L24.5576 20.5202L26.6019 20.8013L25.1198 22.2579L25.4775 24.3023L23.6376 23.3312L21.7977 24.3023L22.1555 22.2579L20.6733 20.8013L22.7177 20.5202L23.6376 18.6548Z" fill="#FF9236"/>
<path d="M118.188 85.5557L119.134 87.4467L121.229 87.7533L119.696 89.2099L120.079 91.3054L118.188 90.3088L116.323 91.3054L116.681 89.2099L115.173 87.7533L117.268 87.4467L118.188 85.5557Z" fill="#FF9236"/>
<path d="M87.0378 52.8205C89.8233 52.8205 92.1487 51.3383 93.1197 43.5954C94.0908 35.8524 94.0397 19.191 94.0397 19.191L89.8999 18.22C87.2672 24.4087 85.0059 30.7489 83.128 37.2068C82.4636 41.3977 79.7038 52.8716 87.0378 52.8205Z" fill="#FFBD95"/>
<path d="M72.6764 88.009C75.2318 89.3634 78.5028 89.3378 80.5727 82.8982C82.6426 76.4585 89.6956 59.8993 90.3344 56.9606C90.9733 54.0218 93.5287 48.4254 88.1879 45.9467C82.847 43.4679 80.5216 49.141 78.6817 53.613C70.2488 72.8042 65.649 84.4314 72.6764 88.009Z" fill="#FFBD95"/>
<path d="M76.995 90.4111C78.7838 90.4111 82.1059 83.5115 83.9458 78.5284C86.0668 72.472 90.7943 57.0372 90.7943 57.0372C88.5109 55.0546 85.7418 53.7141 82.7703 53.153C78.6305 52.4374 77.6594 53.153 77.6594 53.153L69.9932 71.2199C69.9932 71.2199 71.9353 90.0534 76.995 90.4111Z" fill="#0E3854"/>
<path d="M20.3157 112.03C17.5559 111.493 14.9238 112.464 12.6494 119.9C10.3751 127.337 7.00195 143.666 7.00195 143.666L10.8862 145.429C14.6274 139.858 18.0405 134.072 21.1079 128.103C22.5134 124.117 27.6243 113.41 20.3157 112.03Z" fill="#FFBD95"/>
<path d="M71.8583 232.952C73.8731 232.159 75.9891 231.651 78.1447 231.445C79.6779 231.445 81.5689 232.722 81.6712 234C81.6712 234.511 81.1345 235.124 80.5979 235.763C78.0522 237.818 75.2522 239.536 72.2672 240.874C70.2031 241.201 68.0956 241.131 66.0575 240.67C64.7287 240.184 64.7031 235.559 64.7031 235.559L71.8583 232.952Z" fill="#191919"/>
<path d="M39.9158 104.057C37.0026 95.1642 29.5152 79.9339 33.885 77.2762C39.6091 73.8264 56.0661 71.6543 56.0661 71.6543V71.9354C56.0661 71.9354 70.1209 73.7497 75.8195 77.1996C80.2149 79.755 75.1296 95.4198 72.2419 104.313C71.552 106.434 71.6286 116.017 71.8842 124.501C72.6585 129.7 73.1533 134.938 73.3663 140.191C73.3663 141.366 59.8481 148.726 56.0916 148.93V148.649C52.3351 148.445 38.8936 140.983 38.8169 139.935C39.0662 134.681 39.5951 129.443 40.4013 124.245C40.5291 115.761 40.6057 106.204 39.9158 104.057Z" fill="#FFBD95"/>
<path d="M38.5105 77.1738C36.1339 75.4616 31.7641 76.7394 28.7743 82.7191C25.7844 88.6988 18.5526 104.619 17.6071 107.302C16.6616 109.985 13.1862 115.301 18.0926 118.521C22.999 121.74 26.0911 116.502 28.5954 112.49C39.7882 94.6529 44.9246 81.8758 38.5105 77.1738Z" fill="#FFBD95"/>
<path d="M49.1919 69.0989C49.5497 67.3612 50.6229 58.8772 50.6229 58.8772H56.1682V59.1583H61.6113C61.6113 59.1583 62.5568 67.5401 62.9145 69.2267C63.2723 70.9133 67.8721 73.4687 67.8721 73.4687H56.066V73.1876H44.2344C44.2344 73.1876 48.8086 70.7599 49.1919 69.0989Z" fill="#FFA47C"/>
<path d="M64.9331 130.889C71.705 130.889 74.3371 135.566 74.1582 150.08C73.9793 164.595 74.286 180.286 73.3404 182.534C72.3949 184.783 62.7865 184.86 61.8666 183.531C60.9466 182.202 56.0913 152.15 56.0913 147.448C56.0913 142.746 57.5479 130.915 64.9331 130.889Z" fill="#FFBD95"/>
<path d="M66.9168 194.138L68.6795 194.095C71.3884 194.028 73.5304 191.778 73.4637 189.069L73.316 183.066C73.2493 180.357 70.9992 178.215 68.2903 178.282L66.5276 178.325C63.8187 178.392 61.6767 180.642 61.7434 183.351L61.8911 189.354C61.9578 192.063 64.2079 194.205 66.9168 194.138Z" fill="#FFBD95"/>
<path d="M67.8722 185.269C69.9421 185.269 75.0274 185.959 74.7463 199.451C74.2449 210.189 73.0584 220.884 71.1943 231.471H66.3134C66.3134 231.471 61.4581 206.479 61.4325 201.674C61.407 190.763 61.3303 185.269 67.8722 185.269Z" fill="#FFBD95"/>
<path d="M47.0452 130.991C40.3244 130.25 37.2068 134.671 35.8524 149.109C34.4981 163.548 35.0092 179.391 35.6991 181.742C36.3891 184.093 45.9208 185.141 47.0197 183.914C48.1185 182.688 53.6127 153.07 54.0982 148.317C54.5837 143.564 54.4048 131.784 47.0452 130.991Z" fill="#FFBD95"/>
<path d="M40.7753 177.808L42.5462 178.041C43.8344 178.21 45.0027 178.884 45.7941 179.914C46.5854 180.945 46.9349 182.247 46.7657 183.536L45.9817 189.506C45.8125 190.794 45.1386 191.963 44.108 192.754C43.0775 193.545 41.7748 193.895 40.4865 193.726L38.7156 193.493C38.0793 193.406 37.4665 193.194 36.9124 192.87C36.3582 192.545 35.8737 192.115 35.4866 191.602C35.0995 191.09 34.8174 190.506 34.6567 189.884C34.496 189.263 34.4597 188.615 34.55 187.979L35.334 182.009C35.5017 180.732 36.1682 179.573 37.1878 178.786C38.2075 177.998 39.4973 177.647 40.7753 177.808Z" fill="#FFBD95"/>
<path d="M40.8616 185.013C38.7917 184.808 33.6808 185.013 32.5309 198.403C31.381 211.794 35.0863 230.883 35.0863 230.883L39.9672 231.394C39.9672 231.394 45.0781 206.785 45.4869 202.006C46.7135 191.146 47.3524 185.703 40.8616 185.013Z" fill="#FFBD95"/>
<path d="M72.2932 127.874C73.5477 133.963 74.486 140.112 75.1042 146.298C75.4875 152.789 74.772 181.18 74.772 184.298C74.772 187.415 74.9764 197.075 74.772 206.428C74.5675 215.78 74.6186 234.384 74.6186 234.384L62.557 234.077C62.557 234.077 60.0016 194.289 60.0016 188.08C60.0016 181.87 56.0151 148.905 56.0151 148.905V128.462L72.2932 127.874Z" fill="#191919"/>
<path d="M40.0689 127.593C38.1633 133.563 36.5683 139.627 35.2903 145.762C34.2426 152.176 34.3959 180.746 34.0892 183.838C33.7826 186.93 32.5304 196.615 31.7382 205.866C30.9461 215.116 31.4571 233.975 31.4571 233.975L43.4677 234.947C43.4677 234.947 47.633 195.389 48.2974 189.153C48.9618 182.918 56.117 150.157 56.117 150.157V128.666L40.0689 127.593Z" fill="#191919"/>
<path d="M73.7496 234.46C73.871 236.315 73.871 238.176 73.7496 240.031C73.7496 240.746 71.7819 241.539 68.6387 241.743C66.8879 241.787 65.1472 241.465 63.5278 240.798C62.1479 240.184 63.9878 234.205 63.9878 234.205L73.7496 234.46Z" fill="#191919"/>
<path d="M35.4439 231.931C33.4274 231.138 31.3126 230.622 29.1575 230.398C27.6243 230.398 25.7077 231.701 25.6055 232.953C25.6055 233.464 26.1677 234.078 26.6788 234.691C29.2152 236.787 32.0055 238.556 34.9839 239.955C37.0573 240.269 39.1708 240.2 41.2191 239.751C42.548 239.265 42.5735 234.64 42.5735 234.64L35.4439 231.931Z" fill="#191919"/>
<path d="M41.4487 151.946C40.7587 156.188 39.9666 184.783 39.8388 186.393C39.711 188.003 35.6223 232.084 35.4434 234.103L31.4825 233.796C31.4825 233.796 30.9714 215.116 31.7636 205.686C32.5558 196.257 33.7824 186.776 34.1146 183.659C34.4468 180.541 34.2679 152.048 35.2901 145.762C36.564 139.67 38.1505 133.648 40.0432 127.72L56.0657 128.615C56.0657 151.792 38.1778 145.608 37.5389 146.911C36.9 148.215 41.7042 150.361 41.4487 151.946Z" fill="#303030"/>
<path d="M66.6711 152.917C66.4411 158.386 66.6711 184.579 66.6711 185.269C66.6711 185.959 69.2265 234.205 69.2265 234.205H68.9965L62.5057 234.052C62.5057 234.052 59.9503 194.264 59.9503 188.054C59.9503 181.845 57.1138 157.594 57.1138 157.594C57.1138 157.594 58.1615 152.815 61.0747 153.096C63.9879 153.377 66.7222 151.844 66.6711 152.917Z" fill="#303030"/>
<path d="M66.7478 53.1785C66.7478 53.894 67.1056 54.7117 67.0289 55.7339C67.0289 56.1172 66.4923 56.6539 66.4667 57.0627C66.109 60.5126 65.3424 64.3201 63.4002 64.269C59.8737 64.269 57.7527 64.499 55.3762 64.499C51.7986 64.499 47.1988 60.4359 46.3811 53.204C45.5633 45.9722 52.5908 40.6058 59.1582 40.708C65.7257 40.8102 67.1056 45.5888 66.8245 52.0285C66.7904 52.3863 66.7649 52.7696 66.7478 53.1785Z" fill="#FFA47C"/>
<path d="M55.7338 38.6126C60.8447 37.6671 69.0732 42.2924 65.9555 45.1545C65.0356 45.9978 64.8567 54.0985 64.8567 54.0985C64.8567 54.0985 63.7323 53.5107 63.3235 53.9707C62.9146 54.4307 62.6079 57.2416 62.1224 58.4938C61.6369 59.746 58.5448 64.5757 57.6504 64.5757C56.756 64.5757 51.1596 64.7801 50.4185 64.0135C48.7945 61.6348 47.4806 59.0586 46.5087 56.3472C45.7932 53.9196 42.3178 40.9891 55.7338 38.6126Z" fill="#8D3B26"/>
<path d="M64.1668 51.0068C64.1668 50.7257 62.6847 49.8313 61.9947 51.7479C61.9885 53.5135 62.3724 55.2588 63.1191 56.8588C63.7068 56.9099 64.3202 52.4379 64.1668 51.0068Z" fill="#FFA47C"/>
<path d="M32.4794 77.3019C33.2205 76.0753 37.2325 75.0276 40.9379 73.8777C42.959 73.2482 44.9248 72.4534 46.8153 71.5011H65.1889C67.5925 70.7527 70.1126 70.4496 72.6252 70.6067C73.9863 70.6452 75.3162 71.023 76.4944 71.7057C77.6725 72.3885 78.6614 73.3547 79.3715 74.5165C80.0359 75.8453 78.6049 90.3346 73.1362 106.076C72.3952 108.223 74.3373 123.351 72.4463 127.874L56.2449 129.356L40.0179 127.874C38.5102 122.763 40.0179 107.942 39.2768 105.795C38.5358 103.648 31.2272 79.3207 32.4794 77.3019Z" fill="#0E3854"/>
<path d="M44.8989 72.4974L67.3356 72.5229L64.1924 68.8175L48.0421 68.792L44.8989 72.4974Z" fill="#134268"/>
<path d="M35.6994 76.279C32.3262 74.9247 27.6242 81.8754 25.7588 86.9863C23.8933 92.0971 17.147 107.43 17.147 107.43C19.1104 109.748 21.6482 111.511 24.5066 112.541C28.4931 113.844 29.6175 113.179 29.6175 113.179L39.8392 96.4414C39.8392 96.4414 40.4014 78.17 35.6994 76.279Z" fill="#0E3854"/>
<path d="M12.2916 144.611C12.2916 144.611 12.2916 146.63 12.1127 146.937C11.582 148.077 11.1957 149.278 10.9628 150.514C10.9628 151.357 11.295 151.843 11.2439 152.022C11.1928 152.201 9.78729 153.018 9.37842 151.613C8.96956 150.207 9.37843 148.674 8.96956 148.342C8.56069 148.01 6.00526 149.569 5.62194 150.131C5.23863 150.693 3.06652 154.603 3.06652 154.782C3.06652 154.961 2.50432 155.395 2.29989 155.344C2.09545 155.293 1.60993 154.245 1.63548 153.964C1.66104 153.683 1.09884 153.964 0.971065 153.632C0.843294 153.3 0.587747 152.533 0.587747 152.533C0.309991 152.131 0.110588 151.68 0 151.204C0.0166864 150.348 0.093539 149.494 0.229989 148.649C0.934472 147.103 1.79047 145.63 2.78542 144.253C3.50094 143.64 7.89628 140.599 10.1451 140.906C11.065 141.033 12.2916 144.611 12.2916 144.611Z" fill="#FFBD95"/>
<path d="M72.4463 131.246H39.2258C39.0157 131.246 38.8142 131.163 38.6656 131.014C38.5171 130.866 38.4336 130.664 38.4336 130.454L39.1236 128.103C39.1236 127.893 39.207 127.691 39.3556 127.543C39.5041 127.394 39.7056 127.311 39.9157 127.311H72.4463C72.6564 127.311 72.8579 127.394 73.0065 127.543C73.1551 127.691 73.2385 127.893 73.2385 128.103V130.428C73.2419 130.535 73.224 130.64 73.1857 130.739C73.1474 130.839 73.0896 130.929 73.0157 131.005C72.9418 131.081 72.8533 131.142 72.7555 131.184C72.6577 131.225 72.5526 131.246 72.4463 131.246Z" fill="#191919"/>
<path d="M95.9564 9.12325C95.7195 9.06811 95.4704 9.10639 95.261 9.23013C95.0516 9.35387 94.898 9.55355 94.832 9.78766L93.8609 13.5952C93.8302 13.7127 93.8231 13.8351 93.8399 13.9553C93.8568 14.0756 93.8972 14.1913 93.959 14.2958C94.0208 14.4003 94.1026 14.4916 94.1998 14.5643C94.297 14.6371 94.4076 14.6899 94.5253 14.7196C94.7591 14.7825 95.0082 14.7507 95.2187 14.6311C95.4292 14.5115 95.5841 14.3138 95.6497 14.0808L96.6208 10.3243C96.673 10.2026 96.6967 10.0706 96.6901 9.93829C96.6835 9.80601 96.6467 9.67701 96.5826 9.56112C96.5185 9.44523 96.4287 9.34553 96.3202 9.26964C96.2117 9.19375 96.0872 9.14368 95.9564 9.12325Z" fill="#FFBD95"/>
<path d="M94.3465 8.53506C94.2324 8.50426 94.1133 8.49637 93.9961 8.51187C93.8789 8.52736 93.766 8.56593 93.6638 8.62534C93.5617 8.68474 93.4723 8.76381 93.4008 8.85797C93.3294 8.95213 93.2773 9.05951 93.2476 9.17392L92.251 13.0071C92.2206 13.1229 92.2137 13.2437 92.2309 13.3622C92.248 13.4807 92.2887 13.5946 92.3507 13.6971C92.4127 13.7996 92.4946 13.8885 92.5916 13.9588C92.6886 14.029 92.7987 14.079 92.9154 14.1059C93.0296 14.1367 93.1486 14.1446 93.2658 14.1291C93.383 14.1136 93.4959 14.075 93.5981 14.0156C93.7003 13.9562 93.7896 13.8771 93.8611 13.783C93.9325 13.6888 93.9846 13.5814 94.0143 13.467L95.0109 9.6339C95.0413 9.51807 95.0482 9.39731 95.031 9.27878C95.0139 9.16025 94.9732 9.04637 94.9112 8.94389C94.8492 8.8414 94.7673 8.75241 94.6703 8.68219C94.5733 8.61196 94.4632 8.56193 94.3465 8.53506Z" fill="#FFBD95"/>
<path d="M92.7109 8.04952C92.474 7.99438 92.225 8.03266 92.0155 8.1564C91.8061 8.28014 91.6525 8.47982 91.5865 8.71393L90.6154 12.5215C90.5603 12.7584 90.5986 13.0075 90.7223 13.2169C90.8461 13.4263 91.0457 13.5799 91.2799 13.6459C91.5168 13.701 91.7658 13.6628 91.9752 13.539C92.1846 13.4153 92.3382 13.2156 92.4042 12.9815L93.3753 9.1739C93.406 9.05644 93.4131 8.93407 93.3963 8.81383C93.3795 8.69359 93.339 8.57788 93.2772 8.47336C93.2155 8.36883 93.1336 8.27757 93.0364 8.20483C92.9392 8.13208 92.8286 8.0793 92.7109 8.04952Z" fill="#FFBD95"/>
<path d="M91.1264 7.76882C90.8928 7.71445 90.6472 7.75348 90.4419 7.8776C90.2366 8.00171 90.088 8.20109 90.0276 8.43323L88.9543 12.2153C88.8992 12.4522 88.9374 12.7012 89.0612 12.9106C89.1849 13.12 89.3846 13.2737 89.6187 13.3397C89.7362 13.3703 89.8586 13.3775 89.9788 13.3606C90.099 13.3438 90.2147 13.3033 90.3193 13.2416C90.4238 13.1798 90.515 13.098 90.5878 13.0008C90.6605 12.9036 90.7133 12.7929 90.7431 12.6752L91.7397 8.86765C91.7962 8.64085 91.7643 8.40106 91.6503 8.19697C91.5364 7.99288 91.3491 7.8398 91.1264 7.76882Z" fill="#FFBD95"/>
<path d="M88.8012 21.4656C88.3407 18.9317 88.042 16.3711 87.9067 13.7993C88.5078 11.8243 89.2685 9.90135 90.1811 8.04956C90.1811 8.04956 91.4077 9.91502 92.5576 10.0428C93.7076 10.1706 96.6208 10.3239 96.6208 10.3239C96.6661 12.4168 96.4775 14.5081 96.0586 16.5591C95.3444 18.3282 94.4898 20.0372 93.5031 21.67L88.8012 21.4656Z" fill="#FFBD95"/>
<path opacity="0.7" d="M33.3993 139.833L32.3516 244.248H52.0284L51.0573 139.833H33.3993Z" fill="#E0E5E8"/>
<path opacity="0.7" d="M60.64 139.245L59.5923 243.66H79.2435L78.298 139.245H60.64Z" fill="#E0E5E8"/>
<path d="M42.1643 91.5101C41.7407 87.5898 41.0404 83.7044 40.0688 79.8829C39.7211 78.9011 39.1769 78.0005 38.4695 77.236C37.7622 76.4716 36.9064 75.8592 35.9546 75.4364L41.9854 73.5454C41.9854 73.5454 44.3619 73.7498 46.3041 77.2252C48.2462 80.7006 42.1643 91.5101 42.1643 91.5101Z" fill="#A9A9A9"/>
<path d="M63.5791 75.6919L66.2623 71.271L70.4532 70.5811L69.4055 86.9358L63.5791 75.6919Z" fill="#A9A9A9"/>
<path d="M56.0913 72.5227H55.7336C48.183 72.5227 42.062 78.6437 42.062 86.1942V121.689C42.062 129.24 48.183 135.361 55.7336 135.361H56.0913C63.6419 135.361 69.7629 129.24 69.7629 121.689V86.1942C69.7629 78.6437 63.6419 72.5227 56.0913 72.5227Z" fill="#A9A9A9"/>
<path d="M57.7017 132.627C54.5229 132.613 51.4784 131.343 49.233 129.092C46.9876 126.842 45.7235 123.795 45.7168 120.616V87.2423C45.7235 84.0657 46.9884 81.0212 49.2346 78.7751C51.4807 76.5289 54.5252 75.2641 57.7017 75.2573C60.8783 75.2641 63.9228 76.5289 66.1689 78.7751C68.4151 81.0212 69.68 84.0657 69.6867 87.2423V120.616C69.68 123.795 68.4159 126.842 66.1705 129.092C63.9251 131.343 60.8806 132.613 57.7017 132.627Z" fill="#D1D1D1"/>
<path d="M33.3994 139.833C33.3994 146.273 42.2156 160.532 42.2156 160.532C42.2156 160.532 51.0574 147.193 51.0574 139.833C51.0574 132.984 33.3994 132.984 33.3994 139.833Z" fill="#FF9236"/>
<path d="M33.3994 139.501C33.3994 145.966 42.3434 151.818 42.3434 151.818C42.3434 151.818 51.0574 146.886 51.0574 139.501C51.0574 132.729 33.3994 132.729 33.3994 139.501Z" fill="#FFB136"/>
<path d="M33.3994 134.441C33.3994 140.881 42.3434 146.758 42.3434 146.758C42.3434 146.758 51.0574 141.801 51.0574 134.441C51.0574 127.644 33.3994 127.644 33.3994 134.441Z" fill="#FFC23D"/>
<path d="M28.9274 124.193C28.8979 124.004 28.8101 123.829 28.6762 123.692C28.5423 123.555 28.3691 123.463 28.1806 123.43C27.9922 123.396 27.7979 123.422 27.6248 123.504C27.4518 123.586 27.3086 123.72 27.2153 123.887L23.7399 130.224C23.7019 130.366 23.7019 130.516 23.7399 130.659V139.424C23.7394 139.604 23.7922 139.781 23.8916 139.932C23.9911 140.083 24.1328 140.202 24.2991 140.272C24.4654 140.343 24.6489 140.364 24.8267 140.331C25.0044 140.298 25.1686 140.214 25.2987 140.088L30.1796 135.284C30.2814 135.181 30.3577 135.056 30.4021 134.918C30.4465 134.781 30.4578 134.635 30.4351 134.492L28.9274 124.193Z" fill="#353432"/>
<path d="M42.1647 96.0581C38.54 98.4424 35.4797 101.59 33.1978 105.28C30.9158 108.97 29.4672 113.113 28.9532 117.421C28.3575 122.794 28.4433 128.221 29.2087 133.572C29.2714 134.082 29.5196 134.552 29.9059 134.891C30.2923 135.23 30.79 135.416 31.3042 135.412H53.1786C53.6898 135.405 54.1817 135.216 54.5658 134.878C54.9499 134.541 55.2011 134.078 55.2741 133.572C56.0395 128.221 56.1253 122.794 55.5296 117.421C54.9979 113.1 53.5258 108.948 51.2168 105.257C48.9077 101.566 45.8179 98.4264 42.1647 96.0581Z" fill="#D1D1D1"/>
<path d="M36.3639 131.145C35.8551 131.144 35.3635 130.96 34.9788 130.627C34.5941 130.294 34.342 129.834 34.2685 129.331C33.5031 123.979 33.4172 118.553 34.0129 113.18C34.8179 106.788 37.6373 100.818 42.0625 96.1355C38.4683 98.5249 35.435 101.665 33.1718 105.34C30.9086 109.015 29.4693 113.137 28.9532 117.422C28.3575 122.795 28.4433 128.221 29.2087 133.573C29.2714 134.083 29.5196 134.552 29.9059 134.892C30.2923 135.231 30.79 135.416 31.3042 135.412H53.1786C53.6898 135.405 54.1817 135.216 54.5658 134.879C54.9499 134.542 55.2011 134.078 55.2741 133.573C55.2741 132.908 55.4785 132.09 55.5552 131.017H36.3639V131.145Z" fill="#A9A9A9"/>
<path d="M52.0284 135.335H32.3516V139.245H52.0284V135.335Z" fill="#353432"/>
<path d="M60.8447 139.833C60.8447 146.273 69.6609 160.532 69.6609 160.532C69.6609 160.532 78.5027 147.193 78.5027 139.833C78.4772 132.984 60.8447 132.984 60.8447 139.833Z" fill="#FF9236"/>
<path d="M60.8447 139.501C60.8447 145.966 69.7887 151.818 69.7887 151.818C69.7887 151.818 78.5027 146.886 78.5027 139.501C78.4772 132.729 60.8447 132.729 60.8447 139.501Z" fill="#FFB136"/>
<path d="M60.8447 134.441C60.8447 140.881 69.7887 146.758 69.7887 146.758C69.7887 146.758 78.5027 141.801 78.5027 134.441C78.4772 127.644 60.8447 127.644 60.8447 134.441Z" fill="#FFC23D"/>
<path d="M84.4059 123.887C84.3125 123.72 84.1694 123.586 83.9963 123.504C83.8233 123.422 83.629 123.396 83.4405 123.43C83.2521 123.463 83.0788 123.555 82.945 123.692C82.8111 123.829 82.7233 124.004 82.6938 124.193L81.2883 134.415C81.2712 134.558 81.2853 134.702 81.3294 134.839C81.3735 134.976 81.4466 135.101 81.5438 135.207L86.3991 140.088C86.5292 140.214 86.6934 140.298 86.8711 140.331C87.0489 140.364 87.2324 140.343 87.3987 140.272C87.565 140.202 87.7067 140.083 87.8062 139.932C87.9056 139.781 87.9584 139.604 87.9579 139.424V130.659C87.9947 130.516 87.9947 130.367 87.9579 130.224L84.4059 123.887Z" fill="#353432"/>
<path d="M69.5842 96.0581C65.9595 98.4424 62.8992 101.59 60.6172 105.28C58.3352 108.97 56.8866 113.113 56.3726 117.421C55.7769 122.794 55.8628 128.221 56.6281 133.572C56.6961 134.08 56.9458 134.546 57.331 134.885C57.7162 135.223 58.2109 135.41 58.7236 135.412H80.4703C80.9814 135.405 81.4733 135.216 81.8575 134.878C82.2416 134.541 82.4928 134.078 82.5657 133.572C83.3311 128.221 83.417 122.794 82.8213 117.421C82.3043 113.111 80.8518 108.966 78.5653 105.276C76.2788 101.586 73.2136 98.4398 69.5842 96.0581Z" fill="#D1D1D1"/>
<path d="M63.7833 131.145C63.2745 131.144 62.7829 130.96 62.3982 130.627C62.0136 130.294 61.7615 129.834 61.6879 129.33C60.9225 123.979 60.8367 118.553 61.4324 113.18C62.2373 106.788 65.0567 100.818 69.4819 96.1355C65.8877 98.5249 62.8545 101.665 60.5912 105.34C58.328 109.015 56.8887 113.137 56.3726 117.422C55.7769 122.795 55.8628 128.221 56.6281 133.573C56.6961 134.081 56.9458 134.547 57.331 134.885C57.7162 135.223 58.2109 135.411 58.7236 135.412H80.4703C80.9814 135.405 81.4733 135.216 81.8575 134.879C82.2416 134.542 82.4928 134.078 82.5657 133.573C82.5657 132.908 82.7446 132.09 82.8468 131.017H63.7833V131.145Z" fill="#A9A9A9"/>
<path d="M79.4483 135.335H59.7715V139.245H79.4483V135.335Z" fill="#353432"/>
<path d="M30.9205 215.653C29.0305 215.783 27.2216 216.471 25.7224 217.629C24.2232 218.788 23.1009 220.364 22.4973 222.16C21.8938 223.956 21.8361 225.89 22.3315 227.719C22.8269 229.547 23.8532 231.188 25.2808 232.434C26.7083 233.679 28.473 234.474 30.3519 234.717C32.2307 234.959 34.1394 234.64 35.8369 233.799C37.5343 232.957 38.9442 231.632 39.8885 229.989C40.8328 228.347 41.2691 226.461 41.1423 224.571C40.9653 222.035 39.79 219.672 37.8741 218C35.9581 216.328 33.4577 215.484 30.9205 215.653Z" fill="#E0E5E8"/>
<path d="M28.391 231.394C26.5 231.525 24.6903 232.214 23.1908 233.373C21.6914 234.533 20.5695 236.111 19.9671 237.908C19.3646 239.706 19.3087 241.641 19.8065 243.47C20.3042 245.299 21.3331 246.94 22.7632 248.184C24.1933 249.428 25.9602 250.22 27.8405 250.46C29.7208 250.7 31.6299 250.376 33.3265 249.531C35.0231 248.686 36.4309 247.356 37.3719 245.711C38.3128 244.065 38.7446 242.178 38.6127 240.287C38.4358 237.752 37.2597 235.392 35.3429 233.724C33.4261 232.057 30.9256 231.218 28.391 231.394Z" fill="#E0E5E8"/>
<path d="M18.4501 221.147C16.5591 221.278 14.7494 221.966 13.2499 223.126C11.7505 224.286 10.6286 225.864 10.0261 227.661C9.42372 229.458 9.36783 231.394 9.86555 233.223C10.3633 235.052 11.3922 236.692 12.8223 237.936C14.2524 239.181 16.0193 239.973 17.8996 240.212C19.7798 240.452 21.689 240.129 23.3856 239.284C25.0822 238.439 26.49 237.109 27.431 235.464C28.3719 233.818 28.8037 231.931 28.6718 230.04C28.4949 227.505 27.3188 225.145 25.402 223.477C23.4852 221.809 20.9846 220.971 18.4501 221.147Z" fill="#E0E5E8"/>
<path d="M15.1537 228.711C13.2627 228.842 11.453 229.53 9.95353 230.69C8.45406 231.85 7.33217 233.428 6.72975 235.225C6.12732 237.022 6.07144 238.958 6.56916 240.787C7.06688 242.616 8.09584 244.256 9.5259 245.5C10.956 246.744 12.7229 247.537 14.6032 247.776C16.4835 248.016 18.3926 247.693 20.0892 246.848C21.7858 246.003 23.1936 244.673 24.1346 243.028C25.0755 241.382 25.5073 239.494 25.3754 237.604C25.1985 235.069 24.0224 232.709 22.1056 231.041C20.1888 229.373 17.6883 228.535 15.1537 228.711Z" fill="#E0E5E8"/>
<path d="M42.2669 225.721C40.7832 225.827 39.3642 226.37 38.1896 227.283C37.0151 228.196 36.1379 229.437 35.6693 230.848C35.2006 232.26 35.1616 233.779 35.557 235.213C35.9525 236.647 36.7648 237.931 37.8908 238.903C39.0169 239.875 40.4061 240.491 41.8825 240.672C43.3588 240.854 44.8558 240.593 46.1839 239.923C47.5119 239.253 48.6111 238.204 49.3422 236.908C50.0734 235.613 50.4036 234.13 50.291 232.647C50.1406 230.666 49.212 228.826 47.7083 227.528C46.2046 226.23 44.2482 225.58 42.2669 225.721Z" fill="#E0E5E8"/>
<path d="M41.3978 233.183C32.8627 233.771 26.0652 239.699 26.4486 243.839C26.8319 247.979 33.8849 250.867 42.42 250.279C50.9551 249.691 56.5771 245.653 56.296 241.514C56.0149 237.374 49.9585 232.646 41.3978 233.183Z" fill="#E0E5E8"/>
<path d="M81.288 215.525C79.3977 215.398 77.5123 215.834 75.8699 216.778C74.2275 217.723 72.9018 219.133 72.0604 220.83C71.219 222.527 70.8996 224.436 71.1426 226.315C71.3856 228.194 72.1801 229.959 73.4256 231.386C74.6711 232.814 76.3118 233.84 78.1404 234.335C79.969 234.831 81.9034 234.773 83.6992 234.17C85.495 233.566 87.0716 232.444 88.2298 230.945C89.388 229.445 90.0759 227.636 90.2064 225.746C90.2932 224.489 90.1313 223.228 89.7299 222.033C89.3285 220.839 88.6955 219.735 87.8671 218.786C87.0387 217.836 86.0312 217.06 84.9023 216.5C83.7734 215.941 82.5452 215.609 81.288 215.525Z" fill="#E0E5E8"/>
<path d="M83.8436 231.267C81.9595 231.14 80.0802 231.575 78.4429 232.515C76.8056 233.456 75.4836 234.861 74.6438 236.552C73.8039 238.243 73.4839 240.145 73.7241 242.018C73.9643 243.891 74.7539 245.651 75.9933 247.076C77.2328 248.5 78.8664 249.526 80.6881 250.023C82.5098 250.52 84.4379 250.466 86.2291 249.868C88.0203 249.271 89.5943 248.156 90.7524 246.664C91.9106 245.173 92.601 243.372 92.7365 241.488C92.8268 240.233 92.6682 238.971 92.2696 237.777C91.8711 236.583 91.2406 235.479 90.4142 234.529C89.5879 233.58 88.582 232.802 87.4544 232.242C86.3268 231.682 85.0997 231.351 83.8436 231.267Z" fill="#E0E5E8"/>
<path d="M93.7841 221.019C91.8938 220.892 90.0084 221.328 88.366 222.272C86.7236 223.217 85.3979 224.627 84.5565 226.324C83.7151 228.021 83.3957 229.93 83.6387 231.809C83.8817 233.688 84.6761 235.453 85.9217 236.88C87.1672 238.308 88.8079 239.334 90.6365 239.829C92.4651 240.325 94.3995 240.267 96.1953 239.664C97.9911 239.06 99.5677 237.938 100.726 236.438C101.884 234.939 102.572 233.13 102.702 231.24C102.789 229.983 102.627 228.721 102.226 227.527C101.825 226.333 101.192 225.229 100.363 224.28C99.5348 223.33 98.5273 222.554 97.3984 221.994C96.2695 221.434 95.0413 221.103 93.7841 221.019Z" fill="#E0E5E8"/>
<path d="M97.0804 228.558C95.1902 228.431 93.3047 228.867 91.6624 229.811C90.02 230.756 88.6943 232.166 87.8529 233.863C87.0115 235.56 86.6921 237.469 86.9351 239.348C87.1781 241.227 87.9725 242.992 89.2181 244.419C90.4636 245.847 92.1043 246.873 93.9329 247.368C95.7614 247.864 97.6959 247.806 99.4917 247.203C101.287 246.599 102.864 245.477 104.022 243.977C105.181 242.478 105.868 240.669 105.999 238.779C106.086 237.522 105.924 236.261 105.522 235.066C105.121 233.872 104.488 232.768 103.66 231.819C102.831 230.869 101.824 230.093 100.695 229.533C99.5658 228.973 98.3376 228.642 97.0804 228.558Z" fill="#E0E5E8"/>
<path d="M69.9677 225.593C68.4853 225.495 67.0072 225.839 65.7203 226.582C64.4333 227.324 63.3953 228.431 62.7374 229.763C62.0795 231.095 61.8312 232.592 62.024 234.065C62.2168 235.538 62.8419 236.921 63.8205 238.038C64.799 239.156 66.0869 239.959 67.5215 240.345C68.9561 240.731 70.4729 240.683 71.8802 240.207C73.2875 239.731 74.5222 238.848 75.428 237.671C76.3339 236.494 76.8704 235.074 76.9696 233.592C77.039 232.606 76.9125 231.616 76.5976 230.68C76.2826 229.743 75.7853 228.878 75.1344 228.134C74.4835 227.391 73.6918 226.783 72.8051 226.347C71.9183 225.911 70.954 225.655 69.9677 225.593Z" fill="#E0E5E8"/>
<path d="M70.8363 233.055C62.3012 232.467 56.2448 237.221 55.9637 241.36C55.6826 245.5 61.279 249.563 69.8142 250.151C78.3493 250.739 85.53 247.851 85.8111 243.711C86.0922 239.572 79.3715 233.643 70.8363 233.055Z" fill="#E0E5E8"/>
<path d="M58.519 219.256C56.628 219.124 54.7405 219.556 53.095 220.497C51.4495 221.438 50.12 222.846 49.2747 224.542C48.4294 226.239 48.1062 228.148 48.3461 230.028C48.5859 231.909 49.378 233.676 50.6222 235.106C51.8663 236.536 53.5067 237.565 55.3357 238.062C57.1647 238.56 59.1002 238.504 60.8975 237.902C62.6947 237.299 64.2729 236.177 65.4325 234.678C66.5921 233.179 67.2809 231.369 67.4118 229.478C67.5805 226.945 66.7399 224.448 65.0737 222.533C63.4074 220.618 61.0509 219.44 58.519 219.256Z" fill="#E0E5E8"/>
<path d="M61.0492 234.972C59.1589 234.845 57.2735 235.281 55.6311 236.225C53.9887 237.17 52.663 238.58 51.8216 240.277C50.9803 241.974 50.6609 243.883 50.9039 245.762C51.1468 247.641 51.9413 249.406 53.1868 250.833C54.4323 252.261 56.073 253.287 57.9016 253.782C59.7302 254.278 61.6646 254.22 63.4604 253.617C65.2562 253.013 66.8328 251.891 67.991 250.392C69.1493 248.892 69.8371 247.083 69.9676 245.193C70.0545 243.936 69.8925 242.675 69.4911 241.48C69.0897 240.286 68.4567 239.182 67.6283 238.233C66.7999 237.283 65.7925 236.507 64.6635 235.947C63.5346 235.388 62.3064 235.056 61.0492 234.972Z" fill="#E0E5E8"/>
<path d="M71.0662 224.75C69.1822 224.624 67.3029 225.058 65.6656 225.999C64.0282 226.939 62.7062 228.344 61.8664 230.035C61.0266 231.726 60.7066 233.629 60.9468 235.502C61.187 237.374 61.9766 239.134 63.216 240.559C64.4554 241.984 66.0891 243.009 67.9107 243.506C69.7324 244.003 71.6606 243.949 73.4518 243.352C75.2429 242.754 76.8169 241.639 77.9751 240.148C79.1332 238.656 79.8236 236.855 79.9591 234.972C80.0495 233.716 79.8908 232.455 79.4923 231.26C79.0938 230.066 78.4632 228.963 77.6369 228.013C76.8105 227.063 75.8047 226.286 74.6771 225.726C73.5495 225.166 72.3224 224.834 71.0662 224.75Z" fill="#E0E5E8"/>
<path d="M74.2861 232.288C72.3951 232.156 70.5075 232.588 68.8621 233.529C67.2166 234.47 65.8871 235.878 65.0418 237.575C64.1965 239.271 63.8733 241.18 64.1132 243.061C64.353 244.941 65.1451 246.708 66.3893 248.138C67.6334 249.568 69.2737 250.597 71.1028 251.095C72.9318 251.592 74.8673 251.536 76.6645 250.934C78.4618 250.332 80.04 249.21 81.1996 247.71C82.3591 246.211 83.048 244.401 83.1789 242.51C83.3476 239.977 82.507 237.48 80.8408 235.565C79.1745 233.65 76.818 232.472 74.2861 232.288Z" fill="#E0E5E8"/>
<path d="M47.1731 229.299C45.6911 229.196 44.2121 229.536 42.9229 230.274C41.6337 231.011 40.5922 232.115 39.93 233.445C39.2677 234.774 39.0146 236.271 39.2024 237.744C39.3903 239.218 40.0107 240.602 40.9853 241.723C41.96 242.844 43.2451 243.651 44.6782 244.042C46.1113 244.433 47.6281 244.39 49.0369 243.919C50.4457 243.448 51.6833 242.57 52.5933 241.396C53.5033 240.222 54.0448 238.805 54.1494 237.323C54.2497 235.343 53.5791 233.401 52.2783 231.905C50.9776 230.409 49.1478 229.475 47.1731 229.299Z" fill="#E0E5E8"/>
<path d="M48.0674 236.786C39.5067 236.198 33.4504 240.951 33.1693 245.091C32.8882 249.231 38.5101 253.268 47.0452 253.856C55.5804 254.444 62.7356 251.556 63.0167 247.416C63.2978 243.277 56.577 237.374 48.0674 236.786Z" fill="#E0E5E8"/>
</svg>
