<svg width="221" height="220" viewBox="0 0 221 220" fill="none" xmlns="http://www.w3.org/2000/svg">
<path d="M77.942 136.333H72.7915V200.519H77.942V136.333Z" fill="#6A6A6A"/>
<path d="M132.185 136.333H127.23V200.519H132.185V136.333Z" fill="#6A6A6A"/>
<path d="M80.2883 128.347L77.6479 128.413L75.4639 82.7428L78.1369 82.645L80.2883 128.347Z" fill="#6A6A6A"/>
<path d="M126.741 128.413L124.101 128.347L126.187 82.645L128.827 82.7103L126.741 128.413Z" fill="#6A6A6A"/>
<path d="M131.272 136.334H72.2041C71.155 136.325 70.1518 135.902 69.413 135.157C68.6743 134.413 68.2597 133.406 68.2598 132.357C68.2597 131.308 68.6743 130.301 69.413 129.556C70.1518 128.811 71.155 128.388 72.2041 128.38H131.272C132.326 128.38 133.338 128.799 134.084 129.545C134.83 130.291 135.249 131.302 135.249 132.357C135.249 132.879 135.146 133.396 134.946 133.879C134.746 134.361 134.453 134.8 134.084 135.169C133.714 135.538 133.276 135.831 132.794 136.031C132.311 136.231 131.794 136.334 131.272 136.334Z" fill="#303030"/>
<path d="M127.751 71.8875H76.8659C73.8773 71.8875 71.4546 74.3102 71.4546 77.2987V90.1423C71.4546 93.1309 73.8773 95.5536 76.8659 95.5536H127.751C130.74 95.5536 133.163 93.1309 133.163 90.1423V77.2987C133.163 74.3102 130.74 71.8875 127.751 71.8875Z" fill="#303030"/>
<path d="M118.332 54.8572C115.887 58.117 117.549 63.3327 123.45 67.8964C129.35 72.4601 133.881 74.7746 135.446 75.883C137.01 76.9913 145.942 84.4562 148.485 86.0535C149.686 86.928 151.171 87.3224 152.648 87.1596C154.126 86.9968 155.489 86.2886 156.471 85.1734C158.069 83.0545 156.243 77.6433 152.657 73.6663C149.072 69.6894 124.916 46.447 118.332 54.8572Z" fill="#FFBD95"/>
<path d="M89.3942 49.451C91.8391 52.7108 90.1765 57.9265 84.2763 62.4902C78.3761 67.0539 73.845 69.3684 72.2803 70.4767C70.7156 71.585 61.8163 79.05 59.2411 80.6473C58.0395 81.5218 56.5546 81.9162 55.0774 81.7534C53.6002 81.5906 52.2369 80.8823 51.2546 79.7672C49.6573 77.6483 51.4828 72.237 55.0686 68.2601C58.6543 64.2831 82.8094 41.0407 89.3942 49.451Z" fill="#FFBD95"/>
<path d="M125.959 77.8851C129.936 67.8775 139.715 50.8614 134.695 47.5364C128.175 43.2009 108.877 39.7129 108.877 39.7129V40.0389C108.877 40.0389 89.3186 40.593 82.2449 44.1788C76.8988 46.9496 84.9178 65.7586 87.7865 76.1574C88.4185 83.8547 88.2985 91.5954 87.4279 99.2694C87.2323 101.649 85.4069 112.667 85.5047 117.263C85.5047 118.633 99.6521 127.89 104.085 128.347V128.151C108.551 128.151 124.883 120.621 125.046 119.252C125.103 113.212 124.853 107.174 124.296 101.16C124.17 93.3681 124.726 85.58 125.959 77.8851Z" fill="#FFBD95"/>
<path d="M117.157 37.0729C116.831 35.0192 116.245 25.0769 116.245 25.0769L109.725 24.7183V25.0769L103.206 24.7183C103.206 24.7183 101.543 34.4977 100.989 36.5188C100.435 38.5399 94.8931 41.2128 94.8931 41.2128L108.845 41.9626V41.6366L122.797 42.3864C122.797 42.3864 117.516 39.094 117.157 37.0729Z" fill="#FFBD95"/>
<path d="M116.864 34.2369C116.636 31.2053 116.375 26.8372 116.277 25.5007L115.886 25.0769L109.692 24.7183V25.0769L103.173 24.7183C103.173 24.7183 101.51 34.4977 100.956 36.5188C100.402 38.5399 94.8604 41.2128 94.8604 41.2128H95.5123L108.943 38.3768C111.702 37.2014 114.361 35.8061 116.897 34.2043L116.864 34.2369Z" fill="#FFA47C"/>
<path d="M90.4046 57.5027C88.5554 60.1584 86.1534 62.3825 83.3634 64.0223C78.7172 66.8431 74.2333 69.9231 69.9331 73.2476C68.3827 73.1382 66.8777 72.6759 65.5331 71.8963C64.1886 71.1167 63.0399 70.0402 62.1748 68.749C60.5308 66.632 59.1514 64.3222 58.0674 61.8708C58.0674 61.8708 77.8869 47.0062 79.3538 46.5498C80.8208 46.0934 86.558 52.2218 90.4046 57.5027Z" fill="#CEE0FF"/>
<path d="M122.34 17.3185C121.851 25.9895 114.81 34.2368 109.301 33.9435C103.792 33.6501 97.6964 24.6204 98.1853 15.9494C98.6743 7.27831 104.509 0.530527 111.225 0.921702C117.94 1.31288 122.96 8.58222 122.34 17.3185Z" fill="#FFBD95"/>
<path d="M98.0226 17.6113C96.9379 15.4841 96.4001 13.1202 96.4578 10.7332C97.41 8.35668 98.6236 6.09353 100.076 3.9854C102.547 2.19321 105.318 0.857366 108.258 0.0410264C110.079 -0.0683302 111.907 0.041131 113.702 0.367026C116.065 0.813808 118.197 2.07032 119.733 3.92019C120.417 5.55009 122.275 7.47339 122.83 8.77731C123.503 10.3792 123.943 12.07 124.133 13.7974C123.938 14.2863 122.862 18.1655 122.764 18.4589C122.564 18.8724 122.324 19.2655 122.047 19.6324C122.047 19.6324 119.244 11.1569 119.211 10.3746C119.179 9.59222 102.684 8.41871 101.608 8.90768C100.056 11.6487 98.8516 14.5724 98.0226 17.6113Z" fill="#8D3B26"/>
<path d="M91.7633 195.532L80.1258 194.358C76.7037 196.803 73.4375 199.46 70.3464 202.312C69.3244 203.22 68.536 204.36 68.048 205.637C67.56 206.913 67.3869 208.289 67.5431 209.647C67.5431 209.647 77.3224 212.222 81.5928 209.647C84.857 207.733 88.2313 206.013 91.6982 204.496L91.7633 195.532Z" fill="#FF9236"/>
<path d="M85.4393 105.202L75.6599 121.567L75.0405 129.553H103.955L125.567 128.869L129.544 122.219L123.97 105.202H85.4393Z" fill="#00233F"/>
<path d="M74.0625 125.707L76.9963 196.705H94.9904L96.6855 125.707C95.8659 123.143 94.2729 120.895 92.1251 119.273C89.9772 117.65 87.3799 116.732 84.6895 116.645C76.6052 116.645 74.0625 125.707 74.0625 125.707Z" fill="#002D56"/>
<path d="M84.6239 116.645C76.6048 116.645 73.9971 125.707 73.9971 125.707L76.9309 196.705H84.6239V116.645Z" fill="#00233F"/>
<path d="M114.289 196.607L125.926 195.433C129.357 197.868 132.623 200.525 135.706 203.387C136.689 204.304 137.441 205.441 137.9 206.705C138.359 207.968 138.512 209.322 138.346 210.657C138.346 210.657 128.567 213.232 124.296 210.657C121.037 208.724 117.662 206.993 114.191 205.473L114.289 196.607Z" fill="#FF9236"/>
<path d="M132.055 126.783L129.121 197.749H111.094L109.432 126.783C110.251 124.219 111.844 121.971 113.992 120.349C116.14 118.726 118.737 117.808 121.428 117.72C129.479 117.72 132.055 126.783 132.055 126.783Z" fill="#002D56"/>
<path d="M120.743 117.786C118.181 118.003 115.739 118.973 113.727 120.574C111.714 122.174 110.22 124.335 109.432 126.783L111.094 197.748H120.873L120.743 117.786Z" fill="#00233F"/>
<path d="M136.325 47.928C135.771 46.3307 130.881 44.9615 126.545 43.3968C122.797 41.9951 119.439 40.2999 119.439 40.2999L108.454 45.809L98.12 39.1265C95.6964 40.0292 93.2263 40.8018 90.7202 41.4409C86.2869 42.5492 81.3646 43.4294 80.5497 44.9289C79.7347 46.4284 85.8958 76.7445 86.613 79.3523C87.3301 81.9602 83.6465 100.28 85.6024 105.724L105.161 106.669L124.296 106.213C126.35 100.215 125.502 83.6552 126.513 81.1452C127.523 78.6351 137.922 52.3613 136.325 47.928Z" fill="#CEE0FF"/>
<path d="M109.595 104.746C107.802 103.54 105.064 102.334 103.434 101.258C101.804 100.182 103.434 96.6618 103.434 94.7385C103.434 92.8152 108.617 89.588 112.105 88.3819C115.593 87.1757 121.526 87.8277 122.992 85.4481C124.459 83.0684 120.808 80.6888 119.178 80.6562C117.549 80.6236 107.345 77.3964 105.715 77.5594C104.086 77.7224 91.894 78.7003 90.0033 77.1682C88.1127 75.6361 79.083 47.2759 79.083 47.2759C81.0063 56.7619 86.1241 77.3638 86.6457 79.0263C87.4606 81.5689 83.3859 100.313 85.57 105.691L106.302 107.126L124.199 106.148C124.199 106.148 121.558 105.398 119.83 104.844C118.103 104.29 111.42 105.92 109.595 104.746Z" fill="#B8D1FF"/>
<path d="M88.0908 87.1017C90.3075 88.1449 92.6544 87.9167 93.5346 89.514C94.5705 92.5314 95.409 95.613 96.0447 98.7392C96.5915 100.031 97.5712 101.091 98.8154 101.738C100.445 102.39 101.652 102.651 101.717 103.466C101.782 104.281 96.4358 102.977 95.4579 101.999C94.4799 101.021 86.8521 92.2196 86.8521 92.2196L88.0908 87.1017Z" fill="#FFBD95"/>
<path d="M156.504 79.6326C155.037 76.764 152.299 75.1667 143.921 78.8828C135.543 82.599 117.256 93.715 117.256 93.715L119.603 98.3765C119.603 98.3765 137.923 94.8559 142.421 93.0304C146.92 91.2049 160.253 87.3258 156.504 79.6326Z" fill="#FFBD95"/>
<path d="M117.418 62.9089C119.268 65.5647 121.67 67.7888 124.46 69.4285C129.106 72.2493 133.59 75.3293 137.89 78.6538C139.44 78.5444 140.945 78.0822 142.29 77.3026C143.635 76.5229 144.783 75.4465 145.648 74.1553C147.292 72.0383 148.672 69.7284 149.756 67.2771C149.756 67.2771 126.937 50.261 125.405 49.8046C123.873 49.3482 117.875 57.4651 117.418 62.9089Z" fill="#CEE0FF"/>
<path d="M119.635 92.5087C117.419 93.5519 115.072 93.3237 114.192 94.921C113.156 97.9384 112.317 101.02 111.681 104.146C111.135 105.438 110.155 106.498 108.911 107.145C107.281 107.797 106.075 108.058 106.009 108.873C105.944 109.688 111.29 108.384 112.268 107.406C113.246 106.428 120.874 97.6266 120.874 97.6266L119.635 92.5087Z" fill="#FFBD95"/>
<path d="M8.80127 96.1077L8.80127 218.611H16.3314L16.3314 96.1077H8.80127Z" fill="#79858E"/>
<path d="M203.933 96.7595V219.263H211.463V96.7595H203.933Z" fill="#79858E"/>
<path d="M209.866 95.5862H10.3335V112.113H209.866V95.5862Z" fill="#79858E"/>
<g style="mix-blend-mode:multiply">
<path d="M211.495 106.8L8.80127 108.43V102.953L211.495 103.019V106.8Z" fill="#B9B9BD"/>
</g>
<path d="M220.558 93.1414H0V103.377H220.558V93.1414Z" fill="#99A2A9"/>
<path d="M150.928 36.4531H89.5464V79.4824H150.928V36.4531Z" fill="#303030"/>
<path d="M128.86 51.2527H114.908V92.6521H128.86V51.2527Z" fill="#424242"/>
<path d="M89.5464 36.4531L114.908 51.2526H128.86L150.928 36.4531H89.5464Z" fill="#424242"/>
<path d="M89.5464 79.0912L114.712 68.3339L114.908 51.2526L89.5464 36.4531V79.0912Z" fill="#222222"/>
<path d="M150.929 36.4531L128.599 51.2526L128.86 67.3886L150.929 79.4824L130.783 66.2476L131.077 52.6543L150.929 36.4531Z" fill="#222222"/>
<path d="M136.325 90.5662H110.475V93.174H136.325V90.5662Z" fill="#424242"/>
<path d="M51.2869 74.2257C52.7212 71.357 55.4595 69.7597 63.8372 73.4759C72.2148 77.192 90.5349 88.308 90.5349 88.308L88.1552 92.9695C88.1552 92.9695 69.8352 89.4489 65.3366 87.6234C60.8381 85.7979 47.4078 81.9188 51.2869 74.2257Z" fill="#FFBD95"/>
</svg>
