<svg width="22" height="22" viewBox="0 0 22 22" fill="none" xmlns="http://www.w3.org/2000/svg">
<path d="M22 11.0002C22 4.92446 17.0758 0.000244141 11 0.000244141C4.92422 0.000244141 0 4.92446 0 11.0002C0 16.4916 4.02187 21.042 9.28125 21.867V14.1799H6.48828V11.0002H9.28125V8.57681C9.28125 5.82036 10.9227 4.29712 13.4363 4.29712C14.6395 4.29712 15.8984 4.51196 15.8984 4.51196V7.21899H14.5105C13.1441 7.21899 12.7188 8.06763 12.7188 8.93774V11.0002H15.7695L15.2818 14.1799H12.7188V21.867C17.9781 21.042 22 16.4916 22 11.0002Z" fill="url(#paint0_linear)"/>
<path d="M15.2818 14.1799L15.7695 11.0002H12.7188V8.93774C12.7188 8.06763 13.1441 7.21899 14.5105 7.21899H15.8984V4.51196C15.8984 4.51196 14.6395 4.29712 13.4363 4.29712C10.9227 4.29712 9.28125 5.82036 9.28125 8.57681V11.0002H6.48828V14.1799H9.28125V21.867C9.84199 21.9551 10.4156 22.0002 11 22.0002C11.5844 22.0002 12.158 21.9551 12.7188 21.867V14.1799H15.2818Z" fill="white"/>
<defs>
<linearGradient id="paint0_linear" x1="20.7059" y1="14.3502" x2="-4.11701" y2="13.8122" gradientUnits="userSpaceOnUse">
<stop stop-color="#FA6214"/>
<stop offset="1" stop-color="#31EFEF"/>
</linearGradient>
</defs>
</svg>
