<svg width="97" height="67" viewBox="0 0 97 67" fill="none" xmlns="http://www.w3.org/2000/svg">
<path d="M14.6174 0L0.697266 0.0874106C11.6017 12.4997 32.5365 34.5926 32.5365 34.5926C32.5365 34.5926 32.4709 49.9113 32.4709 57.2975C35.9018 57.2975 39.7697 57.2975 43.1787 57.2975C43.1787 48.2068 43.1787 30.0036 43.1787 30.0036C43.1787 30.0036 25.0847 11.3415 14.6174 0Z" fill="#32EDF4"/>
<path d="M47.6802 34.2867V30.1347L53.0778 23.9286H58.1694L80.6339 1.66083H96.1055L68.462 29.6103L96.1055 57.3412H81.0491L57.8198 34.2867H47.6802Z" fill="#FB6312"/>
<path d="M73.9251 0L47.6802 30.1347V14.532L60.5295 0H73.9251Z" fill="#31EFEE"/>
<path d="M37.0819 61.0998V61.821H35.3556V66.9126H34.5907V61.821H32.8862V61.0998H37.0819Z" fill="white"/>
<path d="M39.5734 66.1696H42.2832V66.8907H38.8086V61.0779H42.2394V61.7991H39.5734V63.591H42.0209V64.3121H39.5734V66.1696Z" fill="white"/>
<path d="M46.85 67C45.9759 67 45.2329 66.7159 44.6647 66.1259C44.0966 65.5359 43.8125 64.8366 43.8125 63.9843C43.8125 63.1321 44.0966 62.4328 44.6647 61.8428C45.2329 61.2528 45.954 60.9687 46.85 60.9687C47.3745 60.9687 47.8771 61.0998 48.3141 61.3402C48.7512 61.6024 49.1008 61.9302 49.363 62.3673L48.6856 62.7606C48.5108 62.4328 48.2704 62.1924 47.9426 61.9958C47.6148 61.7991 47.2433 61.7117 46.85 61.7117C46.1726 61.7117 45.6263 61.9302 45.2111 62.3673C44.7959 62.8043 44.5773 63.3288 44.5773 63.9843C44.5773 64.6181 44.7959 65.1644 45.2111 65.6014C45.6263 66.0385 46.1726 66.257 46.85 66.257C47.2433 66.257 47.6148 66.1696 47.9426 65.9729C48.2704 65.7763 48.5108 65.5359 48.6856 65.2081L49.363 65.5796C49.1227 66.0166 48.773 66.3663 48.3141 66.6067C47.8771 66.8907 47.3963 67 46.85 67Z" fill="white"/>
<path d="M54.8045 61.0998H55.5694V66.9126H54.8045V64.2903H51.9855V66.9126H51.2207V61.0998H51.9855V63.5692H54.8045V61.0998Z" fill="white"/>
<path d="M61.3819 61.0998H62.1468V66.9126H61.513L58.5192 62.5639V66.9126H57.7544V61.0998H58.3881L61.3819 65.4266V61.0998Z" fill="white"/>
<path d="M69.2051 66.1259C68.615 66.7159 67.9158 67 67.0635 67C66.2113 67 65.512 66.7159 64.922 66.1259C64.3319 65.5359 64.0479 64.8366 64.0479 63.9843C64.0479 63.1321 64.3319 62.4328 64.922 61.8428C65.512 61.2528 66.2113 60.9687 67.0635 60.9687C67.9158 60.9687 68.615 61.2528 69.2051 61.8428C69.7951 62.4328 70.0792 63.1321 70.0792 63.9843C70.0792 64.8366 69.7951 65.5359 69.2051 66.1259ZM65.4683 65.6014C65.9053 66.0385 66.4298 66.257 67.0635 66.257C67.6972 66.257 68.2436 66.0385 68.6587 65.6014C69.0958 65.1644 69.2925 64.6399 69.2925 63.9843C69.2925 63.3506 69.0739 62.8043 68.6587 62.3673C68.2217 61.9302 67.6972 61.7117 67.0635 61.7117C66.4298 61.7117 65.8835 61.9302 65.4683 62.3673C65.0312 62.8043 64.8345 63.3506 64.8345 63.9843C64.8127 64.6399 65.0312 65.1644 65.4683 65.6014Z" fill="white"/>
<path d="M72.7453 66.1696H75.2584V66.8907H71.9805V61.0779H72.7453V66.1696Z" fill="white"/>
<path d="M81.4209 66.1259C80.8309 66.7159 80.1316 67 79.2793 67C78.4271 67 77.7278 66.7159 77.1378 66.1259C76.5478 65.5359 76.2637 64.8366 76.2637 63.9843C76.2637 63.1321 76.5478 62.4328 77.1378 61.8428C77.7278 61.2528 78.4271 60.9687 79.2793 60.9687C80.1316 60.9687 80.8309 61.2528 81.4209 61.8428C82.0109 62.4328 82.295 63.1321 82.295 63.9843C82.295 64.8366 82.0109 65.5359 81.4209 66.1259ZM77.6841 65.6014C78.1211 66.0385 78.6456 66.257 79.2793 66.257C79.9131 66.257 80.4594 66.0385 80.8746 65.6014C81.3116 65.1644 81.5083 64.6399 81.5083 63.9843C81.5083 63.3506 81.2898 62.8043 80.8746 62.3673C80.4375 61.9302 79.9131 61.7117 79.2793 61.7117C78.6456 61.7117 78.0993 61.9302 77.6841 62.3673C77.247 62.8043 77.0504 63.3506 77.0504 63.9843C77.0504 64.6399 77.2689 65.1644 77.6841 65.6014Z" fill="white"/>
<path d="M89.7901 64.028V64.3777C89.7901 65.1425 89.5279 65.7763 89.0034 66.257C88.4789 66.7596 87.8015 67 86.9274 67C86.0314 67 85.3103 66.7159 84.7203 66.1259C84.1521 65.5359 83.8462 64.8366 83.8462 63.9843C83.8462 63.1321 84.1303 62.4328 84.7203 61.8428C85.2885 61.2528 86.0315 60.9687 86.9056 60.9687C87.4519 60.9687 87.9326 61.0998 88.3915 61.362C88.8504 61.6243 89.1782 61.9521 89.4405 62.3891L88.7849 62.7825C88.6101 62.4765 88.3697 62.2143 88.0419 62.0176C87.7141 61.8209 87.3426 61.7335 86.9274 61.7335C86.2718 61.7335 85.7255 61.9521 85.2885 62.3891C84.8514 62.8262 84.6547 63.3725 84.6547 64.0062C84.6547 64.6399 84.8733 65.1862 85.2885 65.6233C85.7255 66.0603 86.2718 66.2789 86.9493 66.2789C87.5393 66.2789 87.9982 66.1259 88.3697 65.8418C88.7193 65.5577 88.9378 65.1862 89.0253 64.7273H86.8837V64.028H89.7901Z" fill="white"/>
<path d="M95.603 61.0998L93.5488 64.5525V66.9126H92.7621V64.5525L90.708 61.0998H91.5821L93.1555 63.8314L94.7289 61.0998H95.603Z" fill="white"/>
</svg>
