<svg width="37" height="37" viewBox="0 0 37 37" fill="none" xmlns="http://www.w3.org/2000/svg">
<path d="M18.5 9.25L16.8466 10.8607L23.2984 17.3438H9.25V19.6562H23.2984L16.8466 26.1L18.5 27.75L27.75 18.5L18.5 9.25Z" fill="white"/>
<path d="M18.5 34.6875C15.2984 34.6875 12.1687 33.7381 9.50671 31.9594C6.84469 30.1807 4.7699 27.6526 3.54471 24.6947C2.31951 21.7368 1.99895 18.482 2.62355 15.342C3.24814 12.2019 4.78985 9.31757 7.05372 7.05371C9.31758 4.78985 12.2019 3.24814 15.342 2.62354C18.482 1.99894 21.7368 2.31951 24.6947 3.5447C27.6526 4.76989 30.1807 6.84469 31.9594 9.50671C33.7381 12.1687 34.6875 15.2984 34.6875 18.5C34.6826 22.7917 32.9756 26.9062 29.9409 29.9409C26.9062 32.9756 22.7917 34.6826 18.5 34.6875ZM18.5 4.625C15.7558 4.625 13.0732 5.43875 10.7915 6.96336C8.50974 8.48796 6.73134 10.6549 5.68118 13.1903C4.63101 15.7256 4.35624 18.5154 4.89161 21.2069C5.42698 23.8984 6.74845 26.3706 8.6889 28.3111C10.6294 30.2516 13.1016 31.573 15.7931 32.1084C18.4846 32.6438 21.2744 32.369 23.8097 31.3188C26.3451 30.2687 28.512 28.4903 30.0366 26.2085C31.5612 23.9268 32.375 21.2442 32.375 18.5C32.3707 14.8214 30.9075 11.2948 28.3064 8.69362C25.7052 6.09248 22.1786 4.62928 18.5 4.625Z" fill="white"/>
</svg>
