<svg width="36" height="40" viewBox="0 0 36 40" fill="none" xmlns="http://www.w3.org/2000/svg">
<path fill-rule="evenodd" clip-rule="evenodd" d="M31.1565 0.804656C30.7402 2.05426 30.7985 2.00872 29.5441 2.06178L28.5003 2.10591L29.1217 2.56753C29.9672 3.19571 30.1742 3.3987 30.1742 3.60004C30.1742 3.74284 30.0445 4.20854 29.654 5.46731C29.6231 5.56693 29.8906 5.41958 30.472 5.01666C30.9471 4.68733 31.402 4.41796 31.4827 4.41796C31.5635 4.41796 32.0075 4.68122 32.4694 5.00302C32.9313 5.32475 33.3092 5.56528 33.3092 5.53738C33.3092 5.50956 33.1828 5.07152 33.0284 4.56405C32.874 4.05657 32.7599 3.57802 32.7747 3.50066C32.7896 3.42323 33.1795 3.07297 33.6411 2.72232L34.4806 2.08475L33.4343 2.05418C32.7314 2.03365 32.3478 1.99023 32.2653 1.92181C32.1978 1.86577 32.0128 1.42577 31.854 0.944084C31.6953 0.462316 31.5385 0.0386232 31.5055 0.00249249C31.4727 -0.0336382 31.3156 0.327355 31.1565 0.804656ZM17.4531 10.8747C17.2934 11.3599 17.113 11.8251 17.0523 11.9082C16.9552 12.0411 16.8119 12.0643 15.8718 12.0987L14.8017 12.1378L15.5991 12.7257C16.0376 13.049 16.426 13.3896 16.4621 13.4827C16.5083 13.602 16.4391 13.9446 16.2277 14.642L15.9277 15.632L16.1343 15.4971C16.2481 15.423 16.6377 15.1571 17.0001 14.9061C17.3626 14.6552 17.7185 14.4499 17.791 14.4499C17.8635 14.4499 18.2194 14.6552 18.5819 14.9061C18.9444 15.1571 19.334 15.423 19.4477 15.4971L19.6544 15.632L19.3544 14.642C19.143 13.9446 19.0737 13.602 19.1199 13.4827C19.1561 13.3896 19.5444 13.049 19.983 12.7257L20.7804 12.1378L19.7103 12.0986C18.7782 12.0644 18.6264 12.0402 18.532 11.911C18.4723 11.8294 18.296 11.3801 18.1403 10.9126C17.9844 10.445 17.8315 10.0467 17.8003 10.0275C17.769 10.0082 17.6128 10.3894 17.4531 10.8747ZM27.3527 26.3236V40H31.4674H35.582V26.3236V12.6473H31.4674H27.3527V26.3236ZM3.76762 17.2644C3.58281 17.7887 3.3799 18.2692 3.31681 18.3323C3.22856 18.4206 2.97917 18.447 2.23273 18.447C1.69947 18.447 1.24514 18.4763 1.22303 18.5121C1.20093 18.5479 1.53528 18.8382 1.96603 19.1573C2.40234 19.4805 2.76772 19.811 2.79092 19.9034C2.8138 19.9946 2.70627 20.4857 2.55195 20.9946C2.39763 21.5037 2.2854 21.9342 2.30257 21.9513C2.31965 21.9684 2.68668 21.7336 3.11805 21.4295C3.61565 21.0787 3.97884 20.8766 4.11153 20.8766C4.24469 20.8766 4.60529 21.0785 5.10493 21.4328C5.5363 21.7386 5.90066 21.9767 5.91461 21.9618C5.92849 21.9468 5.82103 21.5467 5.67573 21.0725C5.5305 20.5984 5.41074 20.1166 5.40972 20.002C5.40816 19.8284 5.54539 19.6888 6.22764 19.1693C6.67845 18.826 7.02526 18.5231 6.9983 18.4961C6.97134 18.4691 6.521 18.447 5.99753 18.447C5.35753 18.447 5.00359 18.4149 4.91651 18.349C4.84535 18.2952 4.63335 17.8146 4.4454 17.2812L4.10377 16.3112L3.76762 17.2644ZM32.7158 18.2566C32.8261 18.367 32.8389 19.2046 32.8389 26.3035C32.8389 33.5665 32.8281 34.2391 32.7092 34.3704C32.554 34.542 32.2985 34.5552 32.0898 34.4026C31.9409 34.2937 31.9376 34.1205 31.9376 26.342C31.9376 19.7196 31.9556 18.3711 32.0452 18.2631C32.1814 18.099 32.5546 18.0955 32.7158 18.2566ZM13.7155 31.3396V40H17.791H21.8665V31.3396V22.6792H17.791H13.7155V31.3396ZM0 34.5138V40H4.11466H8.22933V34.5138V29.0276H4.11466H0V34.5138Z" fill="url(#paint0_linear)"/>
<defs>
<linearGradient id="paint0_linear" x1="33.489" y1="26.2498" x2="-6.66282" y2="25.4803" gradientUnits="userSpaceOnUse">
<stop stop-color="#FA6214"/>
<stop offset="1" stop-color="#31EFEF"/>
</linearGradient>
</defs>
</svg>
