<svg width="48" height="40" viewBox="0 0 48 40" fill="none" xmlns="http://www.w3.org/2000/svg">
<path fill-rule="evenodd" clip-rule="evenodd" d="M12.0713 0.161094C11.8571 0.255391 11.6475 0.435078 11.5323 0.623281C11.3586 0.907109 11.3438 1.08195 11.3438 2.84844V4.76562H9.09C7.01625 4.76562 6.80672 4.7782 6.46631 4.92289C6.22809 5.02414 6.02897 5.19008 5.90747 5.38859C5.73384 5.67227 5.71875 5.84687 5.71875 7.575V9.45312H3.41812C1.29741 9.45312 1.08862 9.46539 0.747563 9.61039C0.331594 9.78727 0 10.2373 0 10.625C0 11.0127 0.331594 11.4627 0.747563 11.6396C1.08862 11.7846 1.29741 11.7969 3.41812 11.7969H5.71875V12.9688V14.1406H3.41812C1.29741 14.1406 1.08862 14.1529 0.747563 14.2979C0.331594 14.4748 0 14.9248 0 15.3125C0 15.7002 0.331594 16.1502 0.747563 16.3271C1.08862 16.4721 1.29741 16.4844 3.41812 16.4844H5.71875V17.6562V18.8281H3.41812C1.29741 18.8281 1.08862 18.8404 0.747563 18.9854C0.331594 19.1623 0 19.6123 0 20C0 20.3877 0.331594 20.8377 0.747563 21.0146C1.08862 21.1596 1.29741 21.1719 3.41812 21.1719H5.71875V22.3438V23.5156H3.41812C1.29741 23.5156 1.08862 23.5279 0.747563 23.6729C0.331594 23.8498 0 24.2998 0 24.6875C0 25.0752 0.331594 25.5252 0.747563 25.7021C1.08862 25.8471 1.29741 25.8594 3.41812 25.8594H5.71875V27.0312V28.2031H3.41812C1.29741 28.2031 1.08862 28.2154 0.747563 28.3604C0.331594 28.5373 0 28.9873 0 29.375C0 29.7627 0.331594 30.2127 0.747563 30.3896C1.08862 30.5346 1.29741 30.5469 3.41812 30.5469H5.71875V32.425C5.71875 34.1531 5.73384 34.3277 5.90747 34.6114C6.02897 34.8099 6.22809 34.9759 6.46631 35.0771C6.80672 35.2218 7.01625 35.2344 9.09 35.2344H11.3438V37.1516C11.3438 38.9188 11.3585 39.0928 11.5325 39.377C11.7447 39.7237 12.2848 40 12.75 40C13.2152 40 13.7553 39.7237 13.9675 39.377C14.1415 39.0928 14.1562 38.9188 14.1562 37.1516V35.2344H15.5625H16.9688V37.1516C16.9688 38.9188 16.9835 39.0928 17.1575 39.377C17.3697 39.7237 17.9098 40 18.375 40C18.8402 40 19.3803 39.7237 19.5925 39.377C19.7665 39.0928 19.7812 38.9188 19.7812 37.1516V35.2344H21.1875H22.5938V37.1516C22.5938 38.9188 22.6085 39.0928 22.7825 39.377C22.9947 39.7237 23.5348 40 24 40C24.4652 40 25.0053 39.7237 25.2175 39.377C25.3915 39.0928 25.4062 38.9188 25.4062 37.1516V35.2344H26.8125H28.2188V37.1516C28.2188 38.9188 28.2335 39.0928 28.4075 39.377C28.6197 39.7237 29.1598 40 29.625 40C30.0902 40 30.6303 39.7237 30.8425 39.377C31.0165 39.0928 31.0312 38.9188 31.0312 37.1516V35.2344H32.4375H33.8438V37.1516C33.8438 38.9188 33.8585 39.0928 34.0325 39.377C34.2447 39.7237 34.7848 40 35.25 40C35.7152 40 36.2553 39.7237 36.4675 39.377C36.6415 39.0928 36.6562 38.9188 36.6562 37.1516V35.2344H38.91C40.9837 35.2344 41.1933 35.2218 41.5337 35.0771C41.7719 34.9759 41.971 34.8099 42.0925 34.6114C42.2662 34.3277 42.2812 34.1531 42.2812 32.425V30.5469H44.5819C46.7026 30.5469 46.9114 30.5346 47.2524 30.3896C47.6684 30.2127 48 29.7627 48 29.375C48 28.9873 47.6684 28.5373 47.2524 28.3604C46.9114 28.2154 46.7026 28.2031 44.5819 28.2031H42.2812V27.0312V25.8594H44.5819C46.7026 25.8594 46.9114 25.8471 47.2524 25.7021C47.6684 25.5252 48 25.0752 48 24.6875C48 24.2998 47.6684 23.8498 47.2524 23.6729C46.9114 23.5279 46.7026 23.5156 44.5819 23.5156H42.2812V22.3438V21.1719H44.5819C46.7026 21.1719 46.9114 21.1596 47.2524 21.0146C47.6684 20.8377 48 20.3877 48 20C48 19.6123 47.6684 19.1623 47.2524 18.9854C46.9114 18.8404 46.7026 18.8281 44.5819 18.8281H42.2812V17.6562V16.4844H44.5819C46.7026 16.4844 46.9114 16.4721 47.2524 16.3271C47.6684 16.1502 48 15.7002 48 15.3125C48 14.9248 47.6684 14.4748 47.2524 14.2979C46.9114 14.1529 46.7026 14.1406 44.5819 14.1406H42.2812V12.9688V11.7969H44.5819C46.7026 11.7969 46.9114 11.7846 47.2524 11.6396C47.6684 11.4627 48 11.0127 48 10.625C48 10.2373 47.6684 9.78727 47.2524 9.61039C46.9114 9.46539 46.7026 9.45312 44.5819 9.45312H42.2812V7.575C42.2812 5.84687 42.2662 5.67227 42.0925 5.38859C41.971 5.19008 41.7719 5.02414 41.5337 4.92289C41.1933 4.7782 40.9837 4.76562 38.91 4.76562H36.6562V2.84844C36.6562 1.08117 36.6415 0.907188 36.4675 0.622969C36.2553 0.276328 35.7152 0 35.25 0C34.7848 0 34.2447 0.276328 34.0325 0.622969C33.8585 0.907188 33.8438 1.08117 33.8438 2.84844V4.76562H32.4375H31.0312V2.84844C31.0312 1.08117 31.0165 0.907188 30.8425 0.622969C30.6303 0.276328 30.0902 0 29.625 0C29.1598 0 28.6197 0.276328 28.4075 0.622969C28.2335 0.907188 28.2188 1.08117 28.2188 2.84844V4.76562H26.8125H25.4062V2.84844C25.4062 1.08117 25.3915 0.907188 25.2175 0.622969C25.0053 0.276328 24.4652 0 24 0C23.5348 0 22.9947 0.276328 22.7825 0.622969C22.6085 0.907188 22.5938 1.08117 22.5938 2.84844V4.76562H21.1875H19.7812V2.84844C19.7812 1.08117 19.7665 0.907188 19.5925 0.622969C19.3803 0.276328 18.8402 0 18.375 0C17.9098 0 17.3697 0.276328 17.1575 0.622969C16.9835 0.907188 16.9688 1.08117 16.9688 2.84844V4.76562H15.5625H14.1562V2.84844C14.1562 1.08117 14.1415 0.907188 13.9675 0.622969C13.6216 0.0578906 12.7747 -0.148359 12.0713 0.161094ZM35.8873 9.60133C36.0919 9.68828 36.3227 9.87828 36.4461 10.0612L36.6562 10.3728V19.9942C36.6562 29.4829 36.6536 29.6198 36.4675 29.9239C36.346 30.1224 36.1469 30.2884 35.9087 30.3896C35.5438 30.5447 35.3795 30.5469 23.9931 30.5469H12.4474L12.0734 30.3717C11.8539 30.2689 11.6259 30.0766 11.5216 29.9061C11.3498 29.6254 11.3438 29.2902 11.3477 19.9836C11.3521 9.15656 11.2928 10.0234 12.0556 9.63867L12.4219 9.45391L23.9803 9.45352C35.1446 9.45312 35.5506 9.4582 35.8873 9.60133ZM14.1562 17.6562V23.5156H16.41C18.4378 23.5156 18.6986 23.5305 19.0123 23.6638C19.4167 23.8357 19.7812 24.3184 19.7812 24.6817C19.7812 25.0747 19.4519 25.5243 19.0337 25.7021C18.6933 25.8468 18.4837 25.8594 16.41 25.8594H14.1562V27.0312V28.2031H18.375H22.5938L22.5953 25.1367C22.5968 22.1069 22.5994 22.0666 22.8068 21.7578C23.0046 21.4637 23.2007 21.3684 26.1396 20.1367C29.5316 18.7152 29.6464 18.6841 30.3184 19.0052C31.0045 19.333 31.2143 19.9957 30.8188 20.5859C30.6236 20.8772 30.4327 20.9727 28.0084 21.9922L25.4075 23.0859L25.4068 25.6445L25.4062 28.2031H26.8125H28.2188V26.325C28.2188 24.6352 28.2366 24.4178 28.3966 24.1564C28.6028 23.8195 29.182 23.5156 29.6181 23.5156C30.0896 23.5156 30.6292 23.7901 30.8425 24.1386C31.0162 24.4223 31.0312 24.5969 31.0312 26.325V28.2031H32.4375H33.8438V22.3438V16.4844H31.5831C29.4147 16.4844 29.3071 16.4772 28.9484 16.3092C27.9995 15.8648 27.9995 14.7602 28.9484 14.3158C29.3071 14.1478 29.4147 14.1406 31.5831 14.1406H33.8438V12.9688V11.7969H29.625H25.4062L25.4048 14.8633C25.4032 17.89 25.4004 17.9338 25.1938 18.2422C24.9967 18.5363 24.8011 18.6316 21.8665 19.8633C18.4752 21.2866 18.3585 21.3182 17.6816 20.9948C16.9955 20.667 16.7858 20.0043 17.1812 19.4141C17.3775 19.1212 17.5541 19.0341 19.9922 18.028L22.5938 16.9545V14.3757V11.7969H21.1875H19.7812V13.675C19.7812 15.4031 19.7662 15.5777 19.5925 15.8614C19.3792 16.2099 18.8396 16.4844 18.3681 16.4844C17.932 16.4844 17.3528 16.1805 17.1466 15.8436C16.9866 15.5822 16.9688 15.3648 16.9688 13.675V11.7969H15.5625H14.1562V17.6562Z" fill="url(#paint0_linear)"/>
<defs>
<linearGradient id="paint0_linear" x1="45.1765" y1="26.2498" x2="-8.97182" y2="24.85" gradientUnits="userSpaceOnUse">
<stop stop-color="#FA6214"/>
<stop offset="1" stop-color="#31EFEF"/>
</linearGradient>
</defs>
</svg>
