<svg width="40" height="40" viewBox="0 0 40 40" fill="none" xmlns="http://www.w3.org/2000/svg">
<g clip-path="url(#clip0)">
<path d="M24.6113 22.7403C24.2885 22.1703 23.6841 21.818 23.0291 21.818H20.18L22.1641 18.5113C22.6807 17.6501 22.4016 16.5335 21.5406 16.0169C20.6796 15.5002 19.5627 15.7793 19.0462 16.6403L15.41 22.7006C15.073 23.2622 15.0641 23.9617 15.3869 24.5317C15.7096 25.1017 16.314 25.454 16.969 25.454H19.8181L17.834 28.7607C17.3174 29.6219 17.5966 30.7385 18.4576 31.2551C18.7504 31.4309 19.0728 31.5145 19.3913 31.5145C20.0088 31.5145 20.611 31.1997 20.952 30.6316L24.5882 24.5714C24.925 24.0098 24.934 23.3103 24.6113 22.7403Z" fill="url(#paint0_linear)"/>
<path d="M39.7088 34.7576L21.5732 3.34595C21.2486 2.78345 20.6483 2.43689 19.9988 2.43689C19.3493 2.43689 18.749 2.78337 18.4243 3.34595L0.243633 34.836C-0.0812109 35.3985 -0.0812109 36.0916 0.243633 36.6541C0.56832 37.2166 1.16855 37.5631 1.81809 37.5631H38.1795C38.1802 37.5631 38.1811 37.5631 38.1819 37.5631C39.186 37.5631 40 36.7492 40 35.7451C40 35.3809 39.893 35.0418 39.7088 34.7576ZM4.96715 33.927V33.9268L19.9989 7.89103L35.0305 33.927H4.96715Z" fill="url(#paint1_linear)"/>
</g>
<defs>
<linearGradient id="paint0_linear" x1="24.2768" y1="26.0979" x2="13.3331" y2="25.9528" gradientUnits="userSpaceOnUse">
<stop stop-color="#FA6214"/>
<stop offset="1" stop-color="#31EFEF"/>
</linearGradient>
<linearGradient id="paint1_linear" x1="37.647" y1="25.4883" x2="-7.47951" y2="24.3813" gradientUnits="userSpaceOnUse">
<stop stop-color="#FA6214"/>
<stop offset="1" stop-color="#31EFEF"/>
</linearGradient>
<clipPath id="clip0">
<rect width="40" height="40" fill="white"/>
</clipPath>
</defs>
</svg>
