<svg width="40" height="40" viewBox="0 0 40 40" fill="none" xmlns="http://www.w3.org/2000/svg">
<path d="M10.5557 10.5555V29.4444H29.4446V10.5555H10.5557ZM26.1112 26.1111H13.889V13.8889H26.1112V26.1111Z" fill="url(#paint0_linear)"/>
<path d="M40 13.8889V10.5555H36.1111V8.88891C36.1111 6.13188 33.8681 3.88891 31.1111 3.88891H29.4445V0H26.1111V3.88891H21.6666V0H18.3333V3.88891H13.8888V0H10.5555V3.88891H8.88883C6.1318 3.88891 3.88883 6.13188 3.88883 8.88891V10.5555H0V13.8889H3.88891V18.3334H0V21.6667H3.88891V26.1112H0V29.4445H3.88891V31.1112C3.88891 33.8682 6.13188 36.1112 8.88891 36.1112H10.5555V40H13.8889V36.1111H18.3334V40H21.6667V36.1111H26.1112V40H29.4445V36.1111H31.1112C33.8682 36.1111 36.1112 33.8681 36.1112 31.1111V29.4445H40V26.1111H36.1111V21.6666H40V18.3333H36.1111V13.8888H40V13.8889ZM32.7778 31.1111C32.7778 32.0301 32.0302 32.7777 31.1112 32.7777H8.88891C7.96992 32.7777 7.22227 32.0301 7.22227 31.1111V8.88891C7.22227 7.96992 7.96992 7.22227 8.88891 7.22227H31.1111C32.0301 7.22227 32.7777 7.96992 32.7777 8.88891V31.1111H32.7778Z" fill="url(#paint1_linear)"/>
<defs>
<linearGradient id="paint0_linear" x1="28.3335" y1="22.9513" x2="7.02073" y2="22.4922" gradientUnits="userSpaceOnUse">
<stop stop-color="#FA6214"/>
<stop offset="1" stop-color="#31EFEF"/>
</linearGradient>
<linearGradient id="paint1_linear" x1="37.6471" y1="26.2498" x2="-7.48573" y2="25.2775" gradientUnits="userSpaceOnUse">
<stop stop-color="#FA6214"/>
<stop offset="1" stop-color="#31EFEF"/>
</linearGradient>
</defs>
</svg>
