<svg width="40" height="40" viewBox="0 0 40 40" fill="none" xmlns="http://www.w3.org/2000/svg">
<path d="M35 20H5C4.83424 20 4.67527 20.0658 4.55806 20.1831C4.44085 20.3003 4.375 20.4592 4.375 20.625V21.25H7.5V22.5H4.375V23.75H7.5V25H4.375V26.25H7.5V27.5H4.375V28.125C4.375 28.2908 4.44085 28.4497 4.55806 28.5669C4.67527 28.6842 4.83424 28.75 5 28.75H12.5V23.125C12.5 22.9592 12.5658 22.8003 12.6831 22.6831C12.8003 22.5658 12.9592 22.5 13.125 22.5H13.75V21.25H15V22.5H17.5V21.25H18.75V22.5H21.25V21.25H22.5V22.5H25V21.25H26.25V22.5H26.875C27.0408 22.5 27.1997 22.5658 27.3169 22.6831C27.4342 22.8003 27.5 22.9592 27.5 23.125V28.75H35C35.1658 28.75 35.3247 28.6842 35.4419 28.5669C35.5592 28.4497 35.625 28.2908 35.625 28.125V27.5H32.5V26.25H35.625V25H32.5V23.75H35.625V22.5H32.5V21.25H35.625V20.625C35.625 20.4592 35.5592 20.3003 35.4419 20.1831C35.3247 20.0658 35.1658 20 35 20Z" fill="url(#paint0_linear)"/>
<path d="M34.85 9.98125C34.7403 9.95288 34.6407 9.89443 34.5625 9.8125L34.5563 9.81875C34.3101 9.59591 34.0148 9.43445 33.6944 9.34755C33.3739 9.26065 33.0375 9.25078 32.7125 9.31875C32.4012 9.3532 32.1017 9.4577 31.8365 9.62439C31.5713 9.79108 31.3473 10.0156 31.1812 10.2813C30.9269 10.7972 30.8866 11.3927 31.0692 11.9382C31.2518 12.4837 31.6425 12.9349 32.1562 13.1938L31.5938 14.3062C30.7855 13.8977 30.1716 13.1861 29.8859 12.3267C29.6002 11.4674 29.666 10.5299 30.0688 9.71875C30.3178 9.27277 30.6693 8.89232 31.0941 8.60872C31.519 8.32512 32.0051 8.14648 32.5125 8.0875C32.9325 8.01449 33.362 8.01661 33.7812 8.09375C32.9919 7.11166 31.8681 6.45519 30.625 6.25C29.6982 6.20136 28.773 6.37269 27.925 6.75L27.7375 6.83125C27.6233 6.87621 27.4984 6.88655 27.3784 6.86099C27.2583 6.83543 27.1485 6.77509 27.0625 6.6875L27.0563 6.69375C26.8104 6.47052 26.5151 6.30881 26.1945 6.22189C25.874 6.13497 25.5375 6.12532 25.2125 6.19375C24.9012 6.2282 24.6017 6.3327 24.3365 6.49939C24.0713 6.66608 23.8473 6.89065 23.6812 7.15625C23.4269 7.67219 23.3866 8.26772 23.5692 8.81319C23.7518 9.35867 24.1425 9.80993 24.6562 10.0688L24.0938 11.1812C23.2855 10.7727 22.6716 10.0611 22.3859 9.20175C22.1002 8.34236 22.166 7.40488 22.5688 6.59375C22.8178 6.14777 23.1693 5.76732 23.5941 5.48372C24.019 5.20012 24.5051 5.02148 25.0125 4.9625C25.1964 4.93241 25.3824 4.91778 25.5688 4.91875C24.8454 4.16894 23.9811 3.56931 23.0255 3.15424C22.0699 2.73918 21.0417 2.51685 20 2.5C17.7088 2.51394 15.5033 3.37299 13.8062 4.9125C13.9926 4.91675 14.1784 4.93345 14.3625 4.9625C14.8699 5.02148 15.356 5.20012 15.7809 5.48372C16.2057 5.76732 16.5572 6.14777 16.8062 6.59375C17.2119 7.40439 17.2792 8.34293 16.9932 9.20313C16.7073 10.0633 16.0915 10.7748 15.2812 11.1812L14.7188 10.0688C15.2335 9.81105 15.6252 9.35983 15.8079 8.81393C15.9907 8.26802 15.9496 7.67194 15.6938 7.15625C15.5277 6.89065 15.3037 6.66608 15.0385 6.49939C14.7733 6.3327 14.4738 6.2282 14.1625 6.19375C13.8375 6.1274 13.5014 6.13806 13.1813 6.22488C12.8611 6.31171 12.5657 6.47228 12.3187 6.69375L12.3125 6.6875C12.2223 6.77911 12.1059 6.84037 11.9793 6.86277C11.8528 6.88517 11.7224 6.8676 11.6062 6.8125C10.9199 6.4447 10.1536 6.25151 9.375 6.25C8.5462 6.25 7.75134 6.57924 7.16529 7.16529C6.57924 7.75134 6.25 8.5462 6.25 9.375C6.25 9.3875 6.24375 9.4 6.24375 9.4125H6.25C6.21862 9.83371 6.33955 10.2522 6.59077 10.5917C6.84198 10.9313 7.20678 11.1693 7.61875 11.2625C7.98314 11.3196 8.35625 11.2603 8.68501 11.0931C9.01377 10.9259 9.28146 10.6593 9.45 10.3313L10.55 10.9187C10.2959 11.4016 9.91608 11.8068 9.45076 12.0917C8.98544 12.3766 8.45183 12.5307 7.90625 12.5375C7.72997 12.5395 7.55399 12.5227 7.38125 12.4875C6.79174 12.3669 6.25292 12.0697 5.83647 11.6354C5.42002 11.2011 5.1457 10.6503 5.05 10.0563C4.33443 10.1914 3.68835 10.5718 3.22293 11.1319C2.75752 11.692 2.50188 12.3968 2.5 13.125C2.50231 14.6161 3.09569 16.0455 4.15008 17.0999C5.20447 18.1543 6.63387 18.7477 8.125 18.75H14.375C14.7068 18.7319 15.0296 18.6358 15.3173 18.4697C15.6051 18.3036 15.8497 18.072 16.0312 17.7937C16.2271 17.5507 16.3649 17.2662 16.4342 16.9618C16.5035 16.6575 16.5025 16.3414 16.4313 16.0375C16.2489 15.4919 15.8578 15.0408 15.3435 14.7831C14.8292 14.5254 14.2337 14.482 13.6875 14.6625L13.2938 13.4812C13.7197 13.3387 14.1696 13.2815 14.6176 13.3131C15.0657 13.3447 15.5031 13.4643 15.9049 13.6652C16.3067 13.8661 16.6648 14.1442 16.9589 14.4837C17.253 14.8233 17.4772 15.2175 17.6188 15.6438C17.7576 16.1353 17.7779 16.6527 17.678 17.1536C17.578 17.6544 17.3607 18.1245 17.0438 18.525C16.9875 18.6062 16.925 18.675 16.8687 18.75H23.1312C23.075 18.675 23.0125 18.6062 22.9562 18.525C22.6393 18.1245 22.422 17.6544 22.322 17.1536C22.2221 16.6527 22.2424 16.1353 22.3813 15.6438C22.5228 15.2175 22.747 14.8233 23.0411 14.4837C23.3352 14.1442 23.6933 13.8661 24.0951 13.6652C24.4969 13.4643 24.9343 13.3447 25.3823 13.3131C25.8304 13.2815 26.2803 13.3387 26.7062 13.4812L26.3125 14.6625C25.7663 14.4813 25.1705 14.5244 24.6561 14.7822C24.1416 15.04 23.7505 15.4915 23.5687 16.0375C23.4975 16.3414 23.4965 16.6575 23.5658 16.9618C23.6351 17.2662 23.7729 17.5507 23.9688 17.7937C24.1503 18.072 24.3949 18.3036 24.6827 18.4697C24.9704 18.6358 25.2932 18.7319 25.625 18.75H33.75C36.3375 18.75 37.5 16.55 37.5 14.375C37.5 12.0437 36.5062 10.4 34.85 9.98125Z" fill="url(#paint1_linear)"/>
<path d="M23.125 23.75H16.875V26.25H23.125V23.75Z" fill="url(#paint2_linear)"/>
<path d="M13.75 23.75V28.75H26.25V23.75H24.375V26.875C24.375 27.0408 24.3092 27.1997 24.1919 27.3169C24.0747 27.4342 23.9158 27.5 23.75 27.5H16.25C16.0842 27.5 15.9253 27.4342 15.8081 27.3169C15.6908 27.1997 15.625 27.0408 15.625 26.875V23.75H13.75Z" fill="url(#paint3_linear)"/>
<path d="M26.25 36.875C26.2516 37.3471 26.0746 37.8024 25.7545 38.1494C25.4344 38.4964 24.9949 38.7095 24.5241 38.7459C24.0534 38.7823 23.5864 38.6393 23.2167 38.3456C22.8471 38.0519 22.6022 37.6293 22.5312 37.1625L20.8063 35.4437C20.6911 35.3246 20.6262 35.1657 20.625 35V29.375H21.875V34.7437L22.8812 35.75C23.1167 35.4351 23.4455 35.2023 23.8208 35.0849C24.1961 34.9675 24.5989 34.9713 24.9719 35.0959C25.3449 35.2205 25.6692 35.4594 25.8986 35.7788C26.1281 36.0982 26.251 36.4817 26.25 36.875Z" fill="url(#paint4_linear)"/>
<path d="M31.8751 29.375V32.5C31.875 32.6396 31.8282 32.7751 31.7421 32.885C31.656 32.9949 31.5356 33.0727 31.4001 33.1062L29.2939 33.6312C29.1718 34.0522 28.9052 34.4166 28.5409 34.6604C28.1767 34.9041 27.7382 35.0116 27.3025 34.9639C26.8668 34.9163 26.4619 34.7165 26.159 34.3997C25.8561 34.0829 25.6746 33.6695 25.6464 33.2321C25.6183 32.7947 25.7453 32.3614 26.0051 32.0085C26.2649 31.6555 26.6409 31.4054 27.0668 31.3023C27.4928 31.1992 27.9415 31.2496 28.334 31.4446C28.7265 31.6397 29.0376 31.9669 29.2126 32.3687L30.6251 32.0125V29.375H31.8751Z" fill="url(#paint5_linear)"/>
<path d="M34.9999 29.375V36.875C34.9999 37.0407 34.934 37.1997 34.8168 37.3169C34.6996 37.4341 34.5407 37.5 34.3749 37.5H32.3874C32.24 37.917 31.9499 38.2685 31.5683 38.4923C31.1868 38.7161 30.7385 38.7978 30.3026 38.723C29.8666 38.6482 29.4712 38.4217 29.1861 38.0835C28.901 37.7454 28.7446 37.3173 28.7446 36.875C28.7446 36.4327 28.901 36.0046 29.1861 35.6665C29.4712 35.3283 29.8666 35.1018 30.3026 35.027C30.7385 34.9522 31.1868 35.0339 31.5683 35.2577C31.9499 35.4815 32.24 35.833 32.3874 36.25H33.7499V29.375H34.9999Z" fill="url(#paint6_linear)"/>
<path d="M19.3751 29.375V35C19.3739 35.1657 19.309 35.3246 19.1938 35.4437L17.4688 37.1625C17.4015 37.5889 17.1888 37.9789 16.8667 38.2663C16.5446 38.5538 16.1331 38.721 15.7018 38.7396C15.2705 38.7582 14.8461 38.6271 14.5004 38.3685C14.1548 38.1099 13.9092 37.7396 13.8054 37.3206C13.7016 36.9016 13.7459 36.4596 13.9308 36.0695C14.1157 35.6794 14.4298 35.3653 14.8199 35.1804C15.2099 34.9955 15.652 34.9512 16.071 35.055C16.49 35.1588 16.8602 35.4044 17.1188 35.75L18.1251 34.7437V29.375H19.3751Z" fill="url(#paint7_linear)"/>
<path d="M14.375 33.125C14.3771 33.5777 14.2147 34.0158 13.9181 34.3578C13.6215 34.6998 13.2107 34.9224 12.7623 34.9843C12.3138 35.0462 11.8581 34.9431 11.4799 34.6942C11.1018 34.4453 10.8268 34.0676 10.7062 33.6312L8.6 33.1063C8.4645 33.0728 8.34411 32.9949 8.25802 32.885C8.17194 32.7751 8.12511 32.6396 8.125 32.5V29.375H9.375V32.0125L10.7875 32.3688C10.9621 31.977 11.2658 31.657 11.6478 31.4621C12.0298 31.2672 12.4671 31.2091 12.8868 31.2976C13.3064 31.386 13.6831 31.6157 13.9539 31.9482C14.2247 32.2808 14.3733 32.6961 14.375 33.125Z" fill="url(#paint8_linear)"/>
<path d="M11.25 36.875C11.2466 37.3147 11.0887 37.7392 10.8041 38.0744C10.5194 38.4095 10.1259 38.6339 9.69257 38.7084C9.25919 38.7828 8.81343 38.7026 8.43321 38.4817C8.05298 38.2609 7.76249 37.9134 7.6125 37.5H5.625C5.45924 37.5 5.30027 37.4342 5.18306 37.3169C5.06585 37.1997 5 37.0408 5 36.875V29.375H6.25V36.25H7.6125C7.76249 35.8366 8.05298 35.4892 8.43321 35.2683C8.81343 35.0474 9.25919 34.9672 9.69257 35.0416C10.1259 35.1161 10.5194 35.3405 10.8041 35.6756C11.0887 36.0108 11.2466 36.4353 11.25 36.875Z" fill="url(#paint9_linear)"/>
<defs>
<linearGradient id="paint0_linear" x1="33.7868" y1="25.7421" x2="-1.28199" y2="23.044" gradientUnits="userSpaceOnUse">
<stop stop-color="#FA6214"/>
<stop offset="1" stop-color="#31EFEF"/>
</linearGradient>
<linearGradient id="paint1_linear" x1="35.4412" y1="13.164" x2="-3.98346" y2="11.3347" gradientUnits="userSpaceOnUse">
<stop stop-color="#FA6214"/>
<stop offset="1" stop-color="#31EFEF"/>
</linearGradient>
<linearGradient id="paint2_linear" x1="22.7574" y1="25.3906" x2="15.7225" y2="25.0117" gradientUnits="userSpaceOnUse">
<stop stop-color="#FA6214"/>
<stop offset="1" stop-color="#31EFEF"/>
</linearGradient>
<linearGradient id="paint3_linear" x1="25.5147" y1="27.0312" x2="11.445" y2="26.2735" gradientUnits="userSpaceOnUse">
<stop stop-color="#FA6214"/>
<stop offset="1" stop-color="#31EFEF"/>
</linearGradient>
<linearGradient id="paint4_linear" x1="25.9191" y1="35.5283" x2="19.5704" y2="35.4462" gradientUnits="userSpaceOnUse">
<stop stop-color="#FA6214"/>
<stop offset="1" stop-color="#31EFEF"/>
</linearGradient>
<linearGradient id="paint5_linear" x1="31.5085" y1="33.05" x2="24.477" y2="32.8814" gradientUnits="userSpaceOnUse">
<stop stop-color="#FA6214"/>
<stop offset="1" stop-color="#31EFEF"/>
</linearGradient>
<linearGradient id="paint6_linear" x1="34.6319" y1="35.5273" x2="27.5722" y2="35.4258" gradientUnits="userSpaceOnUse">
<stop stop-color="#FA6214"/>
<stop offset="1" stop-color="#31EFEF"/>
</linearGradient>
<linearGradient id="paint7_linear" x1="19.0442" y1="35.5216" x2="12.696" y2="35.4395" gradientUnits="userSpaceOnUse">
<stop stop-color="#FA6214"/>
<stop offset="1" stop-color="#31EFEF"/>
</linearGradient>
<linearGradient id="paint8_linear" x1="14.0074" y1="33.0676" x2="6.95612" y2="32.8988" gradientUnits="userSpaceOnUse">
<stop stop-color="#FA6214"/>
<stop offset="1" stop-color="#31EFEF"/>
</linearGradient>
<linearGradient id="paint9_linear" x1="10.8824" y1="35.5178" x2="3.82854" y2="35.4163" gradientUnits="userSpaceOnUse">
<stop stop-color="#FA6214"/>
<stop offset="1" stop-color="#31EFEF"/>
</linearGradient>
</defs>
</svg>
