<svg width="22" height="22" viewBox="0 0 22 22" fill="none" xmlns="http://www.w3.org/2000/svg">
<g clip-path="url(#clip0)">
<path d="M11 0.000244141C4.92482 0.000244141 0 4.92506 0 11.0002C0 17.0754 4.92482 22.0002 11 22.0002C17.0752 22.0002 22 17.0754 22 11.0002C22 4.92506 17.0752 0.000244141 11 0.000244141Z" fill="url(#paint0_linear)"/>
<path d="M16.3526 6.32769L14.3878 16.2336C14.3878 16.2336 14.1131 16.9206 13.3574 16.5909L8.82354 13.1149L7.17492 12.318L4.39965 11.3837C4.39965 11.3837 3.97375 11.2327 3.9325 10.9029C3.89125 10.5732 4.4134 10.3946 4.4134 10.3946L15.4457 6.06678C15.4457 6.06678 16.3525 5.66838 16.3525 6.32786" fill="white"/>
<path d="M8.47504 16.1224C8.47504 16.1224 8.34269 16.11 8.17769 15.5879C8.01295 15.0658 7.1748 12.318 7.1748 12.318L13.8382 8.08648C13.8382 8.08648 14.223 7.8529 14.2092 8.08648C14.2092 8.08648 14.2779 8.12773 14.0717 8.32006C13.8657 8.51247 8.83727 13.0325 8.83727 13.0325" fill="#D2E5F1"/>
<path d="M10.5619 14.4477L8.76866 16.0828C8.76866 16.0828 8.62841 16.1892 8.4751 16.1225L8.8185 13.0854" fill="#B5CFE4"/>
</g>
<defs>
<linearGradient id="paint0_linear" x1="20.7059" y1="14.4376" x2="-4.11715" y2="13.9029" gradientUnits="userSpaceOnUse">
<stop stop-color="#FA6214"/>
<stop offset="1" stop-color="#31EFEF"/>
</linearGradient>
<clipPath id="clip0">
<rect width="22" height="22" fill="white" transform="translate(0 0.000244141)"/>
</clipPath>
</defs>
</svg>
